<svg width="80" height="20" viewBox="0 0 80 20" fill="none" xmlns="http://www.w3.org/2000/svg">
<g clip-path="url(#clip0_467_312)">
<path fill-rule="evenodd" clip-rule="evenodd" d="M7.6151 1.64148V3.21999L8.10725 3.22113C9.96914 3.2254 11.5986 4.57908 11.7969 6.28664L11.8593 6.82324H13.7351H15.6109L15.5566 5.97524C15.337 2.54704 12.7447 0.327814 8.71657 0.119869L7.6151 0.0629751V1.64148ZM24.9372 0.278412C19.1332 1.51641 16.0479 7.12184 17.7972 13.2505C20.4913 22.6892 35.0545 22.0601 37.0737 12.4178C38.7098 4.60516 32.7237 -1.38231 24.9372 0.278412ZM69.8596 1.8793V3.66784L70.6798 3.71648C77.3709 4.11388 78.2822 14.434 71.7749 16.1174C67.5806 17.2026 64.247 14.8503 63.8076 10.4957L63.7524 9.94849L61.8611 9.97419L59.9698 9.99979L59.9982 10.711C60.2464 16.9221 65.5445 20.8815 72.1197 19.7693C83.5166 17.8417 82.1513 0.0908528 70.6062 0.0908528H69.8596V1.8793ZM40.0497 10.0472V19.7191H41.9245H43.7994V10.0472V0.37532H41.9245H40.0497V10.0472ZM53.4548 4.07339V7.77147H49.4239H45.393V9.57309V11.3747H49.4239H53.4548V15.5469V19.7191H55.3765H57.2982V10.0472V0.37532H55.3765H53.4548V4.07339ZM29.1224 3.88214C34.8217 5.35653 35.1624 14.0485 29.5966 15.9829C25.9966 17.2341 22.2884 15.4233 21.3834 11.9721C20.0178 6.76436 24.0341 2.56572 29.1224 3.88214ZM0.304848 5.51943C0.318628 8.11453 2.1225 9.67484 6.4633 10.8465C11.2962 12.1509 12.7566 13.4618 11.5062 15.373C9.69804 18.1369 3.86544 16.742 3.86544 13.5457V13.2712H1.93277H0L0.067494 13.9997C0.429805 17.9105 3.12544 19.9087 8.03891 19.9087C12.6848 19.9087 15.5831 17.7413 15.5831 14.2668C15.5831 11.3027 13.961 9.89416 8.83159 8.40393C5.2395 7.36032 4.32993 6.8552 4.0352 5.74065L3.92731 5.33254L3.02926 5.27242C2.53534 5.23933 1.71997 5.21202 1.21724 5.21174L0.303254 5.21126L0.304848 5.51943Z" fill="white" fill-opacity="0.48"/>
</g>
<defs>
<clipPath id="clip0_467_312">
<rect width="80" height="20" fill="white"/>
</clipPath>
</defs>
</svg>
