<svg width="36" height="36" viewBox="0 0 36 36" fill="none" xmlns="http://www.w3.org/2000/svg">
<path fill-rule="evenodd" clip-rule="evenodd" d="M17.2428 1.66309C15.3693 2.33261 15.1972 4.95709 16.9696 5.82974C19.2345 6.94468 21.3334 4.11826 19.6359 2.2393C19.0874 1.63208 18.0372 1.37924 17.2428 1.66309ZM11.0678 6.75125C7.31405 8.93242 7.2282 8.98839 7.37044 9.15981C7.41354 9.2117 7.53715 9.41575 7.64508 9.61311L7.84139 9.97213L11.423 7.89426C13.3929 6.7514 15.0746 5.77124 15.1602 5.71604L15.3157 5.61564L15.0758 5.11515C14.9439 4.83988 14.8264 4.60827 14.8148 4.60047C14.8032 4.59259 13.117 5.56044 11.0678 6.75125ZM21.0866 4.76443C21.0866 4.83791 20.9936 5.07493 20.8798 5.29122L20.6729 5.68447L20.9677 5.85575C21.1298 5.94997 22.8109 6.91459 24.7036 7.9993L28.1448 9.9715L28.3456 9.60411C28.4562 9.40204 28.5767 9.20657 28.6135 9.16972C28.6503 9.13295 28.6804 9.06461 28.6804 9.01785C28.6804 8.94831 21.2432 4.63098 21.1233 4.63098C21.1032 4.63098 21.0866 4.69103 21.0866 4.76443ZM17.4304 9.69348V12.3654H17.9929H18.5554V9.69348V7.02161H17.9929H17.4304V9.69348ZM4.09887 8.94522C1.62879 9.75465 2.25106 13.3864 4.85564 13.362C6.82538 13.3434 7.78978 10.9513 6.39134 9.55286C5.81759 8.97911 4.81022 8.71213 4.09887 8.94522ZM30.5437 8.94381C28.1024 9.75275 28.5784 13.3379 31.1302 13.362C33.5867 13.3851 34.351 10.1357 32.1358 9.08682C31.6659 8.86436 30.9717 8.80199 30.5437 8.94381ZM7.67658 12.4873C7.59417 12.6716 7.47035 12.9081 7.40152 13.0129C7.24732 13.2475 6.89281 13.0063 9.99809 14.7797C12.2148 16.0457 12.6627 16.2775 12.6984 16.1771C12.7219 16.1109 12.8287 15.8602 12.9357 15.6199L13.1302 15.1831L10.5207 13.6863C9.08557 12.8631 7.89223 12.1812 7.86888 12.1709C7.84547 12.1607 7.75899 12.3031 7.67658 12.4873ZM25.5382 13.6555C22.9883 15.1458 22.0507 16.2677 23.3551 16.2677C23.3917 16.2677 28.4754 13.3485 28.5879 13.2629C28.6493 13.2162 28.618 13.1154 28.4688 12.8803C28.3575 12.7048 28.2463 12.4696 28.2217 12.3578C28.1637 12.0938 28.4338 11.9632 25.5382 13.6555ZM16.8832 13.4516C13.781 14.2028 12.6757 17.5774 14.4249 20.9574C16.4367 24.8449 20.0704 24.5688 21.8612 20.3923C23.5986 16.3405 20.8395 12.4937 16.8832 13.4516ZM4.21165 18.6583V22.9474H4.80931H5.40696L5.40689 18.6583L5.40675 14.3693H4.80917H4.21158L4.21165 18.6583ZM30.5789 18.6583L30.5788 22.9474H31.1765H31.7741V18.6583L31.7742 14.3693H31.1766H30.579L30.5789 18.6583ZM10.17 22.4743C7.37149 24.0924 7.30659 24.1348 7.41256 24.2776C7.47225 24.3581 7.6024 24.5922 7.70182 24.7978C7.80117 25.0034 7.91881 25.1574 7.9631 25.1399C8.1109 25.0815 13.527 21.9215 13.5945 21.8541C13.6744 21.7746 13.222 20.7993 13.1102 20.81C13.0693 20.8139 11.7462 21.5628 10.17 22.4743ZM22.5631 21.2954C22.2723 21.8966 21.9339 21.6108 25.2209 23.5403C28.4387 25.4291 28.0025 25.2474 28.2302 24.7931C28.3319 24.5901 28.4646 24.3678 28.525 24.2992C28.6705 24.1341 28.883 24.275 25.7034 22.429C22.4402 20.5348 22.858 20.6856 22.5631 21.2954ZM3.93483 24.1168C2.80652 24.5624 2.20704 26.046 2.71195 27.1434C3.71398 29.3214 7.0257 28.6731 7.0406 26.296C7.05094 24.644 5.44788 23.5193 3.93483 24.1168ZM30.5788 24.0285C28.054 24.8587 28.5849 28.4671 31.2319 28.4668C33.5505 28.4666 34.3104 25.2761 32.2436 24.2191C31.8181 24.0014 30.9599 23.9032 30.5788 24.0285ZM14.2312 24.2119C11.784 24.6674 9.76788 26.6323 9.26951 29.0472C9.06652 30.031 9.06532 34.0624 9.26796 34.3126L9.40233 34.4786H17.9929H26.5835L26.7233 34.306C26.9431 34.0344 26.885 29.4672 26.6518 28.6901C25.9389 26.3145 24.085 24.6214 21.7512 24.2144C20.9318 24.0715 14.996 24.0695 14.2312 24.2119ZM7.72727 27.4691C7.72727 27.5004 7.61491 27.7126 7.47752 27.9407C7.19177 28.4152 7.17623 28.3816 7.85749 28.764L8.19879 28.9556L8.34975 28.4361C8.54459 27.7656 8.5507 27.799 8.1957 27.591C7.88435 27.4085 7.72727 27.3677 7.72727 27.4691ZM27.8015 27.5751C27.4784 27.7594 27.4688 27.83 27.6743 28.5173L27.8049 28.9545L28.2412 28.6931C28.7578 28.3835 28.7468 28.4349 28.4167 27.8695C28.1113 27.3463 28.1608 27.37 27.8015 27.5751Z"/>
</svg>
