<svg width="36" height="36" viewBox="0 0 36 36" fill="none" xmlns="http://www.w3.org/2000/svg">
<path fill-rule="evenodd" clip-rule="evenodd" d="M17.6678 2.10134C16.8718 2.44304 16.3809 3.42588 16.6485 4.14216C16.7436 4.39679 23.2953 10.9304 23.5785 11.053C24.7074 11.5418 26.1425 10.1572 25.7071 8.9994C25.611 8.74382 19.06 2.21031 18.7775 2.08832C18.4931 1.96552 17.9698 1.97162 17.6678 2.10134ZM11.7896 9.57206C7.43768 13.9016 7.74802 13.4572 8.53385 14.233L9.01057 14.7036L8.72293 14.9952L8.43529 15.2868L10.3747 17.2171L12.3141 19.1475L12.6041 18.8644L12.894 18.5813L13.4327 19.1027C14.2804 19.9234 13.8044 20.2434 18.1272 15.9456C20.1622 13.9224 21.8449 12.2113 21.8666 12.1434C21.9436 11.9022 21.8113 11.6613 21.3318 11.1694L20.8464 10.6714L21.062 10.4501L21.2776 10.2289L19.3367 8.29899L17.396 6.36911L17.1786 6.58543L16.9611 6.80174L16.4622 6.33026C15.6663 5.57804 16.1223 5.26157 11.7896 9.57206ZM5.09172 14.597C4.3671 14.9245 3.88153 15.7872 4.0398 16.4659C4.1282 16.8451 10.3598 23.198 10.9341 23.4945C12.0456 24.0682 13.5091 22.798 13.1578 21.5647C13.058 21.2144 6.7224 14.834 6.2463 14.6043C5.90195 14.4383 5.44943 14.4353 5.09172 14.597ZM18.8648 16.5008C18.2347 17.1284 17.7307 17.67 17.7446 17.7043C17.8555 17.9768 28.8169 30.8132 29.099 31.0008C32.1576 33.0352 35.6322 29.0648 33.1591 26.3612C32.9453 26.1275 20.3082 15.5372 20.083 15.4029C20.043 15.3791 19.4948 15.8731 18.8648 16.5008ZM6.10391 22.9789C5.88846 23.129 5.87673 23.3663 6.04734 24.1234C6.13268 24.502 6.23948 24.9917 6.28468 25.2116C6.45276 26.0295 7.44362 26.2203 7.44362 25.4349C7.44362 23.9279 6.6995 22.5638 6.10391 22.9789ZM3.35894 23.4647C3.11022 23.7792 3.41721 24.4144 4.46089 25.7441C4.86816 26.263 5.64723 25.9393 5.46777 25.3257C5.40854 25.1231 4.28886 23.4968 4.12179 23.3708C3.91697 23.2161 3.51639 23.2654 3.35894 23.4647ZM2.23851 25.7321C1.76581 26.1019 1.96464 26.4275 3.1154 27.168C4.07912 27.788 4.23426 27.8539 4.49743 27.7543C5.04844 27.5459 4.96528 27.0014 4.32069 26.5969C4.10762 26.4632 3.66028 26.1824 3.32649 25.9727C2.6624 25.5555 2.50781 25.5214 2.23851 25.7321ZM6.0804 27.9374C5.50348 28.186 5.1971 28.6864 5.14325 29.4681L5.10665 29.9992H12.658H20.2093L20.1633 29.4498C20.0958 28.6456 19.8045 28.1772 19.2206 27.9346C18.842 27.7773 6.44588 27.7799 6.0804 27.9374ZM4.27413 31.1288C3.587 31.4886 3.42553 31.8567 3.42362 33.0676L3.42212 34H12.6579H21.8937L21.8933 33.1354C21.8928 31.8959 21.6986 31.4394 21.0466 31.1447C20.6492 30.9652 4.61576 30.95 4.27413 31.1288Z"/>
</svg>
