<svg width="36" height="36" viewBox="0 0 36 36" fill="none" xmlns="http://www.w3.org/2000/svg">
<path fill-rule="evenodd" clip-rule="evenodd" d="M16.2734 2.25202V3.50405L15.5125 3.64729C9.37848 4.80216 4.57412 9.70778 3.78089 15.626L3.6941 16.2734H2.34705H1V18V19.7266H2.25574H3.51142L3.58911 20.208C4.58043 26.3526 9.60937 31.4283 15.4932 32.2228L16.0742 32.3012V33.6506V35H17.834H19.5938V33.6387C19.5938 32.3014 19.5962 32.2773 19.7327 32.2773C19.8092 32.2773 20.1753 32.2157 20.5462 32.1404C26.6486 30.9015 31.2764 26.0593 32.109 20.042L32.1527 19.7266H33.5763H35V18V16.2734H33.653H32.3059L32.2191 15.626C31.4153 9.6283 26.3817 4.58381 20.208 3.58905L19.7266 3.51142V2.25574V1H18H16.2734V2.25202ZM16.2734 8.33789V9.5H18H19.7266V8.33789C19.7266 7.57608 19.7504 7.17578 19.7958 7.17578C21.2389 7.17578 24.0516 8.56573 25.6165 10.0522C27.2432 11.5974 28.8242 14.6305 28.8242 16.2059C28.8242 16.2491 28.4059 16.2734 27.6621 16.2734H26.5V18V19.7266H27.6621C28.4059 19.7266 28.8242 19.7509 28.8242 19.7941C28.8242 21.374 27.2433 24.4025 25.6072 25.9566C24.0549 27.4312 21.2318 28.8242 19.7958 28.8242C19.7504 28.8242 19.7266 28.4239 19.7266 27.6621V26.5H18H16.2734V27.668V28.8359L15.9912 28.7911C11.6447 28.1007 7.89928 24.3553 7.20892 20.0088L7.16409 19.7266H8.33205H9.5V18V16.2734H8.33789C7.57608 16.2734 7.17578 16.2496 7.17578 16.2042C7.17578 12.631 11.3735 8.17407 15.5762 7.28495C16.3473 7.12179 16.2734 7.01036 16.2734 8.33789ZM16.8953 12.9859C12.9548 13.8428 11.5234 18.7592 14.3821 21.6179C17.6131 24.8489 23.111 22.5702 23.111 18C23.111 14.7163 20.1015 12.2886 16.8953 12.9859Z" />
</svg>
