<svg width="36" height="36" viewBox="0 0 36 36" fill="none" xmlns="http://www.w3.org/2000/svg">
<path fill-rule="evenodd" clip-rule="evenodd" d="M17.4697 1.11824C17.2738 1.24766 8.27032 12.2402 8.11703 12.5371C7.89905 12.9593 8.06622 13.5637 8.47719 13.8386C8.69948 13.9874 8.72634 13.9891 10.8656 13.9891H13.0292L13.069 14.6021C13.0908 14.9392 13.3075 19.4645 13.5505 24.6583C14.1052 36.5149 13.4167 34.9294 18.0105 34.9294C21.9939 34.9294 21.9161 34.9484 22.0191 33.9488C22.0437 33.7098 22.9723 14.3258 22.9723 14.0504C22.9723 14.0141 23.8561 13.9891 25.1456 13.9891C27.2951 13.9891 27.3215 13.9874 27.5438 13.8386C27.9548 13.5637 28.122 12.9593 27.904 12.5371C27.7507 12.2402 18.7472 1.24766 18.5513 1.11824C18.3127 0.960587 17.7083 0.960587 17.4697 1.11824ZM8.54904 17.5566C8.40958 17.6301 8.25563 17.7952 8.15931 17.9745L8 18.2709L8.51073 26.2194C8.93394 32.8052 9.04065 34.2074 9.13313 34.3989C9.48608 35.1296 10.5959 35.1137 10.9583 34.3728C11.1327 34.0161 10.1564 18.3911 9.93211 17.9509C9.69692 17.4892 9.03489 17.3004 8.54904 17.5566ZM26.4628 17.5679C25.9575 17.8428 26.0182 17.3285 25.4495 26.1578C24.9378 34.1026 24.9372 34.116 25.0628 34.3728C25.4251 35.1137 26.5349 35.1296 26.8879 34.3989C27.0948 33.9706 28.0575 18.3791 27.8988 18.0267C27.6593 17.4948 26.99 17.281 26.4628 17.5679Z"/>
</svg>
