<svg width="32" height="32" viewBox="0 0 32 32" fill="none" xmlns="http://www.w3.org/2000/svg">
<g clip-path="url(#clip0_686_1337)">
<path fill-rule="evenodd" clip-rule="evenodd" d="M13.7645 1.1875V2.375H16.0145H18.2645V1.1875V0H16.0145H13.7645V1.1875ZM13.7645 5.375V6.5625H16.0145H18.2645V5.375V4.1875H16.0145H13.7645V5.375ZM4.2645 9.59375V10.8125H16.0145H27.7645V9.59375V8.375H16.0145H4.2645V9.59375ZM3.49431 12.6706C3.47831 12.6971 2.6855 14.6453 1.73256 17L0 21.2812L0.0306875 21.8125C0.353625 27.401 9.18575 27.3716 9.43062 21.7812L9.45525 21.2188L7.7155 16.9375L5.97575 12.6562L4.74963 12.6393C4.07525 12.63 3.51037 12.6441 3.49431 12.6706ZM12.702 14.0938V15.5625H14.827H16.952V23.7812C16.952 28.3016 16.9686 32 16.9889 32C17.3991 32 18.737 29.3549 19.1227 27.7812L19.2912 27.0938L19.3111 19.8594L19.331 12.625H16.0165H12.702V14.0938ZM26.0569 12.6706C26.041 12.6971 25.2483 14.6453 24.2953 17L22.5627 21.2812L22.5933 21.8125C22.915 27.4009 31.7474 27.3716 31.9932 21.7812L32.0179 21.2188L30.2783 16.9375L28.5387 12.6562L27.3124 12.6393C26.6379 12.63 26.0729 12.6441 26.0569 12.6706ZM5.98756 17.8906L7.0685 20.5625H4.73344H2.39837L3.43037 18.0156C3.998 16.6148 4.52213 15.3161 4.59513 15.1296L4.72781 14.7904L4.81719 15.0046C4.86638 15.1224 5.39306 16.4211 5.98756 17.8906ZM28.5501 17.8906L29.631 20.5625H27.2959H24.9609L25.9929 18.0156C26.5605 16.6148 27.0846 15.3161 27.1576 15.1296L27.2903 14.7904L27.3797 15.0046C27.4289 15.1224 27.9556 16.4211 28.5501 17.8906ZM12.7036 21.6719C12.7057 27.4252 12.7926 28.1271 13.7347 30.0029C14.1412 30.8123 14.9428 32 15.0826 32C15.1165 32 15.1395 29.0471 15.1395 24.6875V17.375H13.9207H12.702L12.7036 21.6719Z"/>
</g>
<defs>
<clipPath id="clip0_686_1337">
<rect width="32" height="32" fill="white"/>
</clipPath>
</defs>
</svg>
