<svg width="36" height="36" viewBox="0 0 36 36" fill="none" xmlns="http://www.w3.org/2000/svg">
<path fill-rule="evenodd" clip-rule="evenodd" d="M20.9805 1.08749C20.4471 1.17045 20.0898 1.24955 19.3292 1.45295C19.0107 1.5381 18.9947 1.44963 19.595 2.9194C20.0871 4.12441 20.1174 4.17905 20.2761 4.15127C20.3675 4.13531 20.8161 4.05561 21.2729 3.97405C22.2667 3.79677 23.8071 3.81498 24.662 4.01413C25.5786 4.22764 25.4585 4.32675 26.0665 2.85346C26.3584 2.14586 26.5863 1.55592 26.573 1.54256C26.1716 1.14106 22.5374 0.845396 20.9805 1.08749ZM16.6691 2.60492C14.6152 3.77576 12.7875 5.7587 11.7664 7.92397C11.4067 8.68694 11.3762 8.80134 11.5542 8.7229C11.6182 8.69472 12.3352 8.6664 13.1477 8.65995L14.6249 8.64826L14.9672 8.12246C15.7099 6.98173 16.5756 6.11473 17.7348 5.35089C18.1869 5.0529 18.3407 4.91663 18.3152 4.83646C17.6718 2.80839 17.2693 2.26285 16.6691 2.60492ZM28.2381 2.59462C28.1789 2.74996 27.9356 3.34735 27.6973 3.92214L27.264 4.96715L27.6235 5.17288C28.7973 5.84465 30.1687 7.21677 30.8409 8.3922L31.0464 8.75135L32.0905 8.31762C32.6649 8.07905 33.2619 7.83523 33.4172 7.77574C33.8101 7.62544 33.5516 7.05245 32.4583 5.65068C30.9816 3.75735 28.4839 1.94864 28.2381 2.59462ZM21.5055 5.87004C19.7499 6.1935 18.0986 7.17131 17.0215 8.52535C16.593 9.06391 16.5735 9.02349 17.384 9.27575C17.7671 9.39494 18.3994 9.62872 18.7892 9.7953L19.498 10.0982L19.7708 9.83459C23.8247 5.91823 30.0946 12.1899 26.1794 16.245L25.9159 16.5179L26.2186 17.2269C26.3852 17.6168 26.6189 18.2493 26.738 18.6325C26.9933 19.4531 26.9545 19.4403 27.5844 18.9118C33.3644 14.0616 28.9104 4.5059 21.5055 5.87004ZM33.0986 9.96899L31.7999 10.5076L31.9616 11.1793C32.2561 12.4027 32.1966 14.4795 31.8295 15.7912C31.8075 15.87 34.2082 16.9351 34.4093 16.9358C34.5007 16.9361 34.6531 16.4416 34.8499 15.5069C35.033 14.6371 35.0537 11.916 34.8837 11.0532C34.7438 10.3433 34.4929 9.42392 34.4399 9.42758C34.4165 9.42917 33.8129 9.67286 33.0986 9.96899ZM12.1689 10.5939C11.0623 10.725 9.62618 11.0221 9.49255 11.1477C9.45267 11.1852 10.443 13.7029 10.5331 13.7931C10.5446 13.8046 10.8053 13.7553 11.1123 13.6833C12.4235 13.3763 13.6669 13.3574 14.9931 13.6244C15.3586 13.698 15.7154 13.7628 15.786 13.7684C15.9383 13.7805 17.0257 11.2639 16.915 11.1556C16.588 10.8353 13.3582 10.453 12.1689 10.5939ZM22.1864 10.6226C21.9159 10.691 21.3028 10.9844 21.2493 11.071C21.2311 11.1004 21.4606 11.303 21.7594 11.5209C22.4588 12.0314 23.9835 13.5566 24.494 14.2566C24.9449 14.8748 24.9514 14.8748 25.2336 14.2595C26.1172 12.333 24.2477 10.1016 22.1864 10.6226ZM7.06236 12.2142C5.41991 13.1914 4.10188 14.4294 3.03976 15.9924C2.63487 16.5883 2.30499 17.1953 2.35749 17.2478C2.45717 17.3474 4.95122 18.3315 4.98969 18.2863C5.01495 18.2566 5.20307 17.978 5.40775 17.6672C6.18385 16.4886 7.3604 15.3721 8.5214 14.7125L8.7698 14.5713L8.23692 13.2776C7.94379 12.566 7.68343 11.962 7.65838 11.9353C7.63333 11.9086 7.36512 12.0341 7.06236 12.2142ZM18.2169 13.2196C17.9149 13.9505 17.679 14.5565 17.6928 14.5663C17.7065 14.5761 18.0317 14.7903 18.4155 15.0424C19.348 15.6551 20.3605 16.6679 20.973 17.6008C21.2251 17.9846 21.4393 18.3099 21.449 18.3236C21.4588 18.3374 22.0647 18.1014 22.7953 17.7994L24.1238 17.2501L23.9859 16.9768C23.0483 15.1185 20.8969 12.9666 19.0392 12.0287L18.766 11.8907L18.2169 13.2196ZM12.3018 15.4106C6.19581 16.1628 3.60541 23.725 7.96858 28.0606C12.408 32.472 19.9408 29.781 20.6121 23.5437C21.1165 18.8581 17.0023 14.8316 12.3018 15.4106ZM30.6622 18.2816C29.9129 19.4206 29.0822 20.256 27.9574 21.0016L27.3653 21.3941L27.3536 22.8709C27.3472 23.6831 27.3189 24.4001 27.2907 24.464C26.9525 25.232 30.4075 22.9852 31.7508 21.5636C34.0966 19.0812 34.0259 18.6057 31.176 17.701C31.0959 17.6755 30.9598 17.8294 30.6622 18.2816ZM14.6819 18.4929C18.7037 19.9884 18.7931 25.4781 14.8215 27.0603C11.664 28.3182 8.18017 25.5067 8.70754 22.1264C9.13855 19.3633 12.1301 17.544 14.6819 18.4929ZM1.43466 19.4454C1.05601 20.747 0.897852 22.8507 1.06837 24.3177C1.13841 24.9202 1.48011 26.474 1.56025 26.5541C1.57594 26.5698 2.16763 26.3437 2.87503 26.0517C4.34769 25.4437 4.24788 25.5644 4.03669 24.6468C3.83766 23.7822 3.81873 22.2433 3.99503 21.2567C4.07663 20.7997 4.15664 20.351 4.17279 20.2596C4.20076 20.1008 4.14627 20.0705 2.94726 19.5783C1.44974 18.9635 1.57168 18.9742 1.43466 19.4454ZM23.4659 19.5868C22.4506 20.0132 22.2383 20.1255 22.2467 20.2313C22.2522 20.3017 22.3168 20.6585 22.3901 21.0241C22.6542 22.3407 22.6351 23.6184 22.3323 24.9061C22.2601 25.2132 22.2105 25.4739 22.222 25.4854C22.3112 25.5746 24.8286 26.5663 24.8642 26.5263C25.0596 26.3076 25.3868 24.4548 25.4369 23.2841C25.5043 21.7111 25.1077 19.1274 24.7921 19.0837C24.7389 19.0763 24.142 19.3027 23.4659 19.5868ZM12.3236 20.3187C9.54584 21.3434 10.2679 25.3877 13.2321 25.4071C16.6284 25.4294 16.6957 20.3016 13.3004 20.2092C12.8099 20.1958 12.5899 20.2205 12.3236 20.3187ZM3.64787 27.793C2.92686 28.0917 2.33629 28.3671 2.33543 28.405C2.32313 28.9409 4.39268 31.4475 5.67143 32.4454C7.07253 33.5388 7.64575 33.7976 7.7954 33.4046C7.85455 33.2492 8.0979 32.6518 8.3362 32.077L8.76947 31.032L8.40996 30.8263C7.23428 30.1534 5.86488 28.7825 5.19012 27.6027C5.07575 27.4028 4.97693 27.2416 4.97049 27.2446C4.96398 27.2476 4.36882 27.4943 3.64787 27.793ZM21.324 27.4602C20.8411 28.4619 19.2827 30.0667 18.0879 30.7927C17.7901 30.9737 17.6891 31.0706 17.7147 31.1508C17.7762 31.3432 18.7362 33.6312 18.7692 33.6643C18.9579 33.853 21.1386 32.2422 22.1495 31.1674C22.9605 30.3051 24.2123 28.4849 24.0792 28.3616C24.0361 28.3216 22.5426 27.6908 21.7315 27.3699L21.4258 27.249L21.324 27.4602ZM10.4497 31.967C10.4162 32.0538 10.1745 32.6441 9.9124 33.2785C9.65037 33.913 9.44703 34.4431 9.46045 34.4566C9.74068 34.7369 12.0507 35.0381 13.5976 34.996C15.1567 34.9536 16.9535 34.6356 16.9535 34.402C16.9535 34.0491 15.9099 31.8207 15.7573 31.8476C15.666 31.8637 15.2174 31.9438 14.7605 32.0254C13.7941 32.1982 12.2351 32.1827 11.4047 31.9922C10.5304 31.7915 10.5175 31.7911 10.4497 31.967Z"/>
</svg>
