<svg width="36" height="36" viewBox="0 0 36 36" fill="none" xmlns="http://www.w3.org/2000/svg">
<path fill-rule="evenodd" clip-rule="evenodd" d="M6.68734 1.16106C6.19864 1.49454 6.22363 1.11126 6.24406 7.9524C6.26211 14.0165 6.26357 14.075 6.39865 14.2566C6.72542 14.6961 6.77904 14.7107 8.20097 14.747C9.97935 14.7923 9.99813 14.8075 9.99813 16.1968C9.99813 17.0921 10.068 17.2619 10.4951 17.4035C10.9031 17.5387 11.0688 17.4254 12.3459 16.1371C13.0003 15.4772 13.6159 14.8944 13.7141 14.8421C14.0031 14.6882 22.0669 14.7015 22.2983 14.8563C22.3883 14.9164 23.0289 15.529 23.722 16.2176C25.177 17.6631 25.2971 17.7232 25.7745 17.2437L25.9993 17.018V16.2124C25.9993 14.8052 26.015 14.7925 27.7965 14.747C29.2184 14.7107 29.272 14.6961 29.5988 14.2566C29.8158 13.9648 29.8473 2.00438 29.6323 1.55829C29.3357 0.942992 30.5587 1.00149 17.9897 1.00149H6.92114L6.68734 1.16106ZM14.8978 7.19493C15.8813 7.85472 14.9776 9.39434 13.9586 8.79505C13.1114 8.29676 13.4236 7.0442 14.3951 7.0442C14.5741 7.0442 14.7532 7.09792 14.8978 7.19493ZM18.4596 7.14281C19.1201 7.48578 19.1113 8.46642 18.4448 8.81258C17.9987 9.04433 17.5361 8.90316 17.2218 8.43933C16.7093 7.68313 17.6344 6.71424 18.4596 7.14281ZM22.0558 7.17023C22.8425 7.6911 22.5063 8.90249 21.5714 8.91544C20.6575 8.92813 20.277 7.72138 21.0323 7.20589C21.328 7.00416 21.7811 6.98835 22.0558 7.17023ZM27.3572 19.7361C25.0703 20.0624 23.9637 22.7241 25.2873 24.7147C26.1753 26.0501 28.1966 26.4574 29.5552 25.5748C32.4445 23.6978 30.7697 19.2492 27.3572 19.7361ZM7.00696 19.8527C4.85507 20.5633 4.12285 23.3329 5.64481 25.0054C7.6287 27.1853 11.1761 25.7944 11.1465 22.8482C11.1249 20.6891 9.04097 19.1811 7.00696 19.8527ZM17.2127 22.4884C15.2999 23.0049 14.3019 25.1369 15.1404 26.9154C16.5354 29.8746 20.9439 29.0593 21.1545 25.8031C21.2968 23.6055 19.2983 21.9251 17.2127 22.4884ZM4.50542 27.1224C3.27558 27.4555 2.97103 28.0787 3.0021 30.199C3.03417 32.3828 2.65808 32.2111 7.40917 32.2111H11.0397L11.0729 31.4308C11.1298 30.0865 11.7366 28.9627 12.6814 28.4518L12.8975 28.3348L12.7759 28.0982C12.3182 27.2084 11.3035 26.8396 10.5474 27.2882C8.92539 28.2504 6.69434 28.1949 5.22726 27.1559C5.02605 27.0134 4.92515 27.0088 4.50542 27.1224ZM24.5271 27.1038C23.8069 27.2742 22.8112 28.2619 23.2264 28.3942C24.0593 28.6597 24.8626 30.0966 24.9237 31.4308L24.9596 32.2111H28.5936C33.3382 32.2111 32.9633 32.3825 32.9953 30.199C33.0183 28.6331 32.9679 28.3421 32.5832 27.8195C32.157 27.2405 31.0567 26.8592 30.648 27.1487C29.1748 28.1926 26.9448 28.2532 25.3265 27.2934C25.0838 27.1494 24.8607 27.0346 24.8306 27.0382C24.8006 27.042 24.6641 27.0714 24.5271 27.1038ZM13.7954 30.0126C13.0872 30.3357 12.9736 30.705 12.9737 32.6836C12.9738 34.4219 13.0036 34.5634 13.4297 34.8493L13.6543 35H17.9987H22.3431L22.5678 34.8493C22.9957 34.5622 23.0237 34.4267 23.0238 32.638L23.0239 31.0396L22.8421 30.6795C22.4161 29.8359 21.3118 29.6089 20.2288 30.1424C18.8031 30.8448 17.1584 30.8461 15.7705 30.1459C15.1539 29.8348 14.3101 29.7778 13.7954 30.0126Z"/>
</svg>
