<svg width="36" height="36" viewBox="0 0 36 36" fill="none" xmlns="http://www.w3.org/2000/svg">
<path fill-rule="evenodd" clip-rule="evenodd" d="M7.88084 1.14444C5.6974 1.78126 4.99331 3.05569 4.99331 6.3708C4.99331 8.71559 4.82949 8.29711 6.34587 9.82576L7.48116 10.9702L6.55251 10.9706C5.53252 10.9711 5.37805 11.0185 5.1193 11.4107C4.99856 11.5938 4.99418 11.8694 4.99378 19.3116L4.99331 27.0227L14.6018 27.0404C25.3198 27.0602 24.4797 27.0214 24.7772 27.5092C25.2277 28.2475 24.7611 28.8886 23.6841 29.0109C21.1493 29.2988 20.0586 32.3398 21.8485 34.1288C23.3044 35.5839 25.7946 35.1559 26.7049 33.2942L26.9319 32.8299L26.9499 27.2342C26.9716 20.5334 27.1606 21.4274 25.5501 20.6141L24.4094 20.0381L25.1728 19.686C26.4413 19.1009 26.6561 18.977 26.8148 18.7389L26.9651 18.5135L26.9669 11.375C26.969 2.72172 26.969 2.72146 27.7339 1.48173L28.0194 1.01886L18.1493 1.02357C8.95141 1.02801 8.25197 1.03624 7.88084 1.14444ZM30.9576 1.14789C30.1607 1.44225 29.5804 1.96868 29.2031 2.73917L28.9896 3.17497L28.9693 5.08231L28.949 6.98964L31.6577 6.98917C35.2435 6.98864 34.9959 7.14402 34.9966 4.8937C34.9972 3.0119 34.8865 2.63953 34.0951 1.85974C33.3303 1.10623 31.9303 0.788584 30.9576 1.14789ZM21.4325 5.14706C22.0739 5.49781 22.0801 6.44039 21.4435 6.82378C21.2281 6.95348 21.1055 6.95647 15.9792 6.95647C10.8529 6.95647 10.7303 6.95348 10.5149 6.82378C9.7493 6.36277 9.92547 5.27403 10.8002 5.06002C11.2757 4.94372 21.2094 5.02499 21.4325 5.14706ZM21.4325 13.1744C22.0739 13.5252 22.0801 14.4678 21.4435 14.8512C21.2281 14.9809 21.1055 14.9839 15.9792 14.9839C10.8529 14.9839 10.7303 14.9809 10.5149 14.8512C9.7493 14.3902 9.92547 13.3014 10.8002 13.0874C11.2757 12.9711 21.2094 13.0524 21.4325 13.1744ZM21.4435 21.1537C22.0801 21.537 22.0801 22.4288 21.4435 22.8122C21.2281 22.9419 21.1055 22.9449 15.9792 22.9449C10.8529 22.9449 10.7303 22.9419 10.5149 22.8122C9.74372 22.3478 9.91963 21.2655 10.8016 21.0484C11.3333 20.9175 21.2136 21.0153 21.4435 21.1537ZM3.01167 29.1477C0.483727 30.0566 0.290695 33.5478 2.70321 34.7259L3.16787 34.9528L11.6115 34.9704L20.055 34.988L19.7668 34.5208C18.8433 33.0238 18.8393 30.9822 19.7568 29.4962L20.0538 29.0152L11.7104 29.0176C3.64507 29.0199 3.35519 29.0242 3.01167 29.1477Z"/>
</svg>
