<svg width="36" height="36" viewBox="0 0 36 36" fill="none" xmlns="http://www.w3.org/2000/svg">
<path fill-rule="evenodd" clip-rule="evenodd" d="M6.70122 3.75112C6.22066 4.71424 5.79889 5.50237 5.764 5.50256C5.57882 5.50356 2.03348 6.05273 2.00071 6.0855C1.96743 6.11883 3.11586 7.25819 4.39243 8.45833L4.77286 8.816L4.46053 10.693C4.08392 12.9558 3.89411 12.816 5.91766 11.7663L7.61193 10.8875L9.30252 11.7661C11.3218 12.8157 11.1323 12.9562 10.755 10.6894L10.4421 8.80881L11.8226 7.47239C12.582 6.73735 13.1827 6.11539 13.1576 6.09025C13.1176 6.05023 9.73248 5.51069 9.48338 5.50456C9.42272 5.50306 9.07456 4.87278 8.51489 3.75112C8.03433 2.78801 7.62625 2 7.60806 2C7.58986 2 7.18178 2.78801 6.70122 3.75112ZM15.1129 7.91004V10.7556H24.5564H34V7.91004V5.06447H24.5564H15.1129V7.91004ZM6.70122 14.0702C6.22066 15.0334 5.79889 15.8215 5.764 15.8217C5.57882 15.8227 2.03348 16.3719 2.00071 16.4046C1.96743 16.438 3.11586 17.5773 4.39243 18.7775L4.77286 19.1351L4.46053 21.0121C4.08392 23.275 3.89411 23.1351 5.91766 22.0855L7.61193 21.2066L9.30252 22.0853C11.3218 23.1348 11.1323 23.2753 10.755 21.0085L10.4421 19.1279L11.8226 17.7915C12.582 17.0565 13.1827 16.4345 13.1576 16.4094C13.1176 16.3693 9.73248 15.8298 9.48338 15.8237C9.42272 15.8222 9.07456 15.1919 8.51489 14.0702C8.03433 13.1071 7.62625 12.3191 7.60806 12.3191C7.58986 12.3191 7.18178 13.1071 6.70122 14.0702ZM15.1129 18.2292V21.0747H20.7728H26.4326V18.2292V15.3836H20.7728H15.1129V18.2292ZM6.70122 24.3894C6.22066 25.3525 5.79889 26.1406 5.764 26.1408C5.57882 26.1418 2.03348 26.691 2.00071 26.7237C1.96743 26.757 3.11767 27.8983 4.38949 29.0938L4.76698 29.4486L4.47104 31.1874C4.30831 32.1437 4.1736 33.0059 4.17172 33.1034C4.16835 33.2806 4.16972 33.2801 5.89108 32.3986L7.61381 31.5166L9.33079 32.3983C11.0444 33.2782 11.0478 33.2795 11.0444 33.103C11.0425 33.0057 10.9075 32.142 10.7444 31.1837L10.4479 29.4414L11.8256 28.1078C12.5833 27.3744 13.1827 26.7536 13.1576 26.7285C13.1176 26.6885 9.73248 26.1489 9.48338 26.1428C9.42272 26.1413 9.07456 25.511 8.51489 24.3894C8.03433 23.4263 7.62625 22.6383 7.60806 22.6383C7.58986 22.6383 7.18178 23.4263 6.70122 24.3894ZM15.1129 28.5483V31.3939H17.9585H20.804V28.5483V25.7027H17.9585H15.1129V28.5483Z"/>
</svg>
