<svg width="36" height="36" viewBox="0 0 36 36" fill="none" xmlns="http://www.w3.org/2000/svg">
<path fill-rule="evenodd" clip-rule="evenodd" d="M2.41441 3.17289C1.99238 3.45062 2.00044 3.39525 2 6.02203C1.99913 10.9635 3.32118 12.4367 7.71724 12.3933L9.40142 12.3767L9.47769 12.1443C9.51961 12.0164 9.58314 11.5114 9.61881 11.0219C9.72763 9.52759 10.2224 7.96116 10.8776 7.03568C10.9421 6.94464 10.9948 6.85342 10.9948 6.83303C10.9948 6.81258 10.0601 6.79499 8.9178 6.79393C5.15422 6.79044 4.1811 6.28505 3.9293 4.203C3.80743 3.19509 3.10573 2.71794 2.41441 3.17289ZM32.5213 3.17439C32.2339 3.36351 32.1249 3.60264 32.0527 4.203C31.801 6.29446 30.8347 6.7905 27.0051 6.79393L24.8687 6.79586L25.1553 7.27912C25.8808 8.50191 26.2508 9.73561 26.3633 11.3063C26.4019 11.8465 26.453 12.1618 26.5177 12.2604L26.6145 12.4079H28.2897C31.5563 12.4079 33.2416 11.3434 33.8587 8.89038C34.0439 8.15409 34.0484 3.74756 33.8642 3.46864C33.5906 3.05448 32.9251 2.90863 32.5213 3.17439ZM16.6169 5.0322C13.721 5.61385 11.6537 8.04123 11.4241 11.1296C11.3059 12.7195 11.1434 13.1377 10.3093 13.9979C9.53416 14.7974 9.55809 14.7475 9.55809 15.5663V16.265L9.91728 16.3687C11.4379 16.8073 12.6963 18.1059 13.1315 19.6855C13.2579 20.1444 13.2675 20.3568 13.3044 23.5383L13.3435 26.9055L14.2869 29.6921C15.5441 33.406 15.0696 32.9843 17.9912 32.9843C20.9243 32.9843 20.4447 33.4344 21.6933 29.5094L22.6406 26.5314L22.6801 23.3512C22.7171 20.3749 22.7281 20.14 22.8521 19.6855C23.2819 18.1103 24.5438 16.8075 26.065 16.3687L26.4242 16.265V15.5663C26.4242 14.7442 26.4518 14.8006 25.6417 13.9667C24.7868 13.0869 24.658 12.7804 24.5533 11.379C24.3128 8.16008 22.2311 5.63156 19.3201 5.02248L18.9282 4.94042V7.1006V9.26071L19.7445 10.0704C21.1131 11.4278 21.113 11.4794 19.7348 12.8755L18.9346 13.6861L18.9157 15.4944C18.8928 17.6988 18.7957 17.9575 17.9912 17.9575C17.1637 17.9575 17.0854 17.7258 17.0854 15.2762C17.0854 12.8215 17.0295 13.039 17.8832 12.1752L18.5775 11.4726L17.9184 10.8023C17.0051 9.87342 17.0904 10.2107 17.0541 7.38537L17.0229 4.95064L16.6169 5.0322ZM9.57514 18.8461C9.63686 20.1011 10.7801 22.26 11.383 22.26C11.5545 22.26 11.4076 20.0605 11.2081 19.6411C10.9026 18.9989 9.97737 18.1446 9.58751 18.1446C9.56171 18.1446 9.55615 18.4603 9.57514 18.8461ZM25.987 18.3354C25.4768 18.6153 25.0177 19.0985 24.7497 19.6375L24.519 20.1016L24.4982 21.1808C24.4737 22.4508 24.4419 22.4243 25.1275 21.705C25.9854 20.8052 26.4213 19.7805 26.4233 18.659C26.4243 18.072 26.4425 18.0854 25.987 18.3354Z"/>
</svg>
