<svg width="36" height="36" viewBox="0 0 36 36" fill="none" xmlns="http://www.w3.org/2000/svg">
<path fill-rule="evenodd" clip-rule="evenodd" d="M16.1642 3.02092C15.4222 4.70387 14.7241 5.55213 13.5999 6.13704C12.0416 6.94775 10.8572 6.93697 8.68057 6.09225L7.6569 5.695L6.67468 6.66992L5.69238 7.64485L5.82788 7.98561C6.79719 10.4232 6.92325 11.226 6.54855 12.5756C6.08495 14.2455 5.07254 15.2649 2.95397 16.1953L2 16.6143V18.0006V19.387L3.04221 19.8462C6.5355 21.3856 7.48874 23.721 6.09225 27.3194L5.695 28.3431L6.66992 29.3253L7.64485 30.3076L7.98561 30.1721C10.8132 29.0477 11.7957 28.9842 13.4927 29.8166C14.7014 30.4095 15.4085 31.2545 16.1953 33.046L16.6143 34H18H19.3857L19.8047 33.046C21.3553 29.515 23.6668 28.5234 27.2209 29.8647L28.3659 30.2968L29.3354 29.32L30.305 28.3431L29.9077 27.3194C28.5039 23.7021 29.477 21.372 33.046 19.8047L34 19.3857V18V16.6143L33.046 16.1953C31.3212 15.4379 30.4493 14.727 29.863 13.5999C29.0522 12.0416 29.063 10.8572 29.9077 8.68057L30.305 7.6569L29.3301 6.67468L28.3551 5.69238L28.0144 5.82788C23.7052 7.54149 21.4767 6.76131 19.8047 2.95397L19.3857 2H18H16.6142L16.1642 3.02092ZM18.9038 7.2229C29.0616 8.20398 32.4318 21.1602 24.0373 26.9577C17.8062 31.2611 9.05379 27.7172 7.42346 20.2308C5.90246 13.2465 11.8223 6.53898 18.9038 7.2229ZM17.0984 13.2795C16.0124 15.5977 16.3688 15.3243 13.9456 15.6975C12.8433 15.8672 11.9298 16.0169 11.9157 16.0302C11.9015 16.0434 12.5309 16.7105 13.3142 17.5125C14.0975 18.3145 14.7816 19.0365 14.8343 19.1169C14.9196 19.2472 14.8928 19.4915 14.5882 21.3523C14.4001 22.5014 14.2549 23.4675 14.2655 23.4994C14.2762 23.5313 15.0775 23.1204 16.0463 22.5862C18.2023 21.3975 17.8016 21.3978 19.9527 22.5832C20.919 23.1156 21.7211 23.5397 21.7352 23.5256C21.7493 23.5116 21.6054 22.5467 21.4154 21.3815C21.1079 19.4952 21.0805 19.2469 21.1658 19.1169C21.2184 19.0365 21.9025 18.3145 22.6858 17.5125C23.4691 16.7105 24.0984 16.0426 24.0842 16.0285C24.07 16.0143 23.1636 15.8658 22.0701 15.6985C19.6341 15.3258 19.9861 15.5906 18.9275 13.3339C17.8653 11.0697 18.13 11.0776 17.0984 13.2795Z"/>
</svg>
