<svg width="36" height="36" viewBox="0 0 36 36" fill="none" xmlns="http://www.w3.org/2000/svg">
<path fill-rule="evenodd" clip-rule="evenodd" d="M2 5.52356V9.04706L11.4615 17.0318L20.923 25.0166L20.7718 25.3468C20.1973 26.6017 20.4406 28.3067 21.3423 29.3438L21.5596 29.5938L25.5611 25.5939C27.7619 23.3941 29.5625 21.5764 29.5625 21.5547C29.5625 21.4827 28.9113 21.0123 28.5938 20.8549C27.5284 20.3269 26.2507 20.3122 25.2455 20.8167L25.0222 20.9287L17.0352 11.4644L9.04831 2H5.52419H2V5.52356ZM23.0886 6.57319C20.9659 9.08844 19.2292 11.1774 19.2292 11.2153C19.2292 11.4154 24.2617 17.2489 24.368 17.1719C24.4273 17.1289 26.6188 15.2844 29.2379 13.0731L34 9.05237V5.52619V2H30.474H26.948L23.0886 6.57319ZM10.0163 8.73506L13.3134 12.0326L12.6717 12.6721L12.0299 13.3116L8.71881 10.0001L5.40762 6.68844L6.03075 6.063C6.3735 5.71894 6.66862 5.4375 6.68656 5.4375C6.7045 5.4375 8.20288 6.92138 10.0163 8.73506ZM29.9692 6.063L30.5924 6.68844L27.2812 10.0001L23.9701 13.3116L23.3283 12.6721L22.6866 12.0326L25.9837 8.73506C27.7971 6.92138 29.2955 5.4375 29.3134 5.4375C29.3314 5.4375 29.6265 5.71894 29.9692 6.063ZM11.4453 20.3754L10.9844 20.9321L10.7578 20.8184C9.74937 20.3122 8.47312 20.3261 7.40625 20.8549C7.08869 21.0123 6.4375 21.4827 6.4375 21.5547C6.4375 21.5764 8.23812 23.3941 10.4389 25.5939L14.4404 29.5938L14.6578 29.3438C15.5603 28.3056 15.8028 26.6017 15.2269 25.3439L15.0744 25.011L15.8148 24.3961C16.734 23.6327 16.9292 23.97 14.2851 21.7525C11.6059 19.5056 12.0052 19.6992 11.4453 20.3754ZM6.34375 26.9375L4.90725 28.375H3.45362H2V31.1875V34H4.8125H7.625V32.5474V31.0947L9.07762 29.6411L10.5302 28.1876L9.1875 26.8438C7.58819 25.2431 8.05219 25.2279 6.34375 26.9375ZM26.8125 26.8438L25.4698 28.1876L26.9224 29.6411L28.375 31.0947V32.5474V34H31.1875H34V31.1875V28.375H32.5464H31.0928L29.6562 26.9375C27.9478 25.2279 28.4118 25.2431 26.8125 26.8438Z"/>
</svg>
