<svg width="36" height="36" viewBox="0 0 36 36" fill="none" xmlns="http://www.w3.org/2000/svg">
<path fill-rule="evenodd" clip-rule="evenodd" d="M29.138 3.09707C28.861 3.22258 28.8485 3.24246 28.2778 4.46653C27.9974 5.06789 27.7614 5.56655 27.7535 5.5747C27.7455 5.58285 27.1764 5.66283 26.4889 5.75242C25.1107 5.93201 24.9665 5.98833 24.8063 6.40906C24.605 6.93799 24.6819 7.04634 26.3531 8.58981L26.6827 8.89417L26.4676 10.0434C26.0367 12.345 26.4135 12.632 28.4157 11.5276C29.6452 10.8494 29.3355 10.849 30.5632 11.5306C32.5229 12.6184 32.9581 12.3087 32.5288 10.1323L32.2936 8.9395L33.2515 8.01177L34.2094 7.08404L34.2084 6.73515C34.2075 6.43417 34.1779 6.35439 33.992 6.1536L33.7767 5.92094L32.5176 5.75223C31.8251 5.65945 31.2405 5.56337 31.2184 5.53865C31.1963 5.51387 30.9602 5.02482 30.6938 4.45175C30.0624 3.09402 29.7483 2.82048 29.138 3.09707ZM17.5944 6.09476C17.3258 6.2316 17.2999 6.27407 16.7152 7.53015C16.2603 8.50738 16.217 8.5749 16.0242 8.6079C15.9111 8.62725 15.3499 8.69955 14.7772 8.7686C13.5917 8.9114 13.3903 8.99973 13.2603 9.43384C13.1275 9.8769 13.2045 10.0015 14.2112 10.9743L15.1512 11.8824L14.9367 13.0285C14.5087 15.3147 14.9339 15.6384 16.8944 14.519C18.1045 13.8281 17.8177 13.8288 19.0403 14.5134C21.0711 15.6507 21.7743 14.6253 20.7766 11.9816C20.7615 11.9419 21.1678 11.5138 21.6793 11.0305C23.316 9.48394 23.1734 9.01723 20.9801 8.74242C20.3024 8.65747 19.7246 8.56271 19.6962 8.53183C19.6677 8.50095 19.4133 7.97691 19.1307 7.36746C18.5084 6.02504 18.2123 5.77973 17.5944 6.09476ZM5.91386 8.82353C5.78875 8.93824 5.53998 9.38633 5.24245 10.0329C4.98255 10.5978 4.74472 11.0871 4.71397 11.1203C4.67236 11.1651 2.56065 11.482 2.25285 11.4896C2.11713 11.4929 1.73663 11.922 1.70105 12.1119C1.62617 12.511 1.81695 12.7939 2.73427 13.6444C3.28388 14.154 3.59182 14.4872 3.59169 14.5721C3.59149 14.645 3.50216 15.1643 3.39309 15.7262C2.97144 17.8986 3.40608 18.2056 5.3655 17.1199L6.44816 16.52L7.52896 17.1199C9.49813 18.2129 9.91342 17.9093 9.48786 15.6879C9.23645 14.3756 9.17866 14.5537 10.1528 13.6407C11.279 12.5852 11.4385 12.2421 11.0142 11.7883C10.7593 11.5156 10.7022 11.4992 9.4212 11.3301C8.76118 11.243 8.21144 11.1615 8.19951 11.149C8.18752 11.1365 7.9414 10.633 7.65255 10.0301C6.96365 8.59226 6.50972 8.2773 5.91386 8.82353ZM28.9433 13.8266C28.5891 14.1642 24.0798 20.2037 24.0281 20.4097C23.8563 21.0942 24.3315 21.4307 25.4701 21.4307H26.3217V26.5066C26.3217 33.0279 25.8746 32.2321 29.539 32.2321H32.1664L32.3917 32.0068L32.617 31.7815V26.6061V21.4307H33.4818C34.7651 21.4307 35.2709 20.9867 34.8606 20.2202C34.6205 19.7716 30.0325 13.765 29.8752 13.6933C29.5371 13.5393 29.1931 13.5885 28.9433 13.8266ZM17.554 16.0369C17.3099 16.1691 12.5671 22.4966 12.5143 22.7602C12.3735 23.4644 12.7944 23.75 13.9729 23.75H14.8577V27.7657V31.7815L15.083 32.0068L15.3083 32.2321H17.9722H20.6361L20.8614 32.0068L21.0867 31.7815V27.7657V23.75L21.9647 23.7497C23.1463 23.7494 23.4171 23.5933 23.4171 22.9125C23.4171 22.5756 18.7608 16.2322 18.3622 16.0261C18.1257 15.9038 17.7912 15.9083 17.554 16.0369ZM6.06209 18.3302C5.93029 18.3938 1.27429 24.4979 1.08471 24.8556C0.935408 25.1374 0.98915 25.5822 1.2012 25.8198L1.39443 26.0362L2.36086 26.0577L3.32735 26.0791V28.9303V31.7815L3.55266 32.0068L3.77796 32.2321H6.44187H9.10577L9.33107 32.0068L9.55638 31.7815V28.9303V26.0791L10.5121 26.0577C11.5861 26.0335 11.7394 25.9692 11.8727 25.4863C11.9811 25.0937 11.844 24.879 9.39933 21.6127C6.75544 18.0803 6.69765 18.0235 6.06209 18.3302Z"/>
</svg>
