<svg width="36" height="36" viewBox="0 0 36 36" fill="none" xmlns="http://www.w3.org/2000/svg">
<path fill-rule="evenodd" clip-rule="evenodd" d="M15.8601 1.14711C7.54527 2.33156 1 9.4967 1 17.4144V18.0761H2.0293H3.05859L3.05893 17.4609C3.0645 6.17402 16.7124 -0.797968 26.2676 5.60488C27.3799 6.35028 29.6751 8.40091 29.5434 8.53161C29.5314 8.54358 29.0156 8.4512 28.3974 8.32635C27.7791 8.20144 27.2399 8.09928 27.1991 8.09928C27.1046 8.09928 26.7261 10.0176 26.8065 10.0893C26.8388 10.1181 28.1801 10.4021 29.7871 10.7205C31.3941 11.039 32.7613 11.3148 32.8252 11.3334C32.9347 11.3654 32.9414 11.1868 32.9414 8.23676V5.10624H31.9453H30.9492L30.9499 6.02078L30.9506 6.93532L30.0364 6.03741C26.2436 2.31207 20.8188 0.440685 15.8601 1.14711ZM17.5675 7.37736C16.9449 8.06756 16.1603 10.1979 15.5836 12.7643C15.5116 13.0847 20.1253 13.2426 20.437 12.9304C20.4492 12.9182 20.3376 12.4231 20.1889 11.8302C19.4966 9.06823 18.5862 7.1016 18 7.1016C17.8688 7.1016 17.7451 7.18048 17.5675 7.37736ZM14.4627 7.66522C12.9961 8.16819 11.5618 9.04009 10.5039 10.0717L9.86523 10.6944L10.1386 10.9433C10.6984 11.4528 12.0118 12.1125 13.1008 12.4311C13.7202 12.6124 13.6301 12.709 13.885 11.5911C14.1422 10.4632 14.5974 9.025 14.9565 8.2055C15.1024 7.87274 15.2374 7.56306 15.2566 7.5173C15.308 7.39505 15.1819 7.4186 14.4627 7.66522ZM20.7227 7.4591C20.7227 7.4728 20.8291 7.7181 20.9593 8.0041C21.4007 8.97445 21.9081 10.6005 22.2186 12.0401C22.3498 12.6485 22.298 12.634 23.2259 12.3231C24.3241 11.955 25.6139 11.26 26.002 10.8274L26.1348 10.6793L25.4938 10.0619C24.3992 9.00744 22.9437 8.1346 21.4582 7.64175C20.8475 7.43915 20.7227 7.40815 20.7227 7.4591ZM8.34652 12.8383C6.52407 16.204 6.61332 20.596 8.56766 23.7162L8.70498 23.9355L9.01948 23.6733C9.79551 23.0262 11.0426 22.3941 12.4086 21.9551C13.3421 21.6552 13.3576 21.6471 13.3225 21.476C13.027 20.0389 13.0274 16.1093 13.3232 14.6726C13.3587 14.5001 13.343 14.49 12.7746 14.3195C11.2313 13.8566 9.81755 13.1641 8.94703 12.4446C8.68194 12.2256 8.6763 12.2293 8.34652 12.8383ZM27.0935 12.3944C26.6711 12.9041 24.6775 13.9066 23.2779 14.313C22.9572 14.4061 22.687 14.4902 22.6774 14.5C22.6678 14.5097 22.704 14.8469 22.7577 15.2493C22.9732 16.8612 22.924 20.4674 22.6722 21.5102C22.641 21.6395 22.7072 21.6739 23.4195 21.8987C24.8288 22.3432 26.0145 22.9281 26.8808 23.6058L27.2948 23.9297L27.4737 23.6468C29.3563 20.6686 29.4532 16.2062 27.7065 12.9293C27.375 12.3073 27.2534 12.2013 27.0935 12.3944ZM15.1826 15.1329C14.9895 16.3392 14.9532 18.9763 15.1107 20.3708C15.1644 20.8463 15.2089 21.2521 15.2096 21.2725C15.2103 21.293 15.5322 21.2715 15.9248 21.2248C16.8411 21.1157 19.154 21.1144 20.0752 21.2224C20.4679 21.2684 20.7897 21.2902 20.7904 21.2707C20.7911 21.2513 20.8356 20.8463 20.8893 20.3708C21.0558 18.8962 20.967 15.106 20.761 14.8997C20.7416 14.8803 20.3706 14.9 19.9365 14.9435C18.9863 15.0388 16.921 15.0429 16.1406 14.951C15.2311 14.8439 15.2289 14.8443 15.1826 15.1329ZM32.9414 18.6381C32.9414 29.2624 20.8589 36.3284 11.1604 31.3759C9.56202 30.5597 6.19974 27.8754 6.4566 27.6206C6.46862 27.6086 6.9844 27.701 7.60264 27.8258C8.22088 27.9507 8.7601 28.0529 8.80088 28.0529C8.89544 28.0529 9.27389 26.1346 9.19347 26.0629C9.1612 26.0341 7.81992 25.75 6.21289 25.4317C4.60586 25.1132 3.23869 24.8374 3.1748 24.8187C3.0653 24.7868 3.05859 24.9653 3.05859 27.9154V31.0459H4.05469H5.05078L5.05012 30.1314L5.04939 29.2169L5.9632 30.116C16.502 40.4863 35 33.2378 35 18.7378V18.0761H33.9707H32.9414V18.6381ZM16.0805 23.1389C15.8101 23.1702 15.578 23.2068 15.5648 23.22C15.435 23.35 16.476 26.7176 16.9679 27.759C17.7692 29.4553 18.2246 29.4556 19.0338 27.7605C19.5224 26.7368 20.5685 23.3535 20.437 23.2218C20.2977 23.0823 17.0933 23.0213 16.0805 23.1389ZM12.9863 23.7576C11.6657 24.1842 9.91245 25.1372 9.90129 25.4345C9.88071 25.981 12.888 27.9694 14.5672 28.5195C15.3479 28.7752 15.3301 28.7861 15.0696 28.2131C14.6257 27.2366 14.0721 25.4756 13.7805 24.1121C13.6542 23.5216 13.6805 23.5333 12.9863 23.7576ZM22.2203 24.1084C21.9265 25.4817 21.3874 27.2071 20.9555 28.1562C20.666 28.7926 20.646 28.7775 21.4328 28.5181C23.1039 27.9671 26.1016 25.9985 26.1016 25.452C26.1016 25.1135 23.6979 23.887 22.5397 23.6347L22.3313 23.5893L22.2203 24.1084Z"/>
</svg>
