<svg width="76" height="18" viewBox="0 0 76 18" fill="none" xmlns="http://www.w3.org/2000/svg">
<g clip-path="url(#clip0_595_706)">
<mask id="mask0_595_706" style="mask-type:luminance" maskUnits="userSpaceOnUse" x="0" y="0" width="76" height="18">
<path d="M75.3552 0H0V18H75.3552V0Z" fill="white"/>
</mask>
<g mask="url(#mask0_595_706)">
<path fill-rule="evenodd" clip-rule="evenodd" d="M73.4704 12.9463C73.952 12.9638 74.4255 12.8196 74.8155 12.5365C74.9905 12.3999 75.1308 12.2238 75.2248 12.0227C75.3177 11.8199 75.3618 11.5981 75.3533 11.3751C75.3648 11.0491 75.2483 10.7315 75.0288 10.4902C74.7241 10.1991 74.3634 9.97306 73.9687 9.82562L73.4817 9.62593C73.2921 9.55765 73.1143 9.46025 72.9547 9.33722C72.9086 9.29888 72.8719 9.25056 72.8473 9.19593C72.8221 9.14063 72.8091 9.08056 72.8092 9.01979C72.8092 8.69011 73.039 8.52715 73.5029 8.52715C73.7263 8.52457 73.9477 8.57019 74.1519 8.66091C74.357 8.75209 74.5408 8.88507 74.6916 9.05134L75.2799 8.36985C75.0675 8.11029 74.798 7.90333 74.4924 7.76512C74.1885 7.62713 73.8567 7.56167 73.5231 7.57391C73.0601 7.55507 72.6048 7.69756 72.235 7.97706C72.0729 8.10541 71.9437 8.27058 71.8583 8.45886C71.7712 8.64824 71.7293 8.85525 71.7358 9.06359C71.724 9.38121 71.8375 9.69076 72.0518 9.92546C72.3413 10.2032 72.6842 10.4192 73.0597 10.5603L73.5778 10.7812C73.777 10.8539 73.9652 10.9539 74.1368 11.0784C74.1874 11.1189 74.2272 11.1714 74.2527 11.231C74.28 11.2899 74.2931 11.3545 74.2908 11.4194C74.2938 11.5038 74.2743 11.5876 74.2344 11.662C74.1944 11.7365 74.1354 11.799 74.0634 11.8433C73.8861 11.9515 73.6807 12.0046 73.4732 11.9958C73.1973 11.9797 72.9277 11.906 72.6819 11.7795C72.4361 11.6531 72.2194 11.4767 72.0457 11.2616L71.424 11.9516C71.6597 12.2718 71.9693 12.5303 72.3264 12.7051C72.6824 12.8776 73.0751 12.9604 73.4704 12.9463ZM70.3676 11.9506C70.0979 11.972 69.8292 11.8993 69.607 11.7448C69.5183 11.6562 69.4506 11.5489 69.4087 11.4307C69.3666 11.3116 69.3515 11.1847 69.3645 11.0591V8.63971H70.8716V7.68647H69.3645V6.33432H68.2685V7.68647H67.442V8.63971H68.2685V11.1547C68.2507 11.4003 68.2852 11.6468 68.3698 11.8781C68.4544 12.1093 68.5872 12.3199 68.7593 12.496C69.1456 12.8162 69.6394 12.977 70.1402 12.9458C70.4432 12.9375 70.7447 12.8992 71.0402 12.8313V11.8998C70.7067 11.9318 70.483 11.9506 70.3676 11.9506ZM66.4586 8.12542C66.2805 7.93795 66.0639 7.79119 65.8238 7.69519C65.5837 7.59919 65.3256 7.55621 65.0674 7.5692C64.785 7.55812 64.5036 7.60747 64.2419 7.71395C63.9802 7.82044 63.7443 7.9816 63.5499 8.18664V7.68412H62.5359V12.8295H63.6191V9.76015C63.6123 9.60226 63.6381 9.44466 63.6949 9.29719C63.7503 9.14947 63.8349 9.01444 63.9436 8.90016C64.0521 8.78966 64.1819 8.70233 64.3251 8.64348C64.4683 8.58578 64.622 8.55898 64.7763 8.56483C64.9257 8.55857 65.0746 8.5848 65.2128 8.64172C65.3511 8.69864 65.4753 8.78489 65.5769 8.89451C65.7865 9.13298 65.8952 9.44352 65.8802 9.76062V12.8299H66.9663V9.61368C66.9963 9.07077 66.8145 8.53741 66.4591 8.12589L66.4586 8.12542ZM58.3405 8.8427C58.6 8.61823 58.9332 8.49733 59.2763 8.50313C59.6151 8.49237 59.9448 8.61419 60.1952 8.8427C60.3199 8.95931 60.4184 9.10106 60.4843 9.25857C60.5506 9.41715 60.5826 9.58788 60.5785 9.75968H57.8172C57.8833 9.4037 58.0681 9.08063 58.3414 8.84317L58.3405 8.8427ZM61.6627 9.92593C61.6704 9.61391 61.6153 9.30351 61.5007 9.01319C61.3852 8.72462 61.2123 8.46249 60.9925 8.24269C60.7741 8.02167 60.5128 7.84776 60.2246 7.73168C59.9364 7.61561 59.6274 7.55983 59.3168 7.56779C58.9699 7.55663 58.6248 7.6209 58.3052 7.75618C57.9834 7.89043 57.6943 8.09233 57.4574 8.34818C57.0807 8.73267 56.8266 9.22041 56.7275 9.74951C56.6284 10.2786 56.6887 10.8252 56.9007 11.32C57.1104 11.8141 57.4634 12.234 57.9143 12.5252C58.3626 12.8143 58.8882 12.9602 59.4214 12.9434C59.7964 12.9473 60.1684 12.8759 60.5154 12.7334C60.8635 12.5906 61.18 12.3806 61.447 12.1155L60.9289 11.3619C60.5325 11.7468 60.0035 11.9649 59.451 11.9714C59.053 11.9833 58.6636 11.8547 58.3508 11.6082C58.0463 11.3619 57.8485 11.0077 57.7984 10.6192H61.5822C61.6317 10.3919 61.6588 10.1604 61.6632 9.92782L61.6627 9.92593ZM55.3833 8.12824C55.209 7.94012 54.9957 7.79244 54.7583 7.69562C54.5208 7.59879 54.2651 7.55516 54.009 7.56779C53.6787 7.55166 53.3496 7.61677 53.0504 7.75743C52.7512 7.89808 52.491 8.10998 52.2928 8.37456C52.1354 8.11098 51.9081 7.8961 51.6361 7.7537C51.3641 7.61131 51.058 7.54697 50.7517 7.56779C50.4793 7.55813 50.2079 7.60629 49.9553 7.70908C49.7017 7.81256 49.4726 7.96802 49.2828 8.16545V7.68412H48.2688V12.8295H49.352V9.77098C49.3392 9.45303 49.4503 9.14251 49.6619 8.90487C49.7654 8.79531 49.8911 8.70923 50.0307 8.65243C50.1697 8.59547 50.3195 8.56944 50.4696 8.57613C50.6149 8.56931 50.7598 8.59539 50.8935 8.65243C51.028 8.70956 51.1481 8.79577 51.2453 8.90487C51.4463 9.14742 51.5495 9.45632 51.5345 9.77098V12.8299H52.6177V9.72153C52.612 9.57037 52.6364 9.41958 52.6893 9.27788C52.7412 9.13654 52.8214 9.00723 52.9248 8.89781C53.0303 8.79173 53.1567 8.70866 53.2959 8.65384C53.4346 8.59928 53.5832 8.57472 53.732 8.58179C53.8771 8.57518 54.0218 8.60058 54.1559 8.6562C54.2897 8.71277 54.4092 8.79835 54.5058 8.90675C54.7044 9.15197 54.805 9.46203 54.7884 9.77711V12.8361H55.8891V9.61368C55.9144 9.07303 55.7338 8.54288 55.3837 8.13013L55.3833 8.12824ZM45.0601 11.425L43.6001 7.68506H42.4321L44.4572 12.5992L44.2505 13.081C44.1706 13.3094 44.02 13.5064 43.8205 13.6433C43.6225 13.7789 43.3858 13.8467 43.1461 13.8364C43.0278 13.8364 42.83 13.8213 42.5451 13.794V14.7261C42.8185 14.7963 43.0997 14.8319 43.382 14.832C43.7754 14.8439 44.1615 14.7235 44.4784 14.4901C44.8195 14.2022 45.0831 13.8336 45.2452 13.4177L47.7159 7.68647H46.5582L45.0601 11.425ZM40.656 11.7495C40.4003 11.9811 40.0651 12.1051 39.7202 12.0957C39.4912 12.1063 39.2649 12.0422 39.0755 11.913C38.997 11.8568 38.9337 11.7819 38.8914 11.6952C38.849 11.6084 38.8289 11.5125 38.8329 11.4161C38.8329 10.996 39.1324 10.7878 39.7329 10.7878H41.0356V10.882C41.0393 11.0461 41.0072 11.2091 40.9414 11.3596C40.874 11.508 40.7773 11.6413 40.657 11.7514L40.656 11.7495ZM41.5627 8.13672C41.3613 7.94466 41.1233 7.79521 40.8628 7.6973C40.6031 7.59977 40.326 7.55711 40.049 7.57203C39.6286 7.55294 39.2107 7.64437 38.8367 7.83718C38.4605 8.03117 38.141 8.31936 37.9093 8.67362L38.5404 9.32262C38.7001 9.09559 38.9101 8.90849 39.1539 8.77591C39.3978 8.64332 39.6689 8.56883 39.9463 8.55824C40.0915 8.54906 40.2371 8.56924 40.3744 8.61758C40.5119 8.66714 40.6386 8.74278 40.7474 8.84035C40.8472 8.95094 40.9236 9.08051 40.9721 9.22132C41.0207 9.36212 41.0404 9.51126 41.03 9.65984V9.99517H39.5968C39.1094 9.96889 38.6276 10.1096 38.231 10.3941C38.0672 10.518 37.9355 10.6796 37.8472 10.865C37.7589 11.0513 37.7163 11.2558 37.7228 11.4618C37.7161 11.6666 37.7562 11.8702 37.8402 12.0572C37.9242 12.2441 38.0498 12.4093 38.2075 12.5403C38.5224 12.7549 38.8845 12.8901 39.2629 12.9345C39.6414 12.9788 40.025 12.931 40.381 12.7951C40.6628 12.6746 40.913 12.4909 41.1124 12.2582V12.8361H42.1264V9.72012C42.1445 9.43214 42.104 9.14347 42.0073 8.87161C41.9105 8.59976 41.7596 8.35038 41.5636 8.1386L41.5627 8.13672ZM33.6942 6.90325H35.0684C35.3933 6.88424 35.7124 6.99484 35.9558 7.21079C36.0647 7.31955 36.1495 7.45003 36.2047 7.59373C36.2599 7.73744 36.2842 7.89116 36.276 8.04488C36.284 8.19756 36.2596 8.3502 36.2044 8.49277C36.1498 8.63489 36.065 8.76345 35.9558 8.86955C35.7111 9.08302 35.3926 9.19208 35.0684 9.17332H33.6942V6.90325ZM33.6942 12.8318V10.1595H35.0896C35.7025 10.1853 36.3013 9.97146 36.7592 9.56329C36.9585 9.37162 37.1177 9.14219 37.2274 8.88839C37.3386 8.63363 37.3987 8.35953 37.4045 8.08162C37.4096 7.80412 37.3616 7.52821 37.2632 7.26872C37.165 7.01017 37.0166 6.77359 36.8266 6.57263C36.8054 6.55143 36.7847 6.52789 36.7635 6.50905C36.3024 6.1028 35.7017 5.89125 35.0878 5.91892H32.5963V12.8337L33.6942 12.8318ZM30.857 8.12777C30.6791 7.94064 30.4628 7.79412 30.223 7.6982C29.9833 7.60229 29.7256 7.55926 29.4677 7.57203C29.1853 7.56094 28.9038 7.61028 28.642 7.71677C28.3802 7.82325 28.1442 7.98441 27.9497 8.18947V7.68647H26.9339V12.8318H28.0194V9.76015C28.0126 9.60226 28.0384 9.44465 28.0953 9.29719C28.1516 9.14994 28.236 9.01508 28.3439 8.90016C28.4524 8.78966 28.5822 8.70233 28.7254 8.64348C28.8686 8.58575 29.0224 8.55895 29.1766 8.56483C29.326 8.5586 29.4749 8.58484 29.6131 8.64176C29.7514 8.69868 29.8756 8.78491 29.9773 8.89451C30.187 9.13291 30.2959 9.44345 30.281 9.76062V12.8299H31.3666V9.61368C31.3946 9.07121 31.2121 8.53887 30.857 8.12777ZM25.2158 6.4935C25.3118 6.49495 25.4071 6.47711 25.4961 6.44103C25.5851 6.40494 25.6659 6.35136 25.7338 6.28345C25.8038 6.2171 25.8591 6.1369 25.8963 6.04797C25.9342 5.95949 25.9528 5.86397 25.9509 5.76774C25.9526 5.67077 25.934 5.57453 25.8963 5.48516C25.8581 5.39676 25.8029 5.31674 25.7338 5.24967C25.6662 5.18127 25.5854 5.12721 25.4964 5.09072C25.4074 5.05422 25.312 5.03604 25.2158 5.03727C25.1191 5.03526 25.023 5.05255 24.9332 5.08813C24.8426 5.12471 24.7602 5.17881 24.6906 5.24732C24.6209 5.31383 24.5656 5.39399 24.5281 5.4828C24.4912 5.57239 24.4726 5.66848 24.4735 5.76539C24.4716 5.86161 24.4902 5.95714 24.5281 6.04561C24.5654 6.13454 24.6207 6.21474 24.6906 6.2811C24.7596 6.34964 24.8416 6.40373 24.9318 6.4402C25.022 6.47667 25.1185 6.4948 25.2158 6.4935ZM25.7531 12.8318V7.68647H24.6675V12.8318H25.7531ZM22.2557 11.4476C22.1126 11.597 21.9413 11.7164 21.7517 11.7991C21.5622 11.8818 21.3581 11.9261 21.1513 11.9294C20.9446 11.9322 20.7394 11.8939 20.5476 11.8167C20.3558 11.7395 20.1813 11.6249 20.0341 11.4797L20.0087 11.4542C19.859 11.2966 19.7428 11.1103 19.6673 10.9065C19.5897 10.7026 19.5533 10.4854 19.5599 10.2674C19.5481 9.82335 19.7117 9.39255 20.0153 9.0683C20.1559 8.91969 20.3242 8.80001 20.5108 8.71601C20.6967 8.63247 20.8976 8.58698 21.1014 8.58221C21.3052 8.57744 21.5079 8.61348 21.6976 8.68822C21.8877 8.76351 22.061 8.87554 22.2077 9.0179L22.2604 9.06877C22.561 9.39284 22.7281 9.81854 22.7281 10.2606C22.7281 10.7026 22.561 11.1283 22.2604 11.4523L22.2557 11.4476ZM19.233 12.1541C19.4771 12.4122 19.7722 12.6167 20.0996 12.7546C20.4257 12.8912 20.7771 12.9571 21.1306 12.9477C21.4865 12.9579 21.8407 12.8933 22.17 12.7579C22.4994 12.6226 22.7967 12.4196 23.0427 12.1621C23.5411 11.6624 23.8234 10.987 23.829 10.2812C23.8345 9.57546 23.5629 8.89572 23.0724 8.38822L23.0427 8.35855C22.5363 7.85653 21.8525 7.57431 21.1395 7.57308C20.4264 7.57184 19.7416 7.85169 19.2335 8.35195C18.9864 8.60058 18.7908 8.89556 18.658 9.21995C18.4556 9.70935 18.4013 10.2474 18.5018 10.7673C18.6022 11.2873 18.853 11.7663 19.2231 12.1451L19.233 12.1541ZM12.5382 11.9082C12.8688 12.2472 13.2655 12.5146 13.7038 12.6938C14.1403 12.8725 14.6091 12.9584 15.0805 12.9463C15.6777 12.9523 16.2666 12.8065 16.792 12.5224C17.2946 12.2498 17.7141 11.8464 18.0061 11.3549L17.1777 10.7355C16.9842 11.0571 16.7204 11.3308 16.4063 11.5362C16.0934 11.7399 15.7381 11.8691 15.3675 11.9141C14.9969 11.959 14.6209 11.9183 14.2685 11.7952C13.9158 11.6712 13.5959 11.4688 13.3327 11.2032C12.8811 10.7016 12.6313 10.0505 12.6313 9.3756C12.6313 8.70067 12.8811 8.04963 13.3327 7.54801C13.5954 7.28231 13.9156 7.08042 14.2685 6.95788C14.621 6.836 14.9965 6.79542 15.3668 6.8392C15.7376 6.88367 16.0931 7.01257 16.4063 7.21597C16.7206 7.42091 16.985 7.6937 17.1801 8.01427L18.0085 7.39447C17.7121 6.90522 17.2907 6.50371 16.7877 6.23117C16.2658 5.94347 15.6783 5.79581 15.0824 5.80259C14.6099 5.79025 14.1399 5.87594 13.7022 6.05427C13.2645 6.2326 12.8685 6.4997 12.5391 6.83873C11.8747 7.50834 11.4996 8.41204 11.4947 9.35538C11.4897 10.2987 11.8553 11.2063 12.5128 11.8828C12.5207 11.8918 12.5292 11.9003 12.5382 11.9082Z" fill="#02020B"/>
<path opacity="0.498" fill-rule="evenodd" clip-rule="evenodd" d="M0.0644531 7.42968L0.557559 5.51283L4.03614 3.4707V6.02854L0.0644531 8.56942V7.42968Z" fill="#1C60DD"/>
<path opacity="0.698" fill-rule="evenodd" clip-rule="evenodd" d="M1.71118 7.49667L5.63012 5.02832V7.05349C5.63012 7.05349 5.57125 7.72227 5.28443 7.84755C5.07344 7.93468 1.71354 9.94901 1.71354 9.94901L1.71118 7.49667Z" fill="#1C60DD"/>
<path opacity="0.898" fill-rule="evenodd" clip-rule="evenodd" d="M3.84399 8.69453L7.32917 6.61426V8.63943C7.32917 8.63943 7.32917 9.19988 6.98348 9.39722C6.76024 9.51826 3.84682 11.2378 3.84682 11.2378L3.84399 8.69453Z" fill="#1C60DD"/>
<path opacity="0.498" fill-rule="evenodd" clip-rule="evenodd" d="M5.28857 2.74743L7.20495 1.49512V4.05295L5.29281 5.23933L5.28857 2.74743Z" fill="#1C60DD"/>
<path opacity="0.698" fill-rule="evenodd" clip-rule="evenodd" d="M6.84888 4.26867L8.77326 3.11621V5.76306L6.84888 6.89669V4.26867Z" fill="#1C60DD"/>
<path opacity="0.498" fill-rule="evenodd" clip-rule="evenodd" d="M8.32495 0.812894L9.63566 0V1.76378C9.63566 1.76378 9.63566 2.64685 9.28997 2.82299C9.22262 2.85926 8.33296 3.38345 8.33296 3.38345L8.32495 0.812894Z" fill="#1C60DD"/>
<path opacity="0.898" fill-rule="evenodd" clip-rule="evenodd" d="M8.35986 5.97765L9.66492 5.18359L9.63525 7.20876C9.64248 7.35878 9.61506 7.50845 9.55511 7.64615C9.49516 7.78386 9.40429 7.90591 9.28955 8.00282C9.20337 8.08147 8.3137 8.52089 8.3283 8.52936C8.3429 8.53784 8.35326 5.90559 8.35986 5.97765Z" fill="#1C60DD"/>
<path opacity="0.698" fill-rule="evenodd" clip-rule="evenodd" d="M9.89697 2.46788L10.9425 1.7666C10.9425 1.7666 10.9529 2.81734 10.9425 3.53038C10.935 3.74684 10.8849 3.95969 10.7951 4.15677C10.7068 4.35275 10.58 4.52894 10.4221 4.67484C10.4221 4.67484 9.88237 5.01676 9.89744 5.02524C9.91251 5.03372 9.89697 2.46788 9.89697 2.46788Z" fill="#1C60DD"/>
<path fill-rule="evenodd" clip-rule="evenodd" d="M4.03854 3.46777C4.02159 3.50357 0.84301 5.10204 0.360265 5.64978C0.607054 5.43972 0.151626 5.85795 0.098877 6.48622L0.252413 12.3997C0.20407 12.7505 0.270569 13.1075 0.441968 13.4174C0.613366 13.7272 0.880456 13.9733 1.2033 14.1188C2.05482 14.6156 6.97928 17.449 7.58447 17.7358C8.18967 18.0226 8.34556 17.5681 8.34556 17.5681V11.8308C8.37352 11.5126 8.3073 11.1933 8.15514 10.9125C8.00298 10.6317 7.77161 10.4019 7.48981 10.2516C7.29153 10.0755 0.908474 7.13145 0.638609 6.20364C0.345194 5.20612 4.03854 3.72681 4.03854 3.46777Z" fill="#FBF9F5"/>
<path fill-rule="evenodd" clip-rule="evenodd" d="M8.04806 11.7778L8.35796 11.5508V17.6659C8.35796 17.6659 8.20819 17.9715 8.04806 18.0012C8.03111 17.9885 8.04806 11.7778 8.04806 11.7778Z" fill="#C0C9D7"/>
<path d="M0.416282 6.40361C0.460672 6.47463 0.511432 6.54147 0.567934 6.6033C0.504282 6.5323 0.450427 6.4531 0.407804 6.36781C0.0310285 5.3849 2.75842 4.27906 3.89298 3.54199C3.89298 3.54199 1.13592 4.93041 0.587715 5.4141C0.104971 5.84268 0.0696481 6.09983 0.0696481 6.09983L0.0117188 6.45447C0.0244349 6.27833 0.0286737 6.12479 0.07059 6.09371C0.0687061 6.12762 0.412985 6.36028 0.416282 6.40361Z" fill="#1C60DD"/>
<path d="M7.19823 10.494C6.97499 10.3028 4.11432 8.9765 2.13672 7.7793C2.25493 7.85371 2.35807 7.92059 2.44049 7.97475L7.12476 17.5222C7.22367 17.5755 7.29761 17.6164 7.35459 17.6452L8.04362 17.9956V11.8607C8.04354 11.5769 7.9644 11.2987 7.81508 11.0573C7.66576 10.8159 7.45217 10.6208 7.19823 10.494Z" fill="#1C60DD"/>
<path d="M2.13492 7.77959C1.55861 7.46489 1.03097 7.06829 0.568478 6.60216C0.511472 6.54076 0.460674 6.47387 0.416826 6.40247C0.412587 6.35537 0.0772567 6.09257 0.087147 6.06055C0.029198 6.18318 0.000961809 6.31775 0.0047273 6.45334L0.0132048 12.4818C0.0083329 12.7314 0.0725513 12.9775 0.198767 13.1929C0.347115 13.4394 0.536872 13.6585 0.759692 13.8405C1.47651 14.2842 5.90975 16.8547 7.13003 17.5188L2.43917 7.97268L2.13492 7.77959Z" fill="#1C60DD"/>
<path fill-rule="evenodd" clip-rule="evenodd" d="M7.03817 12.9797L6.06421 12.3703C5.89136 12.2685 5.72464 12.334 5.80894 12.5144V14.1529C5.87901 14.2578 5.90955 14.3841 5.89513 14.5094C5.75384 14.5028 6.44946 15.0911 6.84178 15.3138C6.95575 15.3798 7.16863 15.4052 7.15168 15.1377V13.1921C7.15162 13.15 7.14144 13.1085 7.12201 13.0711C7.10343 13.0332 7.07432 13.0015 7.03817 12.9797Z" fill="#B0B5BE"/>
<path fill-rule="evenodd" clip-rule="evenodd" d="M6.99629 13.0775C6.6823 12.8062 6.34751 12.5599 5.99501 12.3409C5.90882 12.2773 5.75952 12.3216 5.75952 12.4281C5.73569 13.1137 5.76814 13.8002 5.85654 14.4805C5.90929 14.6652 6.48246 15.0556 6.80743 15.2746C6.90445 15.3405 7.03491 15.3575 7.03915 15.2365C7.05799 14.7141 7.03915 13.5066 7.03915 13.1967C7.03986 13.1531 7.02462 13.1107 6.99629 13.0775Z" fill="#FBF9F5"/>
</g>
</g>
<defs>
<clipPath id="clip0_595_706">
<rect width="75.3552" height="18" fill="white"/>
</clipPath>
</defs>
</svg>
