<svg width="120" height="24" viewBox="0 0 120 24" fill="none" xmlns="http://www.w3.org/2000/svg">
<g clip-path="url(#clip0_2157_814)">
<mask id="mask0_2157_814" style="mask-type:luminance" maskUnits="userSpaceOnUse" x="4" y="4" width="113" height="16">
<path d="M116.8 4H4V19.7902H116.8V4Z" fill="white"/>
</mask>
<g mask="url(#mask0_2157_814)">
<path d="M42.8474 14.5064C42.9356 14.5057 43.0228 14.5238 43.1036 14.5592C43.1813 14.5939 43.2523 14.642 43.3135 14.7012C43.3746 14.761 43.4235 14.8319 43.4575 14.9103C43.4929 14.9927 43.5109 15.0815 43.5102 15.1711C43.5097 15.2603 43.491 15.3484 43.4555 15.4301C43.42 15.5117 43.3683 15.5854 43.3036 15.6466C42.4169 16.3752 41.3035 16.7699 40.1564 16.7626C39.4988 16.7632 38.8474 16.6339 38.2397 16.3822C37.6319 16.1304 37.0797 15.7612 36.6146 15.2956C36.1496 14.8299 35.7808 14.2771 35.5294 13.6685C35.2779 13.0601 35.1489 12.4079 35.1494 11.7494C35.1511 10.4205 35.6793 9.14648 36.6179 8.20688C37.5566 7.26727 38.8292 6.73878 40.1564 6.73733C41.3314 6.73364 42.4692 7.14875 43.3663 7.90835C43.4259 7.96812 43.4724 8.03974 43.5027 8.11861C43.533 8.19747 43.5464 8.28182 43.5422 8.3662C43.5429 8.45637 43.5257 8.5458 43.4916 8.62925C43.459 8.70789 43.4111 8.77932 43.3509 8.83946C43.2902 8.90056 43.2177 8.94851 43.1376 8.98033C43.018 9.03033 42.8864 9.04394 42.7591 9.01947C42.6319 8.99501 42.5146 8.93354 42.4221 8.84276C42.1072 8.59317 41.7526 8.39822 41.3734 8.26605C40.9819 8.13102 40.5704 8.0633 40.1564 8.06574C39.6733 8.06546 39.1948 8.16054 38.7483 8.34558C38.3019 8.53061 37.8963 8.80195 37.5547 9.14409C37.213 9.48622 36.9421 9.89243 36.7575 10.3395C36.5728 10.7865 36.478 11.2656 36.4784 11.7494C36.4785 12.4439 36.6746 13.1242 37.0441 13.7119C37.4135 14.2997 37.9413 14.771 38.5665 15.0716C39.1919 15.3722 39.8892 15.4897 40.5783 15.4107C41.2675 15.3318 41.9203 15.0595 42.4616 14.6253C42.5758 14.5486 42.7099 14.5073 42.8474 14.5064Z" fill="white"/>
<path d="M46.091 10.3968V10.5211C46.3974 10.2747 46.742 10.0803 47.1111 9.94552C47.4884 9.81002 47.8866 9.74221 48.2873 9.74521C48.4851 9.74588 48.6825 9.75838 48.8787 9.78264C49.0776 9.80426 49.2731 9.84934 49.4613 9.91691C49.6249 9.97406 49.7746 10.0648 49.901 10.1832C49.9595 10.2402 50.0055 10.3088 50.0358 10.3846C50.0661 10.4605 50.0801 10.5419 50.0769 10.6235C50.0772 10.7118 50.0588 10.7992 50.0231 10.8799C49.9888 10.9577 49.9412 11.0288 49.8823 11.0901C49.8236 11.1505 49.7534 11.1984 49.6757 11.231C49.5945 11.2644 49.5073 11.2813 49.4196 11.2805C49.3239 11.2765 49.2301 11.2533 49.1436 11.2123C48.8705 11.1056 48.5794 11.0522 48.2862 11.0549C47.9917 11.0533 47.6998 11.1121 47.4289 11.2277C47.1687 11.3383 46.9321 11.4979 46.7319 11.6977C46.5317 11.898 46.3724 12.1354 46.2626 12.3965C46.1463 12.6677 46.0876 12.96 46.09 13.255V16.1165C46.0897 16.2893 46.0211 16.455 45.8991 16.5773C45.7771 16.6996 45.6118 16.7686 45.4392 16.7692C45.3525 16.7709 45.2665 16.7548 45.1863 16.7218C45.1062 16.6889 45.0336 16.6399 44.9731 16.5777C44.9114 16.518 44.8626 16.4463 44.8296 16.367C44.7968 16.2877 44.7805 16.2024 44.7818 16.1165V10.3968C44.8025 10.2377 44.8803 10.0916 45.0006 9.98573C45.1209 9.87986 45.2757 9.82148 45.4359 9.82148C45.5961 9.82148 45.7508 9.87986 45.8712 9.98573C45.9916 10.0916 46.0694 10.2377 46.09 10.3968H46.091Z" fill="white"/>
<path d="M53.5035 16.1104L51.2512 10.6911C51.2101 10.5986 51.1888 10.4985 51.1885 10.3973C51.1881 10.3112 51.2049 10.2259 51.2379 10.1464C51.2706 10.0685 51.3173 9.99728 51.3753 9.93614C51.434 9.87566 51.5044 9.82774 51.5821 9.79527C51.6819 9.75516 51.79 9.73962 51.897 9.74996C52.0041 9.76031 52.1072 9.79622 52.1976 9.8547C52.3141 9.93325 52.4035 10.0459 52.4537 10.1772L54.2125 14.3814L55.9714 10.1651C56.0171 10.0465 56.0929 9.94182 56.1912 9.8613C56.3077 9.77593 56.4506 9.73461 56.5946 9.74464C56.6824 9.74391 56.7695 9.76075 56.8507 9.79416C56.9286 9.82637 56.9989 9.87433 57.0573 9.93504C57.1162 9.99633 57.1638 10.0675 57.1981 10.1453C57.2332 10.2242 57.2512 10.3097 57.2508 10.3962C57.2489 10.4978 57.2257 10.5979 57.1827 10.69L53.5838 19.3308C53.5316 19.4573 53.4452 19.5668 53.3342 19.6467C53.2097 19.7364 53.0574 19.779 52.9044 19.7669C52.7514 19.7548 52.6078 19.6888 52.4988 19.5806C52.4379 19.5188 52.3902 19.4453 52.3584 19.3646C52.3267 19.2838 52.3116 19.1974 52.3141 19.1107C52.314 19.0112 52.3355 18.9128 52.3768 18.8223L53.5035 16.1104Z" fill="white"/>
<path d="M62.0984 16.7625C61.2972 16.7767 60.5174 16.5034 59.9 15.9922V19.1189C59.9024 19.2057 59.8867 19.2922 59.8538 19.3725C59.8208 19.4529 59.7714 19.5255 59.7087 19.5856C59.6472 19.646 59.5744 19.6934 59.4943 19.7252C59.4143 19.757 59.3287 19.7724 59.2426 19.7705C59.1565 19.7731 59.0706 19.758 58.9905 19.7262C58.9104 19.6943 58.8376 19.6464 58.7767 19.5854C58.7157 19.5244 58.6679 19.4515 58.6361 19.3713C58.6043 19.2911 58.5892 19.2052 58.5918 19.1189V13.2538C58.5997 12.4455 58.8852 11.6646 59.4002 11.042C59.9152 10.4194 60.6284 9.99321 61.4202 9.83485C62.2119 9.67649 63.034 9.79564 63.7483 10.1723C64.4627 10.549 65.0259 11.1602 65.3434 11.9035C65.5202 12.3316 65.6102 12.7906 65.6083 13.2538C65.6173 13.7159 65.5306 14.1748 65.3539 14.6017C65.1773 15.0286 64.9144 15.4143 64.5816 15.7346C64.2549 16.0637 63.8669 16.3255 63.4395 16.505C63.0139 16.6789 62.5581 16.7664 62.0984 16.7625ZM59.9 13.2538C59.8983 13.5466 59.9567 13.8365 60.0714 14.1057C60.1816 14.366 60.3397 14.603 60.5375 14.8046C60.737 15.0048 60.9727 15.1651 61.2323 15.2768C61.5044 15.3927 61.7972 15.4525 62.0929 15.4525C62.3888 15.4525 62.6815 15.3927 62.9537 15.2768C63.2142 15.1645 63.4508 15.003 63.6506 14.8013C63.8495 14.5997 64.0091 14.3627 64.121 14.1024C64.2342 13.8336 64.2925 13.545 64.2925 13.2533C64.2925 12.9617 64.2342 12.673 64.121 12.4042C64.0091 12.1439 63.8495 11.9069 63.6506 11.7053C63.4508 11.5036 63.2142 11.3422 62.9537 11.2299C62.6815 11.1139 62.3888 11.0542 62.0929 11.0542C61.7972 11.0542 61.5044 11.1139 61.2323 11.2299C60.9727 11.3416 60.737 11.5018 60.5375 11.702C60.3397 11.9036 60.1816 12.1407 60.0714 12.4009C59.9574 12.6707 59.8998 12.961 59.9022 13.2538H59.9Z" fill="white"/>
<path d="M67.6013 9.74454H67.8959V7.38927C67.8947 7.30341 67.911 7.2182 67.9439 7.1389C67.9768 7.05959 68.0255 6.98787 68.0872 6.92813C68.2106 6.80647 68.3767 6.73828 68.55 6.73828C68.7231 6.73828 68.8894 6.80647 69.0127 6.92813C69.0743 6.98787 69.123 7.05959 69.156 7.1389C69.1888 7.2182 69.2052 7.30341 69.204 7.38927V9.74454H69.9855C70.0708 9.74277 70.1555 9.75879 70.2342 9.79157C70.3129 9.82435 70.384 9.87318 70.4428 9.93494C70.5037 9.99508 70.5517 10.067 70.584 10.1462C70.6163 10.2255 70.6323 10.3105 70.6308 10.3961C70.6325 10.4826 70.6169 10.5685 70.5845 10.6487C70.5522 10.7289 70.5041 10.8017 70.4428 10.8627C70.384 10.9245 70.3129 10.9733 70.2342 11.0061C70.1555 11.0389 70.0708 11.0549 69.9855 11.0531H69.204V14.2053C69.204 15.0365 69.621 15.4522 70.455 15.4522C70.5402 15.4507 70.6247 15.4668 70.7034 15.4996C70.7821 15.5324 70.8532 15.5811 70.9122 15.6426C71.034 15.7662 71.1024 15.9328 71.1024 16.1065C71.1024 16.2801 71.034 16.4468 70.9122 16.5704C70.8534 16.6323 70.7824 16.6813 70.7037 16.7143C70.6249 16.7472 70.5403 16.7635 70.455 16.7619C68.7489 16.7619 67.8959 15.9097 67.8959 14.2053V11.0542H67.6013C67.5168 11.0553 67.433 11.039 67.3551 11.0062C67.2771 10.9735 67.2068 10.925 67.1484 10.8638C67.0863 10.8033 67.0373 10.7306 67.0044 10.6504C66.9715 10.5701 66.9554 10.4839 66.9572 10.3972C66.9558 10.3113 66.972 10.2261 67.005 10.1467C67.0378 10.0674 67.0867 9.99571 67.1484 9.93604C67.2067 9.87468 67.277 9.82601 67.3549 9.79306C67.4329 9.76011 67.5167 9.74359 67.6013 9.74454Z" fill="white"/>
<path d="M79.0192 13.2539C79.0282 13.716 78.9416 14.1749 78.7649 14.6018C78.5882 15.0287 78.3252 15.4144 77.9925 15.7347C77.3353 16.3928 76.4438 16.7624 75.5143 16.7624C74.5848 16.7624 73.6933 16.3928 73.036 15.7347C72.3788 15.0766 72.0095 14.1841 72.0095 13.2534C72.0095 12.3228 72.3788 11.4302 73.036 10.7721C73.6935 10.1145 74.5849 9.74512 75.5143 9.74512C76.4437 9.74512 77.335 10.1145 77.9925 10.7721C78.3227 11.0946 78.5844 11.4806 78.762 11.9069C78.9332 12.3352 79.0205 12.7926 79.0192 13.2539ZM75.5149 11.0528C75.2177 11.0502 74.9233 11.1102 74.6508 11.2289C74.3913 11.3406 74.1555 11.5008 73.9561 11.701C73.7582 11.9026 73.6002 12.1397 73.49 12.3999C73.3768 12.6698 73.3185 12.9596 73.3185 13.2523C73.3185 13.5451 73.3768 13.8348 73.49 14.1047C73.6002 14.365 73.7582 14.602 73.9561 14.8036C74.1555 15.0038 74.3913 15.1641 74.6508 15.2757C74.923 15.3917 75.2157 15.4515 75.5115 15.4515C75.8073 15.4515 76.1001 15.3917 76.3722 15.2757C76.6328 15.1635 76.8694 15.002 77.0692 14.8003C77.2681 14.599 77.4274 14.3619 77.5385 14.1014C77.6524 13.8329 77.7111 13.5441 77.7111 13.2523C77.7111 12.9606 77.6524 12.6718 77.5385 12.4032C77.4274 12.1428 77.2681 11.9057 77.0692 11.7043C76.8694 11.5026 76.6328 11.3412 76.3722 11.2289C76.1018 11.111 75.8097 11.0514 75.5149 11.0539V11.0528Z" fill="white"/>
<path d="M88.1068 14.5064C88.1949 14.5057 88.2822 14.5238 88.363 14.5592C88.4407 14.5939 88.5117 14.642 88.5729 14.7012C88.634 14.761 88.6829 14.8319 88.7169 14.9103C88.7523 14.9927 88.7703 15.0815 88.7696 15.1711C88.7691 15.2603 88.7504 15.3484 88.7149 15.4301C88.6794 15.5117 88.6277 15.5854 88.563 15.6466C87.6763 16.3752 86.5629 16.7699 85.4159 16.7626C84.7582 16.7633 84.1068 16.6342 83.4991 16.3825C82.8913 16.1308 82.3391 15.7615 81.8741 15.2958C81.4091 14.8301 81.0404 14.2772 80.7892 13.6686C80.538 13.0601 80.409 12.4079 80.4099 11.7494C80.4111 10.4205 80.9389 9.14632 81.8774 8.20662C82.8159 7.26693 84.0886 6.73849 85.4159 6.73733C86.5908 6.73364 87.7286 7.14875 88.6257 7.90835C88.6853 7.96812 88.7318 8.03974 88.7621 8.11861C88.7924 8.19747 88.8058 8.28182 88.8016 8.3662C88.8023 8.45637 88.7852 8.5458 88.751 8.62925C88.7184 8.70789 88.6705 8.77932 88.6103 8.83946C88.5496 8.90056 88.477 8.94851 88.397 8.98033C88.2774 9.03033 88.1458 9.04394 88.0185 9.01947C87.8913 8.99501 87.774 8.93354 87.6814 8.84276C87.3665 8.59317 87.012 8.39822 86.6328 8.26605C86.2413 8.13102 85.8299 8.0633 85.4159 8.06574C84.9325 8.06517 84.4537 8.16004 84.0071 8.34494C83.5603 8.52985 83.1545 8.80114 82.8127 9.14331C82.4708 9.48547 82.1997 9.89177 82.0149 10.339C81.83 10.7862 81.7352 11.2655 81.7356 11.7494C81.7357 12.4439 81.9319 13.1242 82.3013 13.7119C82.6707 14.2997 83.1984 14.771 83.8238 15.0716C84.449 15.3722 85.1464 15.4897 85.8356 15.4107C86.5247 15.3318 87.1775 15.0595 87.7188 14.6253C87.8337 14.5483 87.9686 14.5069 88.1068 14.5064Z" fill="white"/>
<path d="M90.0053 16.11V7.39549C90.0034 7.30914 90.0187 7.22328 90.0504 7.14295C90.0821 7.06263 90.1296 6.98946 90.19 6.92774C90.3145 6.80567 90.4817 6.7373 90.656 6.7373C90.8303 6.7373 90.9976 6.80567 91.1221 6.92774C91.1825 6.98946 91.2298 7.06263 91.2616 7.14295C91.2933 7.22328 91.3086 7.30914 91.3068 7.39549V15.4529H91.6057C91.7646 15.4735 91.9105 15.5514 92.0163 15.6719C92.122 15.7924 92.1803 15.9473 92.1803 16.1078C92.1803 16.2681 92.122 16.4231 92.0163 16.5436C91.9105 16.6641 91.7646 16.7419 91.6057 16.7626H90.6494C90.5643 16.7641 90.4798 16.7477 90.4012 16.7148C90.3227 16.6819 90.2519 16.6329 90.1932 16.5711C90.1323 16.511 90.0843 16.4391 90.052 16.3599C90.0197 16.2806 90.0038 16.1955 90.0053 16.11Z" fill="white"/>
<path d="M100.464 13.2539C100.473 13.7159 100.387 14.1747 100.21 14.6016C100.034 15.0284 99.771 15.4142 99.4388 15.7347C99.113 16.0606 98.7274 16.3191 98.3018 16.4954C97.8762 16.6717 97.4206 16.7624 96.9605 16.7624C96.5004 16.7624 96.0449 16.6717 95.6192 16.4954C95.1945 16.3191 94.808 16.0606 94.4824 15.7347C94.1569 15.4088 93.8988 15.022 93.7226 14.5963C93.5465 14.1706 93.4558 13.7142 93.4558 13.2534C93.4558 12.7926 93.5465 12.3363 93.7226 11.9106C93.8988 11.4848 94.1569 11.098 94.4824 10.7721C95.1401 10.1145 96.0312 9.74512 96.9605 9.74512C97.8898 9.74512 98.7809 10.1145 99.4388 10.7721C99.7692 11.0946 100.031 11.4806 100.208 11.9069C100.38 12.3352 100.467 12.7926 100.464 13.2539ZM96.9605 11.0528C96.6629 11.0503 96.3697 11.1103 96.0975 11.2289C95.8379 11.3403 95.602 11.5006 95.4024 11.701C95.2045 11.9026 95.0466 12.1397 94.9359 12.3999C94.8225 12.6696 94.7635 12.9595 94.7635 13.2523C94.7635 13.5452 94.8225 13.835 94.9359 14.1047C95.0466 14.365 95.2045 14.602 95.4024 14.8036C95.602 15.004 95.8379 15.1644 96.0975 15.2757C96.3688 15.392 96.6619 15.4519 96.9569 15.4519C97.2527 15.4519 97.5458 15.392 97.8172 15.2757C98.0785 15.1635 98.3154 15.002 98.5159 14.8003C98.7138 14.5987 98.8735 14.3617 98.9851 14.1014C99.0985 13.8329 99.1575 13.5441 99.1575 13.2523C99.1575 12.9606 99.0985 12.6718 98.9851 12.4032C98.8735 12.143 98.7138 11.906 98.5159 11.7043C98.3154 11.5026 98.0785 11.3412 97.8172 11.2289C97.5467 11.111 97.2545 11.0514 96.9605 11.0539V11.0528Z" fill="white"/>
<path d="M107.721 16.7633C107.634 16.7662 107.549 16.7509 107.469 16.7185C107.389 16.686 107.318 16.6372 107.258 16.5751C107.138 16.4527 107.071 16.2885 107.07 16.1173C106.798 16.3347 106.488 16.5014 106.156 16.6093C105.818 16.7144 105.466 16.7664 105.111 16.7633C104.676 16.7657 104.246 16.6769 103.847 16.5025C103.064 16.1664 102.44 15.5418 102.104 14.7581C101.931 14.359 101.842 13.9279 101.844 13.4924V10.3975C101.865 10.2385 101.943 10.0924 102.062 9.98651C102.183 9.88064 102.338 9.82227 102.498 9.82227C102.659 9.82227 102.813 9.88064 102.934 9.98651C103.053 10.0924 103.131 10.2385 103.152 10.3975V13.4924C103.151 13.7549 103.203 14.0149 103.306 14.2562C103.504 14.7271 103.878 15.1017 104.348 15.2996C104.589 15.4012 104.848 15.4537 105.108 15.4537C105.369 15.4537 105.628 15.4012 105.868 15.2996C106.102 15.2 106.314 15.0565 106.494 14.877C106.672 14.6976 106.816 14.4864 106.918 14.2541C107.019 14.0133 107.072 13.754 107.07 13.4924V10.3975C107.091 10.2385 107.168 10.0924 107.289 9.98651C107.409 9.88064 107.564 9.82227 107.724 9.82227C107.884 9.82227 108.039 9.88064 108.159 9.98651C108.28 10.0924 108.358 10.2385 108.378 10.3975V16.1107C108.379 16.1966 108.363 16.2818 108.33 16.3611C108.297 16.4405 108.249 16.5122 108.187 16.5719C108.126 16.634 108.054 16.6831 107.974 16.7161C107.893 16.749 107.808 16.7651 107.721 16.7633Z" fill="white"/>
<path d="M113.249 9.74448C114.049 9.73334 114.828 10.0063 115.447 10.5149V7.38922C115.444 7.30286 115.46 7.21684 115.49 7.13647C115.522 7.0561 115.57 6.98311 115.631 6.92202C115.693 6.86092 115.765 6.81304 115.845 6.78132C115.926 6.74961 116.011 6.73475 116.098 6.73766C116.184 6.73579 116.27 6.75118 116.35 6.78294C116.43 6.8147 116.502 6.86217 116.564 6.92256C116.627 6.98283 116.676 7.05546 116.708 7.13581C116.741 7.21616 116.756 7.30247 116.755 7.38922V13.2542C116.763 13.7162 116.677 14.175 116.5 14.6019C116.324 15.0287 116.061 15.4145 115.728 15.735C115.403 16.0608 115.017 16.3194 114.592 16.4957C114.166 16.672 113.711 16.7628 113.251 16.7628C112.79 16.7628 112.334 16.672 111.91 16.4957C111.484 16.3194 111.097 16.0608 110.772 15.735C110.447 15.4092 110.189 15.0223 110.012 14.5966C109.836 14.1708 109.746 13.7145 109.746 13.2537C109.746 12.7929 109.836 12.3366 110.012 11.9109C110.189 11.4851 110.447 11.0983 110.772 10.7724C111.093 10.4409 111.478 10.1786 111.904 10.0018C112.33 9.82504 112.788 9.73745 113.249 9.74448ZM115.447 13.2532C115.449 12.9611 115.39 12.6718 115.274 12.4035C115.163 12.1433 115.004 11.9062 114.805 11.7046C114.605 11.5029 114.368 11.3415 114.107 11.2292C113.835 11.113 113.543 11.053 113.247 11.053C112.951 11.053 112.659 11.113 112.387 11.2292C111.862 11.4533 111.446 11.8734 111.226 12.4002C111.112 12.6699 111.054 12.9598 111.054 13.2526C111.054 13.5455 111.112 13.8353 111.226 14.105C111.445 14.6312 111.859 15.0516 112.381 15.2771C112.654 15.3934 112.946 15.4533 113.242 15.4533C113.538 15.4533 113.83 15.3934 114.102 15.2771C114.362 15.1665 114.599 15.007 114.8 14.8072C114.999 14.6056 115.157 14.3685 115.269 14.1084C115.387 13.839 115.447 13.5482 115.446 13.2542L115.447 13.2532Z" fill="white"/>
<path d="M21.0011 11.5664C21.0011 14.2168 18.8525 16.3654 16.2021 16.3654C14.4725 16.3654 12.9565 15.4503 12.112 14.0779C11.8893 15.0623 11.0346 15.8112 9.99038 15.8878C11.3575 17.8494 13.63 19.1329 16.2021 19.1329C20.381 19.1329 23.7686 15.7453 23.7686 11.5664C23.7686 7.38761 20.381 4 16.2021 4C12.0276 4 8.64259 7.38075 8.63574 11.5537C8.98217 11.3558 9.38439 11.2426 9.81339 11.2426C10.4305 11.2426 10.9921 11.4769 11.4121 11.8604C11.4062 11.7632 11.4032 11.6652 11.4032 11.5664C11.4032 8.91606 13.5518 6.76749 16.2021 6.76749C18.8525 6.76749 21.0011 8.91606 21.0011 11.5664Z" fill="url(#paint0_linear_2157_814)"/>
<path fill-rule="evenodd" clip-rule="evenodd" d="M25.7708 19.4267C28.5051 19.4109 30.7169 17.1893 30.7169 14.4512C30.7169 11.7032 28.4892 9.47559 25.7413 9.47559C23.4735 9.47559 21.3251 11.3893 20.7657 13.038C20.2063 14.6867 19.0704 15.6014 17.851 16.0704C17.8533 16.0772 17.8556 16.084 17.858 16.0907C16.6189 16.4762 15.9041 16.4451 14.6468 16.0704H9.81348V19.4268H25.7386C25.7395 19.4268 25.7404 19.4268 25.7413 19.4268C25.7422 19.4268 25.7431 19.4268 25.7439 19.4268H25.7708V19.4267ZM28.0083 14.4512C28.0083 15.7032 26.9933 16.7182 25.7413 16.7182C24.4892 16.7182 23.4743 15.7032 23.4743 14.4512C23.4743 13.1992 24.4892 12.1842 25.7413 12.1842C26.9933 12.1842 28.0083 13.1992 28.0083 14.4512Z" fill="url(#paint1_linear_2157_814)"/>
<path d="M9.83444 7.74414C8.68049 7.74414 7.55246 8.08674 6.593 8.72862C5.63353 9.3705 4.88572 10.2828 4.44412 11.3502C4.00253 12.4177 3.88699 13.5922 4.11211 14.7254C4.33723 15.8585 4.89291 16.8994 5.70887 17.7164C6.52483 18.5333 7.56443 19.0897 8.6962 19.3151C9.82797 19.5405 11.0011 19.4248 12.0672 18.9827C13.1333 18.5405 14.0445 17.7918 14.6856 16.8311C15.3267 15.8705 15.6689 14.7411 15.6689 13.5857C15.6689 12.8186 15.5179 12.059 15.2247 11.3502C14.9315 10.6415 14.5017 9.99754 13.96 9.4551C13.4182 8.91266 12.7751 8.48237 12.0672 8.18881C11.3593 7.89524 10.6006 7.74414 9.83444 7.74414ZM9.83444 15.8474C9.38767 15.8474 8.95094 15.7147 8.57947 15.4662C8.208 15.2177 7.91847 14.8645 7.7475 14.4512C7.57653 14.038 7.5318 13.5832 7.61896 13.1445C7.70612 12.7058 7.92126 12.3028 8.23717 11.9865C8.55308 11.6702 8.95557 11.4548 9.39375 11.3675C9.83193 11.2803 10.2861 11.325 10.6989 11.4962C11.1116 11.6674 11.4644 11.9573 11.7126 12.3292C11.9608 12.7011 12.0933 13.1384 12.0933 13.5857C12.0937 13.883 12.0355 14.1774 11.9222 14.4521C11.8088 14.7269 11.6425 14.9765 11.4327 15.1868C11.2229 15.3971 10.9738 15.5639 10.6995 15.6778C10.4253 15.7916 10.1313 15.8502 9.83444 15.8502V15.8474Z" fill="#6763F7"/>
<path d="M25.6308 6.46965C26.2942 6.46965 26.832 5.93122 26.832 5.26705C26.832 4.60287 26.2942 4.06445 25.6308 4.06445C24.9675 4.06445 24.4297 4.60287 24.4297 5.26705C24.4297 5.93122 24.9675 6.46965 25.6308 6.46965Z" fill="#FFAD4D"/>
</g>
</g>
<defs>
<linearGradient id="paint0_linear_2157_814" x1="13.7586" y1="1.85077" x2="23.1504" y2="11.5959" gradientUnits="userSpaceOnUse">
<stop stop-color="#6763F7"/>
<stop offset="1" stop-color="#4A40C6"/>
</linearGradient>
<linearGradient id="paint1_linear_2157_814" x1="20.1474" y1="13.0086" x2="20.1474" y2="19.4268" gradientUnits="userSpaceOnUse">
<stop stop-color="#6864F9"/>
<stop offset="1" stop-color="#493FC5"/>
</linearGradient>
<clipPath id="clip0_2157_814">
<rect width="112.8" height="16" fill="white" transform="translate(4 4)"/>
</clipPath>
</defs>
</svg>
