<svg width="120" height="24" viewBox="0 0 120 24" fill="none" xmlns="http://www.w3.org/2000/svg">
<g clip-path="url(#clip0_2157_779)">
<path d="M57.6158 13.7071H48.8818C49.0055 14.4694 49.3519 15.0841 49.8962 15.5268C50.4405 15.9694 51.1333 16.2153 51.9993 16.2153C53.0137 16.2153 53.8797 15.871 54.622 15.1579L56.8982 16.2153C56.3292 17.0268 55.6364 17.6169 54.8446 18.0104C54.0529 18.4038 53.1127 18.6005 51.9993 18.6005C50.2921 18.6005 48.9313 18.0596 47.8426 17.0022C46.7787 15.9448 46.2344 14.6169 46.2344 12.994C46.2344 11.3464 46.7787 9.99398 47.8426 8.91201C48.9065 7.83005 50.2426 7.28906 51.8508 7.28906C53.5581 7.28906 54.9436 7.83005 56.0075 8.91201C57.0714 9.99398 57.6158 11.4202 57.6158 13.2153V13.7071ZM54.9189 11.5923C54.7457 11.0022 54.3745 10.5104 53.855 10.1415C53.3354 9.77267 52.7168 9.57595 52.024 9.57595C51.257 9.57595 50.6137 9.79726 50.0199 10.2153C49.6735 10.4858 49.3271 10.953 49.0302 11.6169H54.9189V11.5923Z" fill="white"/>
<path d="M59.8179 7.55955H62.5395V8.66611C63.1581 8.14972 63.7024 7.78087 64.222 7.58414C64.7168 7.38742 65.2364 7.28906 65.756 7.28906C66.8199 7.28906 67.7354 7.65791 68.4776 8.39562C69.0962 9.03496 69.4178 9.96939 69.4178 11.1989V18.3055H66.7457V13.6087C66.7457 12.33 66.6962 11.4694 66.5725 11.0514C66.4488 10.6333 66.2508 10.3137 65.9787 10.0923C65.6818 9.87103 65.3354 9.77267 64.9148 9.77267C64.3704 9.77267 63.9003 9.9448 63.5045 10.3137C63.1086 10.6825 62.8364 11.1743 62.688 11.8382C62.6137 12.1825 62.5643 12.8956 62.5643 14.0268V18.33H59.8426V7.55955H59.8179Z" fill="white"/>
<path d="M77.1373 7.28906C78.1517 7.28906 79.1167 7.53496 80.0074 8.05136C80.8981 8.56775 81.6156 9.25628 82.1105 10.1169C82.6053 10.9776 82.8775 11.9366 82.8775 12.9448C82.8775 13.953 82.6301 14.912 82.1105 15.7973C81.6156 16.6825 80.9229 17.371 80.0321 17.8628C79.1414 18.3546 78.2012 18.6005 77.1373 18.6005C75.5786 18.6005 74.2672 18.0596 73.1538 16.953C72.0652 15.8464 71.4961 14.5186 71.4961 12.9448C71.4961 11.2727 72.1146 9.87103 73.3518 8.73988C74.4652 7.75628 75.727 7.28906 77.1373 7.28906ZM77.1621 9.82185C76.3208 9.82185 75.628 10.1169 75.059 10.7071C74.4899 11.2973 74.2177 12.035 74.2177 12.9448C74.2177 13.8792 74.4899 14.6415 75.059 15.2071C75.6033 15.7973 76.3208 16.0678 77.1621 16.0678C78.0033 16.0678 78.7208 15.7727 79.2899 15.1825C79.8589 14.5923 80.1311 13.83 80.1311 12.9202C80.1311 11.9858 79.8589 11.2481 79.2899 10.6825C78.7455 10.1169 78.028 9.82185 77.1621 9.82185Z" fill="white"/>
<path d="M85.4014 3.60156H88.1231V7.56058H89.7313V9.87206H88.1231V18.3065H85.4014V9.87206H84.0159V7.56058H85.4014V3.60156Z" fill="white"/>
<path d="M92.6757 15.5C93.0963 15.5 93.4674 15.6475 93.7891 15.9426C94.086 16.2377 94.2345 16.6066 94.2345 17.0246C94.2345 17.4426 94.086 17.8115 93.7891 18.1311C93.4922 18.4508 93.1211 18.5738 92.6757 18.5738C92.2551 18.5738 91.8839 18.4262 91.5623 18.1311C91.2654 17.8361 91.1169 17.4672 91.1169 17.0246C91.1169 16.582 91.2654 16.2377 91.5623 15.9426C91.8839 15.6475 92.2303 15.5 92.6757 15.5Z" fill="#FBCD02"/>
<path d="M32.2736 22.0078V15.5775H26.2344L34.3199 2.00781V8.46258H40.2344L32.2736 22.0078Z" fill="#FBCD02"/>
</g>
<defs>
<clipPath id="clip0_2157_779">
<rect width="68" height="20" fill="white" transform="translate(26 2)"/>
</clipPath>
</defs>
</svg>
