<svg width="58" height="16" viewBox="0 0 58 16" fill="none" xmlns="http://www.w3.org/2000/svg">
<g clip-path="url(#clip0_595_681)">
<path d="M7.86135 0H0C0 0 0 0.313495 0 0.329005C0.0120075 0.768351 0.19511 1.18564 0.510293 1.49196C0.825475 1.79827 1.24782 1.96939 1.68733 1.96886H7.86135V0ZM1.99048 2.94554C1.99048 2.94554 1.99048 3.25903 1.99048 3.27454C2.0026 3.71348 2.1855 4.13037 2.50026 4.43654C2.81503 4.7427 3.23682 4.91397 3.67593 4.91393H7.86699V2.94554H1.99048ZM3.93819 5.89437C3.93819 5.89437 3.93819 6.20833 3.93819 6.22337C3.95031 6.66231 4.13321 7.0792 4.44797 7.38536C4.76274 7.69153 5.18454 7.8628 5.62364 7.86276H7.86746V5.89343H3.93772L3.93819 5.89437Z" fill="#FF0054"/>
<path d="M25.5439 4.38392C25.2713 3.97755 24.8994 3.64763 24.4634 3.42552C24.0274 3.20341 23.5418 3.09648 23.0529 3.1149C20.7719 3.09892 18.9807 4.50942 18.9807 7.20397C18.9807 9.94552 20.6925 11.3706 23.0054 11.3546C23.8773 11.3386 25.0965 10.8954 25.5434 9.9756L25.6374 11.1168H27.4629V3.30667H25.6078L25.5439 4.38392ZM23.2329 9.58033C22.9207 9.59144 22.6096 9.53706 22.3197 9.42069C22.0298 9.30431 21.7674 9.12852 21.5495 8.90462C21.3317 8.68073 21.1631 8.4137 21.0547 8.12071C20.9462 7.82773 20.9003 7.51529 20.92 7.2035C20.9009 6.89267 20.9473 6.5813 21.0561 6.28953C21.165 5.99777 21.3339 5.73211 21.5519 5.50974C21.7699 5.28738 22.0322 5.11327 22.3218 4.99868C22.6113 4.88409 22.9217 4.83158 23.2329 4.84453C26.2715 4.84312 26.2715 9.58033 23.2329 9.58033ZM33.338 6.72879L32.5296 8.88378L31.787 6.68132L30.5974 3.30667H28.347L31.4698 10.9903L30.0127 14.3824H32.1358L36.9035 3.30667H34.7645L33.338 6.72879ZM43.7778 2.51423L43.0033 3.49655C42.4653 3.17109 41.8412 3.01655 41.2135 3.05333C38.8244 3.05333 36.9265 4.86991 37.2988 7.71628C37.4426 8.63802 37.9187 9.47529 38.6373 10.0701C39.356 10.665 40.2675 10.9762 41.1999 10.9452C42.1709 10.941 43.1936 11.4307 43.1936 12.5132C43.1936 13.5956 42.3218 14.1935 41.2125 14.1935C40.1033 14.1935 39.1661 13.5284 39.1661 12.5132H37.2485C37.2485 14.6202 38.9443 15.9992 41.2097 15.9992C43.4752 15.9992 45.1225 14.6686 45.1225 12.5132C45.1548 11.9682 45.0165 11.4268 44.7269 10.964C44.4373 10.5013 44.0108 10.1402 43.5067 9.93095C44.7898 9.34438 45.1545 7.98183 45.1545 7.01691C45.185 6.16906 44.8902 5.34163 44.3306 4.704L45.2024 3.59431L43.7778 2.51329V2.51423ZM41.2135 9.18505C40.9328 9.18989 40.6542 9.13603 40.3956 9.02693C40.137 8.91783 39.904 8.7559 39.7116 8.5515C39.5192 8.34711 39.3716 8.10477 39.2783 7.84002C39.185 7.57527 39.1481 7.29394 39.1699 7.01409C39.1481 6.73351 39.1846 6.45146 39.2771 6.18565C39.3695 5.91984 39.5159 5.67601 39.707 5.46947C39.8982 5.26292 40.13 5.09812 40.3878 4.98542C40.6457 4.87271 40.9241 4.81453 41.2055 4.81453C41.4869 4.81453 41.7653 4.87271 42.0232 4.98542C42.281 5.09812 42.5128 5.26292 42.704 5.46947C42.8951 5.67601 43.0415 5.91984 43.1339 6.18565C43.2264 6.45146 43.2629 6.73351 43.2411 7.01409C43.2618 7.29238 43.2247 7.57195 43.132 7.83518C43.0393 8.09841 42.8931 8.3396 42.7027 8.54354C42.5122 8.74749 42.2815 8.90978 42.0252 9.02019C41.7689 9.1306 41.4925 9.18673 41.2135 9.18505ZM50.0703 3.14874C49.5319 3.13006 48.9954 3.22287 48.4945 3.42133C47.9936 3.61979 47.5391 3.91963 47.1596 4.30203C46.7801 4.68443 46.4836 5.14115 46.289 5.64351C46.0943 6.14588 46.0055 6.68307 46.0282 7.22136C46.0282 9.47223 47.5492 11.294 50.0849 11.294C50.6262 11.3184 51.1666 11.2297 51.6718 11.0337C52.1769 10.8376 52.6357 10.5385 53.0189 10.1553C53.402 9.77218 53.7011 9.31341 53.8972 8.80826C54.0932 8.30311 54.1819 7.76267 54.1575 7.22136C54.1749 6.68059 54.081 6.14201 53.8816 5.63905C53.6821 5.13609 53.3815 4.6795 52.9982 4.2976C52.6149 3.9157 52.1573 3.61666 51.6536 3.41903C51.1499 3.22139 50.611 3.1294 50.0703 3.14874ZM50.0863 9.51829C48.6763 9.51829 47.9633 8.4086 47.9633 7.22136C47.9633 6.04634 48.6918 4.90845 50.0863 4.90845C50.3781 4.91911 50.665 4.98762 50.9302 5.10998C51.1953 5.23235 51.4336 5.40616 51.6311 5.62131C51.8286 5.83647 51.9814 6.08869 52.0806 6.36335C52.1799 6.63802 52.2236 6.92966 52.2093 7.22136C52.2093 8.4086 51.4968 9.51829 50.0863 9.51829ZM55.4871 0.0419922H57.4048V11.1187H55.4871V0.0419922Z" fill="#09097D"/>
<path d="M14.4044 0.0126953C12.6626 0.0126953 10.9184 0.0286756 9.17651 0.0286756V11.3446H9.47591C9.4925 11.3456 9.50914 11.3456 9.52573 11.3446C9.99164 11.3316 10.4341 11.1373 10.7589 10.803C11.0837 10.4687 11.2652 10.0209 11.2648 9.55479V7.85477H14.4021C19.8391 7.85477 19.8231 0.0126953 14.4021 0.0126953H14.4044ZM14.4044 5.93761H11.2676V2.00835H14.4044C17.0665 2.00835 17.0825 5.93761 14.4044 5.93761Z" fill="#09097D"/>
</g>
<defs>
<clipPath id="clip0_595_681">
<rect width="57.4049" height="16" fill="white"/>
</clipPath>
</defs>
</svg>
