<svg width="120" height="24" viewBox="0 0 120 24" fill="none" xmlns="http://www.w3.org/2000/svg">
<g clip-path="url(#clip0_2157_835)">
<path d="M47.7107 6.59961C47.571 6.59961 47.4523 6.70105 47.4304 6.83918L45.813 17.0967C45.8071 17.1341 45.8094 17.1724 45.8198 17.2089C45.8301 17.2454 45.8482 17.2792 45.8729 17.3081C45.8975 17.3369 45.9281 17.36 45.9626 17.3759C45.997 17.3918 46.0345 17.4 46.0724 17.4H47.9906C48.1301 17.4 48.249 17.2984 48.2709 17.1604L48.746 14.1482C48.7676 14.0103 48.8865 13.9087 49.0263 13.9087H50.7702C52.8079 13.9087 54.5376 12.4219 54.8536 10.4073C55.1721 8.37565 53.5849 6.60402 51.3354 6.59961H47.7107ZM49.5754 8.88948H50.9707C52.1194 8.88948 52.4935 9.56729 52.3753 10.3169C52.257 11.0681 51.676 11.6214 50.5647 11.6214H49.1445L49.5754 8.88948ZM58.7549 9.58674C58.2705 9.58855 57.7132 9.68778 57.0875 9.9484C55.6523 10.5466 54.963 11.783 54.6703 12.6843C54.6703 12.6843 53.7387 15.4343 55.8435 16.9451C55.8435 16.9451 57.7956 18.3996 59.993 16.8555L59.9552 17.0967C59.9493 17.1341 59.9516 17.1724 59.9619 17.2088C59.9722 17.2453 59.9903 17.2791 60.0149 17.3079C60.0395 17.3367 60.07 17.3599 60.1044 17.3758C60.1388 17.3917 60.1763 17.3999 60.2142 17.4H62.0351C62.1749 17.4 62.2935 17.2984 62.3154 17.1604L63.423 10.1361C63.429 10.0986 63.4267 10.0603 63.4164 10.0238C63.4062 9.98725 63.3881 9.9534 63.3635 9.92454C63.3389 9.89568 63.3083 9.87249 63.2739 9.85657C63.2394 9.84065 63.202 9.83238 63.164 9.83233H61.3431C61.2033 9.83233 61.0845 9.93397 61.0628 10.0719L61.0033 10.45C61.0033 10.45 60.2082 9.58133 58.7549 9.58674ZM58.8144 11.8054C59.0235 11.8054 59.2148 11.8343 59.3864 11.8894C60.1721 12.1416 60.6175 12.8964 60.4886 13.7146C60.3296 14.722 59.5035 15.4638 58.4439 15.4638C58.2351 15.4638 58.0438 15.4351 57.872 15.38C57.0865 15.1278 56.6382 14.373 56.7671 13.5548C56.9261 12.5474 57.7549 11.8054 58.8144 11.8054Z" fill="white"/>
<path d="M73.9331 6.59961C73.7934 6.59961 73.6747 6.70105 73.6529 6.83918L72.0354 17.0967C72.0295 17.1341 72.0318 17.1724 72.0422 17.2089C72.0525 17.2454 72.0706 17.2792 72.0953 17.3081C72.1199 17.3369 72.1505 17.36 72.185 17.3759C72.2194 17.3918 72.2569 17.4 72.2948 17.4H74.213C74.3525 17.4 74.4714 17.2984 74.4933 17.1604L74.9684 14.1482C74.9901 14.0103 75.1089 13.9087 75.2487 13.9087H76.9926C79.0303 13.9087 80.7598 12.4219 81.0756 10.4073C81.3943 8.37565 79.8074 6.60402 77.5578 6.59961H73.9331ZM75.7978 8.88948H77.1931C78.3419 8.88948 78.716 9.56729 78.5977 10.3169C78.4794 11.0681 77.8986 11.6214 76.7871 11.6214H75.367L75.7978 8.88948ZM84.9771 9.58674C84.4927 9.58855 83.9354 9.68778 83.3097 9.9484C81.8745 10.5466 81.1852 11.783 80.8925 12.6843C80.8925 12.6843 79.9613 15.4343 82.0661 16.9451C82.0661 16.9451 84.0178 18.3996 86.2155 16.8555L86.1776 17.0967C86.1717 17.1341 86.174 17.1724 86.1843 17.2089C86.1947 17.2454 86.2128 17.2792 86.2374 17.3081C86.2621 17.3369 86.2927 17.36 86.3271 17.3759C86.3616 17.3918 86.3991 17.4 86.437 17.4H88.2577C88.3975 17.4 88.5162 17.2984 88.538 17.1604L89.646 10.1361C89.652 10.0986 89.6497 10.0602 89.6394 10.0237C89.6291 9.98713 89.611 9.95326 89.5864 9.92439C89.5617 9.89552 89.5311 9.87234 89.4966 9.85644C89.4621 9.84055 89.4246 9.83232 89.3866 9.83233H87.5657C87.4259 9.83233 87.3071 9.93397 87.2854 10.0719L87.2259 10.45C87.2259 10.45 86.4304 9.58133 84.9771 9.58674ZM85.0366 11.8054C85.2457 11.8054 85.437 11.8343 85.6086 11.8894C86.3943 12.1416 86.8397 12.8964 86.7108 13.7146C86.5519 14.722 85.7257 15.4638 84.6662 15.4638C84.4573 15.4638 84.266 15.4351 84.0942 15.38C83.3087 15.1278 82.8605 14.373 82.9894 13.5548C83.1483 12.5474 83.9771 11.8054 85.0366 11.8054Z" fill="#0070E0"/>
<path d="M64.2869 9.83223C64.1426 9.83223 64.04 9.97317 64.0841 10.1105L66.0804 16.3055L64.2753 19.2249C64.1877 19.3666 64.2896 19.5496 64.4562 19.5496H66.5896C66.6507 19.5496 66.7106 19.5338 66.7638 19.5038C66.8169 19.4738 66.8614 19.4306 66.893 19.3784L72.4685 10.155C72.5541 10.0133 72.4518 9.83203 72.2862 9.83203H70.153C70.0914 9.83208 70.0308 9.84817 69.9773 9.87872C69.9238 9.90927 69.8792 9.95322 69.8478 10.0062L67.6532 13.7115L66.5391 10.0337C66.5028 9.91403 66.3924 9.83203 66.2675 9.83203L64.2869 9.83223Z" fill="white"/>
<path d="M91.7151 6.59961C91.5756 6.59961 91.4567 6.70125 91.4348 6.83918L89.817 17.0963C89.811 17.1338 89.8133 17.1721 89.8236 17.2087C89.8339 17.2452 89.852 17.2791 89.8767 17.3079C89.9013 17.3368 89.9319 17.36 89.9664 17.3759C90.0009 17.3918 90.0384 17.4 90.0764 17.4H91.9946C92.1341 17.4 92.253 17.2984 92.2748 17.1604L93.8923 6.90293C93.8982 6.8655 93.8959 6.82723 93.8856 6.79077C93.8752 6.75431 93.8572 6.72051 93.8325 6.69169C93.8079 6.66287 93.7774 6.63972 93.743 6.62383C93.7086 6.60793 93.6712 6.59967 93.6333 6.59961H91.7151Z" fill="#0070E0"/>
<path d="M31.7193 6.59961C31.5958 6.59971 31.4763 6.64388 31.3824 6.72417C31.2884 6.80446 31.2262 6.91561 31.2069 7.03765L30.3555 12.4377C30.3952 12.1855 30.6125 11.9997 30.8679 11.9997H33.3628C35.8738 11.9997 38.0045 10.1679 38.3939 7.6856C38.4228 7.50028 38.4392 7.3132 38.443 7.12567C37.8049 6.79107 37.0553 6.59961 36.2339 6.59961H31.7193Z" fill="#001C64"/>
<path d="M38.4429 7.12598C38.4392 7.31352 38.4227 7.50059 38.3938 7.68591C38.0044 10.1682 35.8736 12 33.3628 12H30.8678C30.6126 12 30.3951 12.1857 30.3554 12.4381L29.5725 17.4003L29.0821 20.5133C29.0726 20.5735 29.0762 20.635 29.0927 20.6936C29.1092 20.7522 29.1382 20.8066 29.1778 20.8529C29.2173 20.8992 29.2664 20.9364 29.3217 20.9619C29.377 20.9874 29.4372 21.0005 29.4981 21.0005H32.2062C32.3298 21.0004 32.4492 20.9562 32.5432 20.8759C32.6371 20.7957 32.6993 20.6845 32.7186 20.5625L33.4319 16.0383C33.4512 15.9161 33.5135 15.8049 33.6075 15.7246C33.7015 15.6443 33.8211 15.6002 33.9447 15.6002H35.5392C38.0502 15.6002 40.1808 13.7684 40.5702 11.2861C40.8466 9.5243 39.9593 7.92107 38.4429 7.12598Z" fill="#0070E0"/>
<path d="M28.6425 3C28.3873 3 28.1698 3.18564 28.1301 3.43764L26.005 16.913C25.9647 17.1688 26.1624 17.4002 26.4214 17.4002H29.5727L30.3552 12.4379L31.2066 7.03784C31.2259 6.9158 31.2881 6.80464 31.3821 6.72435C31.476 6.64406 31.5955 6.5999 31.719 6.59979H36.2336C37.0552 6.59979 37.8046 6.79145 38.4427 7.12585C38.4864 4.86586 36.6215 3 34.0576 3H28.6425Z" fill="#003087"/>
</g>
<defs>
<clipPath id="clip0_2157_835">
<rect width="67.8955" height="18" fill="white" transform="translate(26 3)"/>
</clipPath>
</defs>
</svg>
