<svg width="120" height="24" viewBox="0 0 120 24" fill="none" xmlns="http://www.w3.org/2000/svg">
<mask id="mask0_2157_741" style="mask-type:luminance" maskUnits="userSpaceOnUse" x="14" y="0" width="24" height="24">
<path d="M38 0H14V24H38V0Z" fill="white"/>
</mask>
<g mask="url(#mask0_2157_741)">
<path d="M38 12C38 5.37258 32.6274 0 26 0C19.3726 0 14 5.37258 14 12C14 18.6274 19.3726 24 26 24C32.6274 24 38 18.6274 38 12Z" fill="#1E7F94"/>
<path d="M22.4452 12.7356C22.4452 12.5501 22.4452 12.3647 22.4452 12.1793C22.4452 12.0786 22.454 11.9371 22.4007 11.8504C22.3427 11.7562 22.3751 11.5553 22.3833 11.4573C22.4021 11.234 22.4452 11.0173 22.4452 10.7922C22.4452 10.7767 22.4502 10.5397 22.3895 10.6475C22.2908 10.8231 22.2806 11.0782 22.2214 11.2706C22.1103 11.6319 22.0446 11.9539 22.0446 12.3301C22.0446 12.4801 22.0446 12.6301 22.0446 12.7801C22.0446 12.8182 22.0669 12.8383 22.0669 12.7888C22.0669 12.6338 22.0729 12.4781 22.0557 12.3239C22.0076 11.8898 22.0102 11.4119 22.1238 10.9888C22.182 10.7716 22.2387 10.5353 22.329 10.3323C22.3737 10.2317 22.3944 10.0842 22.4229 9.97633C22.4684 9.80407 22.501 9.50017 22.6356 9.36559C22.719 9.28213 22.9736 9.21973 23.0905 9.21973" stroke="#F0CAAB" stroke-linecap="round"/>
<path d="M23.135 8.55216C23.134 8.59416 23.0682 8.84874 23.0682 8.69058C23.0682 8.58786 23.0573 8.56806 23.1461 8.51874C23.2153 8.48034 23.3053 8.44902 23.3896 8.46438C23.5685 8.4969 23.3026 9.02946 23.3575 9.09858C23.3881 9.13704 23.4148 9.0186 23.4416 8.97738C23.4997 8.88816 23.5123 8.8755 23.5924 8.8068C23.7199 8.69748 23.844 8.59428 23.9608 8.47302C24.0517 8.37858 24.1496 8.3007 24.082 8.50272C24.0127 8.7093 23.8996 8.90196 23.8025 9.09606C23.7199 9.2613 23.7121 9.2157 23.7853 9.13068C23.8972 9.00054 24.0485 8.88024 24.1858 8.77962C24.1961 8.772 24.3382 8.65782 24.3935 8.69058C24.4719 8.73714 24.3874 8.97432 24.3749 9.0207C24.3217 9.21954 24.2714 9.42558 24.2006 9.61902C24.186 9.65898 24.2334 9.4884 24.2402 9.4719C24.284 9.3648 24.3362 9.2598 24.391 9.15792C24.3949 9.1506 24.5171 8.98416 24.5171 9.012C24.5171 9.03144 23.571 9.237 23.6925 9.39894C23.8412 9.59718 23.5649 9.6312 23.3896 9.66228C23.1613 9.70278 22.9428 9.68622 22.795 9.48924C22.7552 9.43614 22.7377 9.30642 22.7344 9.42C22.7249 9.75414 22.6386 10.0783 22.5898 10.409C22.5674 10.5605 22.5467 10.7126 22.523 10.8639C22.5059 10.9732 22.4688 10.9885 22.5218 10.8738C22.6597 10.5757 22.9111 10.2633 23.1572 10.043C23.2019 10.0031 23.196 10.1123 23.1968 10.1271C23.2093 10.3671 23.2018 10.6088 23.2018 10.8491C23.2018 10.9231 23.1755 11.0675 23.2166 10.9257C23.2555 10.7913 23.3112 10.653 23.3624 10.5252C23.4754 10.2436 23.5741 9.90408 23.7432 9.64866C23.7503 9.63792 23.776 9.62538 23.7803 9.63756C23.7944 9.67716 23.785 9.72162 23.784 9.76368C23.7804 9.91698 23.767 10.025 23.7432 10.1791C23.7143 10.366 23.6716 10.5506 23.6369 10.7366C23.6275 10.7871 23.5547 11.0129 23.5949 10.8293C23.6323 10.6583 23.6786 10.487 23.7383 10.3225C23.7756 10.2194 23.7771 10.2718 23.7432 10.315C23.5822 10.5202 23.3203 10.6347 23.1152 10.7885C23.0695 10.8228 22.9511 11.0294 22.8791 10.9974C22.8185 10.9705 22.8332 10.856 22.8123 10.8058C22.8052 10.7887 22.8011 10.8416 22.7999 10.8602C22.793 10.9682 22.4149 13.6936 22.4 13.8007C22.3355 14.2652 22.8842 14.3612 22.1 13.8007C23.4123 14.8158 22.7887 14.2265 22.8123 14.2659C22.8383 14.3091 22.7954 12.3547 22.8061 12.3202C22.9627 11.8184 23.2252 11.3364 23.3525 10.8268C23.3769 10.7295 23.3926 10.8362 23.3971 10.8812C23.4257 11.1682 23.4041 11.4771 23.3575 11.7602C23.3148 12.0194 23.2171 12.2966 23.2018 12.5576C23.1962 12.6517 23.1795 12.4722 23.1795 12.4451C23.1795 12.0757 23.3995 11.6596 23.5702 11.3461C23.666 11.17 23.7739 11.0033 23.9002 10.8478C23.9681 10.7642 23.9583 10.9568 23.9583 10.9826C23.9583 11.4539 23.908 11.9529 23.9695 12.4204C23.9722 12.4409 23.9806 12.6077 23.9806 12.5093C23.9806 12.2935 23.9962 12.0783 24.0077 11.8628C24.0485 11.0998 24.1387 10.3228 24.3242 9.58068C24.3274 9.5679 24.388 9.3402 24.4132 9.40512C24.4775 9.57048 24.4256 9.84234 24.4256 10.0159C24.4256 10.306 24.4242 10.5961 24.4256 10.8862C24.4265 11.0737 24.4155 11.2943 24.4602 11.4796C24.5315 11.7749 24.6205 12.6829 24.6036 12.3796C24.5993 12.301 24.499 12.3076 24.4751 12.246C24.4646 12.219 24.5109 12.1388 24.5195 12.115C24.6756 11.6873 24.7756 11.237 24.8682 10.7922C25.0114 10.1038 25.1155 9.39108 25.1155 8.68692C25.1155 8.60874 25.156 8.40018 25.0264 8.3964C24.8452 8.39106 24.817 8.49024 24.7569 8.6733C24.6644 8.9553 24.5889 9.2526 24.5418 9.54606C24.5371 9.57516 24.5368 9.61278 24.5715 9.5844C24.6777 9.49752 24.6992 9.3006 24.7582 9.18264C24.784 9.13098 24.9135 8.90142 24.9152 9.06888C24.9163 9.18732 24.8646 9.4389 24.9424 9.5436C25.001 9.62262 25.0994 9.4575 25.1303 9.42246C25.2366 9.30192 25.8098 8.84262 25.9709 8.8068C26.0122 8.79762 25.639 9.19488 25.7385 9.19746C25.9797 9.20364 26.2143 9.16296 26.4592 9.17892C26.6512 9.19146 26.8381 9.26424 27.0291 9.26424C27.11 9.26424 27.1924 9.25968 27.2726 9.27042C27.7777 9.33774 28.2842 9.44412 28.7722 9.58812C29.0907 9.68208 29.4049 9.78918 29.7217 9.88236C29.8285 9.91374 29.9563 10.043 30.0431 10.1147C30.1137 10.1732 30.2291 10.2394 30.2099 10.3447C30.1792 10.5137 30.1423 10.762 30.1939 10.9232C30.2009 10.945 30.1855 10.8698 30.1642 10.8614C29.8742 10.7464 29.5016 10.8381 29.195 10.8107C29.0212 10.7953 28.931 10.6184 28.787 10.5202C28.6303 10.4134 28.4946 10.2539 28.3495 10.1333C27.9491 9.8007 27.4944 9.44412 26.9624 9.37548C26.6318 9.33282 26.3011 9.31302 25.9709 9.26424C25.7487 9.23136 25.4707 9.14964 25.2428 9.17646C25.2032 9.18108 25.147 9.2217 25.129 9.25554C25.0894 9.33042 25.1002 9.4728 25.0907 9.55104C25.0612 9.7938 25.0151 10.034 24.977 10.2755C24.924 10.6109 24.8686 10.9497 24.7149 11.257C24.6938 11.2991 24.6764 11.2937 24.6655 11.3435C24.6322 11.4952 24.6259 11.6438 24.6259 11.7985C24.6259 11.9305 24.6946 12.013 24.7507 12.1286C24.8036 12.2375 24.8563 12.3449 24.904 12.4562C24.9492 12.5616 25.126 12.5519 25.2217 12.5625C25.2836 12.5693 25.3448 12.5798 25.4072 12.5798C25.5113 12.5798 25.4104 12.3071 25.4072 12.2905C25.343 11.9585 25.2546 11.6286 25.2044 11.2941C25.2017 11.2762 25.2024 11.2503 25.2057 11.2323C25.2108 11.204 25.2353 11.1161 25.2353 11.1161C25.2265 11.1337 25.2044 11.2186 25.2044 11.1692C25.2044 11.1034 25.1499 11.2913 25.1068 11.3411C25.0746 11.3782 25.0709 11.3969 25.0709 11.4449C25.0709 11.6512 25.0186 11.8542 24.9596 12.052C24.884 12.3059 24.8484 12.0074 24.8484 11.9122" stroke="#F0CAAB" stroke-linecap="round"/>
<path d="M25.4938 9.70898C25.4938 9.9185 25.519 10.1467 25.4888 10.3543C25.4793 10.4197 25.4492 10.4684 25.4492 10.5323C25.4492 10.6302 25.4284 10.7242 25.427 10.8216C25.4261 10.8831 25.4119 11.1095 25.4715 11.1504C25.7451 11.3385 25.9642 11.6116 26.2268 11.8217C26.3386 11.9111 26.4057 12.0282 26.4827 12.1543C26.5145 12.2062 26.5529 12.2444 26.4704 12.268C26.3549 12.301 26.2355 12.3309 26.1205 12.2791C26.0029 12.2262 26.0757 12.1844 26.1737 12.2148C26.2921 12.2516 26.4254 12.3297 26.5174 12.4151C26.5897 12.4823 26.6579 12.6031 26.7065 12.6895C26.759 12.7829 26.8553 12.7674 26.9451 12.802C27.0787 12.8537 27.1711 12.8637 27.3135 12.8688C27.4999 12.8755 27.5655 12.9165 27.7141 12.7625C27.9565 12.5111 27.6713 12.0725 27.536 11.8402C27.4379 11.6717 27.272 11.5442 27.1231 11.4224C26.9889 11.3126 26.8984 11.1721 26.7844 11.0454C26.6111 10.8529 26.3753 10.6231 26.4073 10.3345C26.4157 10.2593 26.4824 10.2181 26.5273 10.1652C26.6086 10.069 26.6302 10.0134 26.7572 9.97106C26.8558 9.93824 26.9703 10.0715 27.0465 10.1268C27.0939 10.1613 27.1972 10.2176 27.2245 10.2752C27.2753 10.3825 27.3284 10.4623 27.4297 10.5323C27.6232 10.666 27.8183 10.8438 28.0379 10.9316C28.1402 10.9725 28.1675 11.0335 28.2395 11.1294C28.2659 11.1647 28.327 11.299 28.3964 11.2296C28.4499 11.1761 28.511 11.059 28.5423 10.9885C28.5713 10.9233 28.5356 10.8871 28.5102 10.8216C28.4809 10.7462 28.4756 10.6688 28.4756 10.5892C28.4756 10.5484 28.418 10.5423 28.3977 10.4977C28.3321 10.3533 28.4887 10.4217 28.5658 10.4445C28.708 10.4867 28.8438 10.5276 28.9874 10.5595C29.2303 10.6135 29.4927 10.5445 29.7328 10.5978C29.8261 10.6186 29.922 10.6519 29.922 10.7659C29.922 10.8756 29.9635 10.914 30.0555 10.96C30.1469 11.0058 30.1332 10.9912 30.0778 11.0713C30.0368 11.1304 30.011 11.1771 30.011 11.2494C30.011 11.43 29.9686 11.6076 29.9665 11.7883C29.966 11.8296 29.9909 11.9358 29.9344 11.9515C29.8468 11.9758 29.7446 11.9797 29.6549 11.9738C29.5369 11.966 29.4146 11.9596 29.2989 11.9342C29.2664 11.9271 29.157 11.8885 29.1259 11.9169C29.1066 11.9344 29.1202 12.0288 29.1209 12.0504C29.1251 12.1852 29.1984 12.2905 29.2791 12.3941C29.3694 12.51 29.416 12.5834 29.4559 12.723C29.4722 12.78 29.6865 12.5705 29.7118 12.556C29.8083 12.5009 29.891 12.4237 30.011 12.4237C30.0967 12.4237 30.1383 12.2802 30.189 12.2235C30.2206 12.1882 30.245 12.1594 30.3002 12.1839C30.3383 12.2008 30.4606 12.2235 30.4189 12.2235C30.1394 12.2235 29.8683 12.1734 29.5907 12.158C29.395 12.1471 29.2257 12.2364 29.043 12.2902C28.8787 12.3388 28.7066 12.428 28.6548 12.6092C28.6466 12.6379 28.6313 12.5526 28.6313 12.5227C28.6313 12.4846 28.6098 12.4095 28.5856 12.3249C28.5653 12.254 28.5646 12.3742 28.5646 12.3904C28.5646 12.5003 28.5275 12.5998 28.5052 12.7081C28.4273 13.0864 28.2026 13.2964 27.902 13.5092C27.7785 13.5966 27.6724 13.6756 27.5731 13.7886C27.4736 13.9017 27.3643 13.8898 27.2245 13.8924C26.9263 13.8981 26.6336 13.9592 26.3344 13.9592C26.1491 13.9592 26.0057 13.9034 25.8275 13.8652C25.6969 13.8372 25.6147 13.734 25.4938 13.6971C25.4117 13.672 25.3429 13.621 25.2614 13.5933C25.18 13.5656 25.0787 13.5495 25.003 13.5117C24.9442 13.4823 24.9646 13.4182 24.9251 13.3843C24.9013 13.3639 24.8163 13.3612 24.7879 13.3596C24.6611 13.3524 24.5278 13.4032 24.4022 13.3782C24.2683 13.3513 24.3421 13.2109 24.2897 13.1247C24.2185 13.0078 24.1537 12.9306 24.0585 12.8355C24.0176 12.7945 23.9552 12.671 23.8817 12.692C23.8282 12.7073 23.8862 13.0536 23.8904 13.0975C23.9083 13.2852 23.9917 13.6546 23.7334 13.7144C23.5634 13.7538 23.3761 13.7367 23.2018 13.7367C23.1556 13.7367 23.1095 13.7367 23.0633 13.7367C23.0531 13.7367 22.3969 13.7932 22.4 13.7886C22.4373 13.7327 23.0916 13.8303 23.1128 13.8591C23.1629 13.9271 23.1812 13.9929 23.2129 14.0704C23.2757 14.2239 23.3283 14.4126 23.5084 14.4265C23.6657 14.4386 23.8456 14.5363 23.9979 14.5822C24.1251 14.6206 24.2466 14.6716 24.3713 14.7157C24.4445 14.7417 24.3888 14.7378 24.3466 14.7331C24.1651 14.7127 23.985 14.6873 23.8026 14.6762C23.754 14.6733 23.5856 14.6424 23.5405 14.6762C23.5345 14.6806 23.5574 14.7552 23.5578 14.7652C23.5628 14.8762 23.6144 14.9406 23.674 15.0273C23.6815 15.0381 23.8203 14.9828 23.857 14.9828C23.9464 14.9828 24.0358 14.9828 24.1253 14.9828C24.2098 14.9828 24.253 14.9865 24.3243 15.0273C24.3728 15.055 24.3825 15.1366 24.4368 15.1608C24.6052 15.2356 24.793 15.2275 24.977 15.2275C25.1224 15.2275 25.2656 15.2315 25.4097 15.2547C25.4836 15.2667 25.5527 15.3166 25.6273 15.3166C25.7044 15.3166 25.7731 15.3088 25.8498 15.2943C25.9258 15.28 26 15.2721 26.0773 15.2721C26.1395 15.2721 25.9119 15.3032 25.8893 15.3079C25.7129 15.3449 25.5622 15.4278 25.3825 15.4278C25.3116 15.4278 25.2407 15.4278 25.1699 15.4278C25.1048 15.4278 25.0692 15.4413 25.0141 15.4513C25.0009 15.4537 24.933 15.4921 24.956 15.4921C25.0417 15.4921 25.137 15.4654 25.2169 15.4377C25.4909 15.3426 25.7358 15.2721 26.0278 15.2721C26.083 15.2721 26.4054 15.2341 26.4259 15.2955C26.4325 15.3154 26.4165 15.3559 26.4457 15.3598C26.5766 15.3773 26.7376 15.3369 26.8635 15.3054C27.0881 15.2493 27.2686 15.0262 27.4767 14.9209C27.5872 14.8651 27.6471 14.8251 27.7141 14.7331C27.7619 14.6673 27.7912 14.599 27.8525 14.5377C28.0023 14.388 28.0583 14.1696 28.2543 14.0593C28.3562 14.002 28.4429 13.94 28.5423 13.8813C28.6519 13.8166 28.696 13.7412 28.7797 13.6575C28.9385 13.4987 29.0956 13.3391 29.2544 13.1803" stroke="#F0CAAB" stroke-width="3" stroke-linecap="round"/>
<path d="M26.5841 16.9851C26.4075 16.9851 26.2815 16.9831 26.1292 16.8961C26.0898 16.8735 26.181 16.9122 26.1947 16.9183C26.3173 16.9728 26.4122 17.0891 26.5508 17.1198C26.5879 17.1281 26.8043 17.2734 26.8067 17.2299C26.8205 16.9814 26.8067 16.727 26.8067 16.4782C26.8067 16.4094 26.7798 16.3092 26.8635 16.294C26.966 16.2754 27.0876 16.3081 27.2 16.294C27.3161 16.2795 27.3908 15.98 27.4532 15.8823C27.5217 15.7754 27.5831 15.6653 27.6473 15.556C27.6903 15.4827 27.7216 15.3704 27.7808 15.3112C27.801 15.291 27.7453 15.385 27.7413 15.3162C27.7378 15.2571 27.791 15.2338 27.808 15.1826" stroke="#F0CAAB" stroke-width="2" stroke-linecap="round"/>
<path d="M22.791 14.1227C22.5256 14.102 22.2602 14.0795 21.9945 14.0632C21.9607 14.0612 21.922 14.0729 21.8931 14.0551C21.8816 14.048 21.8686 14.0296 21.8628 14.0177C21.8319 13.9561 21.8163 13.8909 21.7835 13.8289C21.7188 13.7066 21.6153 13.6278 21.5421 13.514C21.4843 13.4242 21.3849 13.3976 21.331 13.3053C21.2967 13.2465 21.2103 13.1855 21.1538 13.1572" stroke="#F0CAAB" stroke-linecap="round"/>
<path d="M23.5256 15.2979C23.6758 15.4116 23.8017 15.5271 23.9407 15.6384C23.9816 15.6711 24.0594 15.7356 24.1133 15.7386C24.1728 15.7419 24.2949 15.7659 24.3232 15.8226" stroke="#F0CAAB" stroke-linecap="round"/>
<path d="M31.1028 12.6536C31.148 12.4426 31.2497 12.2637 31.2497 12.0449" stroke="#F0CAAB" stroke-linecap="round"/>
<path d="M33.5812 17.4902C33.7127 17.4902 33.8408 17.4908 33.9715 17.5053C33.9973 17.5082 34.0841 17.5066 34.1055 17.5237C34.1841 17.5865 34.3584 17.5986 34.4557 17.6176C34.5301 17.632 34.6066 17.6241 34.6819 17.6259C34.7731 17.6281 34.8647 17.6555 34.9524 17.6787C35.0182 17.6961 35.0806 17.7238 35.1459 17.7432C35.2037 17.7603 35.2735 17.7193 35.3269 17.7047C35.3921 17.6868 35.4687 17.6855 35.5263 17.6485C35.551 17.6326 35.5762 17.6132 35.6016 17.5991C35.6345 17.5808 35.7307 17.5559 35.7365 17.6134C35.7555 17.803 35.7048 17.9449 35.5715 18.0782C35.4596 18.1901 35.3887 18.3483 35.2582 18.4402C35.1482 18.5176 34.9231 18.392 34.9231 18.2516C34.9231 18.1867 34.7649 18.1404 34.7179 18.1151C34.555 18.0274 34.3507 18.0924 34.1826 18.0096C34.0482 17.9434 33.8503 17.9597 33.7696 17.8144C33.7686 17.8125 34.1203 17.8271 34.191 17.8337C34.3588 17.8492 34.5259 17.866 34.6936 17.8831C34.9071 17.9048 35.1269 17.9803 35.3302 18.0481" stroke="#F0CAAB" stroke-linecap="round"/>
<path d="M20.9811 13.0214C21.1211 13.1614 21.2653 13.3473 21.4394 13.4479C21.6156 13.5496 21.7884 13.6668 21.97 13.7602C22.029 13.7905 21.9226 13.7607 21.9093 13.7565C21.8603 13.7413 21.8082 13.7335 21.7618 13.711C21.7078 13.6848 21.6597 13.6459 21.5991 13.6459C21.5565 13.6459 21.6169 13.7425 21.6346 13.7602C21.6864 13.812 21.7685 13.8636 21.8334 13.8997C21.8915 13.932 21.9539 13.9735 22.0155 14.0031C22.1366 14.061 22.2629 14.0992 22.3791 14.1657C22.4901 14.2291 22.6258 14.2525 22.7348 14.3226C22.7708 14.3457 22.8042 14.3781 22.8417 14.3977C22.8777 14.4166 22.8627 14.3583 22.8692 14.3435C22.8785 14.3228 23.1611 14.3234 23.1931 14.3226C23.2653 14.3206 23.3305 14.3026 23.4013 14.29C23.4892 14.2743 23.5498 14.2629 23.6181 14.1967C23.693 14.1243 23.7836 14.0704 23.8567 13.9972C23.9088 13.9452 23.9943 13.9161 24.0519 13.8729C24.0993 13.8373 24.3123 14.0055 24.3815 14.0305C24.4335 14.0493 24.4911 14.0433 24.5434 14.0623C24.5796 14.0755 24.6216 14.1058 24.6569 14.1136C24.7274 14.1293 24.7827 14.1696 24.8456 14.2026C24.9498 14.2572 25.0697 14.3046 25.1817 14.3406C25.3141 14.3832 25.4276 14.3849 25.5395 14.47C25.6037 14.5188 25.6479 14.5299 25.7289 14.5308C25.911 14.5326 26.0741 14.5559 26.2515 14.5885C26.3821 14.6126 26.5041 14.5586 26.6267 14.5177C26.804 14.4586 26.9211 14.3051 27.0872 14.2257C27.1104 14.2146 27.1361 14.2021 27.1559 14.1859C27.1578 14.1843 27.1817 14.1683 27.1776 14.1671C27.0917 14.1426 26.991 14.1437 26.9028 14.1245C26.6609 14.0718 26.4506 13.9594 26.2277 13.857C26.1676 13.8294 26.1015 13.8112 26.0426 13.7818C25.8954 13.7082 25.7687 13.6052 25.6292 13.5187C25.503 13.4405 25.4142 13.3649 25.3465 13.2295C25.3105 13.1575 25.2409 13.0782 25.181 13.0243C25.1723 13.0165 25.1491 13.0158 25.1369 13.0077C25.1008 12.9836 25.0772 12.9542 25.032 12.9462C24.8616 12.9159 24.7024 12.8547 24.5355 12.8016C24.3822 12.7529 24.3211 12.9496 24.1921 13.0055C24.1411 13.0276 23.9507 13.044 23.8964 13.0134C23.8184 12.9695 23.7145 12.9777 23.6355 12.9245C23.6085 12.9064 23.5373 12.8394 23.5603 12.8623C23.5847 12.8867 23.638 12.8782 23.6687 12.8782C23.7162 12.8782 23.7637 12.8782 23.8112 12.8782C23.8668 12.8782 23.9169 12.9022 23.9709 12.9043C24.1244 12.91 24.2774 12.9045 24.4343 12.9238C24.5631 12.9397 24.6648 12.9838 24.7704 13.0633C24.8336 13.1109 24.8839 13.141 24.954 13.1761C25.1256 13.2619 25.2696 13.3882 25.4145 13.5122C25.6286 13.6954 25.8041 13.9366 26.086 14.0204C26.2349 14.0646 26.3768 14.1241 26.5284 14.1606C26.6356 14.1864 26.7829 14.1796 26.8826 14.2249C26.9199 14.2419 26.9555 14.2146 26.9817 14.191C27.0479 14.1314 27.1174 14.1154 27.205 14.1144C27.2206 14.1142 27.3485 14.1195 27.3135 14.1274C27.1753 14.1583 27.0167 14.1479 26.8769 14.1476C26.5551 14.1469 26.2337 14.1251 25.9125 14.1093C25.7934 14.1034 25.6746 14.1013 25.5554 14.1013C25.5129 14.1013 25.4565 14.1093 25.4152 14.0941C25.3923 14.0857 25.381 14.0471 25.3718 14.0283C25.3373 13.9575 25.2936 13.8969 25.2374 13.8411C25.081 13.6859 24.873 13.5852 24.6938 13.4609C24.6244 13.4128 24.543 13.3875 24.4653 13.3568C24.3783 13.3225 24.2873 13.2422 24.3692 13.3799C24.4393 13.4979 24.521 13.6082 24.5897 13.7269C24.6164 13.7731 24.3063 13.7268 24.2803 13.7211C24.1256 13.6878 24.0069 13.608 23.9449 13.4652C23.9009 13.3642 23.6346 13.595 23.6102 13.6257C23.5179 13.7415 23.5467 13.8745 23.3897 13.9249C23.162 13.9981 22.9553 13.9585 22.7254 13.9134C22.5215 13.8733 22.3585 13.8198 22.1883 13.7009C22.1193 13.6527 22.0467 13.614 21.9765 13.5672C21.9451 13.5462 21.9179 13.5201 21.8818 13.5057C21.8309 13.4853 22.0101 13.5075 22.0206 13.5086C22.1684 13.5247 22.2857 13.4894 22.4297 13.4638C22.4795 13.455 22.5366 13.4482 22.5844 13.432C22.6782 13.4002 22.7641 13.3174 22.8526 13.2708C22.9457 13.2217 23.0388 13.1701 23.1338 13.1226C23.1682 13.1054 23.2272 13.0955 23.2553 13.0705C23.3129 13.0193 23.4346 13.0474 23.5097 13.0474C23.5892 13.0474 23.5159 13.2132 23.5003 13.2498C23.4384 13.3947 23.3286 13.4688 23.2061 13.5549C23.1456 13.5973 23.1095 13.6649 23.0471 13.7052C22.9979 13.737 22.926 13.754 22.8678 13.7623C22.8389 13.7665 22.8239 13.7628 22.8302 13.7298C22.8373 13.6924 22.8764 13.6709 22.904 13.6495C22.9732 13.596 23.0445 13.5407 23.0933 13.4667C23.1317 13.4085 23.1378 13.3683 23.1895 13.3243C23.2515 13.2714 23.3192 13.2069 23.4013 13.1905" stroke="white" stroke-linecap="round"/>
<path d="M33.8041 19.5098C33.647 19.4846 33.5012 19.4777 33.3538 19.4107C33.2978 19.3852 33.2154 19.3997 33.1543 19.3997C33.0501 19.3997 33.0332 19.3694 33.0332 19.2565C33.0332 19.1087 32.9983 19.0303 32.8667 18.9689C32.6979 18.8901 32.5725 18.725 32.4053 18.6507C32.2664 18.589 32.4209 19.0003 32.4494 19.0558C32.5233 19.1998 32.6192 19.3208 32.6917 19.4657C32.7656 19.6135 32.8628 19.6687 33.0111 19.7521C33.1127 19.8092 33.2369 19.8762 33.2975 19.9822C33.3342 20.0464 33.0507 20.0164 32.9891 20.0164C32.8206 20.0164 32.6445 19.9676 32.4837 19.9173C32.4032 19.8922 32.3078 19.9085 32.2304 19.8733C31.9516 19.7466 31.7299 19.5322 31.4594 19.3777C31.3341 19.3061 31.2194 19.2543 31.1167 19.1573C31.0538 19.098 31.0093 19.0735 30.9576 19.0031C30.9094 18.9376 30.8397 18.8843 30.7814 18.8318C30.6923 18.7517 30.6533 18.6551 30.5831 18.5675C30.5224 18.4916 30.5228 18.5344 30.5611 18.6067C30.5882 18.6579 30.588 18.5717 30.588 18.5516C30.588 18.5035 30.5556 18.4686 30.5391 18.4255C30.4822 18.2777 30.3758 18.1703 30.3286 18.0168C30.295 17.9076 30.2633 17.7734 30.2576 17.6594C30.2536 17.5787 30.1915 17.5214 30.1915 17.4392C30.1915 17.2779 30.1963 17.1157 30.1915 16.9546C30.1911 16.9418 30.152 16.6604 30.2087 16.7171C30.2589 16.7674 30.2576 16.9641 30.2576 16.7392C30.2576 16.5475 30.2744 16.3836 30.3225 16.2154C30.3426 16.1449 30.3443 16.0787 30.38 16.0073C30.4532 15.8608 30.5958 15.6913 30.6309 15.5338C30.6832 15.2983 30.843 15.1577 31.0065 14.9941C31.167 14.8336 31.232 14.7453 31.3149 14.5229C31.3898 14.3224 31.4386 14.2086 31.6185 14.1105C31.9423 13.9339 32.339 13.8706 32.7027 13.8706C32.8135 13.8706 32.8569 13.8611 32.8569 13.9918C32.8569 14.0228 32.8346 14.0073 32.8251 14.0003C32.7268 13.9279 32.6988 13.7711 32.6685 13.6626C32.6075 13.4448 32.7069 13.4279 32.9132 13.3628C33.1028 13.3029 33.2429 13.106 33.4321 13.0544C33.68 12.9868 33.895 12.8575 34.1223 12.7484C34.2313 12.6961 34.3803 12.6985 34.4992 12.686C34.6063 12.6748 34.7103 12.6371 34.8174 12.6371C34.8907 12.6371 35.0025 12.6382 35.0683 12.6028C35.1463 12.5608 35.1802 12.5101 35.28 12.5049C35.3686 12.5002 35.5071 12.4296 35.5394 12.5587C35.6263 12.9062 35.6186 13.2756 35.7156 13.621C35.7558 13.764 35.733 13.9076 35.7548 14.0542C35.7842 14.251 35.7866 14.4397 35.7866 14.6392C35.7866 14.9449 35.8101 15.2595 35.7597 15.5619C35.7284 15.7501 35.6224 15.8019 35.466 15.8801C35.3793 15.9235 35.2965 15.9974 35.1906 15.9694C35.0958 15.9443 35.0232 15.856 34.974 15.7773C34.7808 15.4681 34.6819 15.1033 34.6583 14.7419C34.6403 14.4652 34.6828 14.1719 34.476 13.9538C34.3311 13.8012 34.2204 13.9864 34.1786 14.1301C34.0491 14.5747 34.0095 15.037 34.0415 15.4958C34.0539 15.674 34.0826 15.8276 34.1553 15.9914C34.1737 16.0328 34.2116 16.1836 34.1688 16.2178C34.1459 16.2362 34.0592 16.1903 34.0317 16.1909C33.9123 16.1934 33.8093 16.2688 33.6866 16.2558C33.6267 16.2494 33.5753 16.2213 33.5214 16.1971C33.4637 16.1711 33.4067 16.2366 33.3587 16.2619C33.0629 16.4176 32.7435 16.4359 32.6586 16.8273C32.6267 16.9748 32.6427 17.1651 32.5057 17.2678C32.4696 17.2949 32.4189 17.2781 32.3784 17.2752C32.2241 17.2639 32.1045 17.3128 31.9489 17.2507C31.7585 17.1747 31.5099 17.0296 31.5083 16.7954C31.5077 16.7123 31.5484 16.6249 31.556 16.5409C31.5605 16.4919 31.5539 16.4429 31.5621 16.394C31.6119 16.1008 31.8095 15.8324 32.01 15.6206C32.1107 15.5145 32.2056 15.3507 32.3503 15.3025" stroke="#FFDE6C" stroke-width="3" stroke-linecap="round"/>
<path d="M34.487 19.3341C34.487 19.0599 34.6754 18.7231 34.4 18.6007C34.2689 18.5424 33.9929 18.6102 33.858 18.5496C33.6911 18.4748 33.4822 18.3695 33.3513 18.2425C33.3119 18.2042 33.2963 18.1761 33.2632 18.1336C33.2398 18.1035 33.2229 18.0321 33.1983 18.0125C33.1452 17.97 33.1311 17.8135 33.1103 17.7469C33.0722 17.625 33.0552 17.4999 33.0552 17.3736C33.0552 17.2837 33.0571 17.2053 33.0759 17.1203C33.105 16.9898 33.2055 17.0212 33.3195 17.0212C33.4293 17.0212 33.4869 16.9055 33.5961 16.8939C33.6905 16.8838 33.7874 16.889 33.8825 16.889C33.9479 16.889 34.0023 16.9193 34.0685 16.9098C34.1227 16.902 34.1157 16.9314 34.1615 16.9331C34.3136 16.9387 34.4669 16.9331 34.6191 16.9331C34.7472 16.9331 34.8753 16.9331 35.0034 16.9331C35.2637 16.9331 35.517 16.889 35.7756 16.889C35.8216 16.889 35.868 16.8908 35.9139 16.889C35.9654 16.8869 35.9217 16.8016 35.98 16.7886C36.0025 16.7837 36.1227 16.6087 36.1464 16.572C36.2579 16.3997 36.3368 16.1719 36.4254 15.9846C36.4853 15.8582 36.4789 15.7314 36.5234 15.6065C36.5784 15.4516 36.6846 15.3246 36.7461 15.1757C36.8229 14.9897 36.7353 14.3921 36.8171 14.5761C36.8556 14.6629 36.7733 14.3988 36.7656 14.379C36.684 14.1692 36.5522 13.9802 36.483 13.7647C36.45 13.6622 36.4687 13.5388 36.4866 13.4355C36.531 13.1802 36.5132 12.903 36.5356 12.6449C36.5476 12.507 36.5371 12.3872 36.6237 12.2766C36.7048 12.173 36.9141 12.0869 37.0422 12.0869C37.0811 12.0869 37.1379 12.097 37.1744 12.082C37.2133 12.066 37.2185 12.1509 37.2185 12.0954C37.2185 11.9906 37.1937 11.1342 37.1695 11.1446C37.077 11.1842 36.9776 11.3245 36.9419 11.4187C36.8883 11.5599 36.8645 11.5652 36.7522 11.6157C36.6296 11.6709 36.5287 11.7702 36.4572 11.8838C36.3786 12.0086 36.5906 12.008 36.6555 12.0208C36.8547 12.0602 36.9628 12.125 37.1352 12.219C37.1991 12.2539 37.4312 12.3098 37.4228 12.3072C37.0019 12.1777 36.5499 12.1861 36.117 12.1298C36.0111 12.116 35.737 12.122 35.8086 12.0428C35.846 12.0016 35.8717 11.9449 35.8919 11.8935C35.8967 11.8812 35.9345 11.8666 35.9213 11.8666C35.7738 11.8666 35.6276 11.8646 35.4831 11.8985C35.3173 11.9373 35.1177 11.9789 34.9826 12.0869C34.9616 12.1037 34.8602 12.1725 34.8676 12.1725C34.9524 12.1725 35.0474 12.1284 35.1307 12.1138C35.2661 12.0902 35.4 12.0869 35.537 12.0869C35.618 12.0869 35.6772 12.0545 35.756 12.0428C35.8131 12.0344 35.8827 12.0291 35.931 11.9939C35.9695 11.9658 35.9831 11.9174 36.024 11.8886C36.0882 11.8435 36.1625 11.8226 36.0338 11.8226C35.9597 11.8226 35.7093 11.7608 35.6973 11.8446C35.6633 12.0825 35.3006 12.272 35.1319 12.4002C34.9848 12.512 34.8316 12.6279 34.7171 12.7746C34.5979 12.9273 34.5192 13.1148 34.3866 13.2569C34.3306 13.3169 34.2887 13.3037 34.2887 13.2324" stroke="#FFDE6C" stroke-linecap="round"/>
<path d="M18.1368 9.50768C18.3122 9.3323 18.6256 9.15068 18.7263 8.92412C18.7629 8.8418 18.7956 8.74628 18.8206 8.65886C18.8415 8.5856 18.8309 8.48666 18.8589 8.42018C18.9332 8.24366 19.0556 8.11058 19.192 7.96334C19.2811 7.86704 19.3835 7.74788 19.3835 7.61114C19.3835 7.54472 19.4288 7.46726 19.4381 7.39742C19.4519 7.29404 19.5194 7.20518 19.5412 7.10714C19.5943 6.86816 19.7726 7.11326 19.9406 7.17344C20.064 7.21766 20.2048 7.27094 20.2854 7.37978C20.3795 7.5068 20.5157 7.65602 20.6568 7.73048C20.7586 7.78424 20.8869 7.83662 21.0016 7.83662C21.1727 7.83662 21.1088 7.68464 21.0812 7.54628C21.0218 7.24958 20.9437 7.00802 20.6568 6.89642C20.4824 6.82862 20.285 6.80792 20.1145 6.85664C19.9576 6.90146 20.4578 6.91484 20.6037 6.84188C20.7622 6.76262 21.0086 6.63956 21.1283 6.85514C21.2363 7.04942 21.4966 7.13606 21.6058 7.33262C21.6391 7.39256 21.7213 7.67744 21.7576 7.67744C21.8143 7.67744 21.85 7.58762 21.9167 7.5728C22.0109 7.55192 22.0223 7.56314 21.9551 7.46228C21.8978 7.37642 21.8504 7.23878 21.8504 7.13366C21.8504 7.07312 21.8256 6.98864 21.7708 6.96122" stroke="#F0CAAB" stroke-width="2" stroke-linecap="round"/>
<path d="M22.0096 6.53712C22.2546 6.53712 22.4882 6.49806 22.7258 6.48408C22.7624 6.48192 22.8994 6.28398 22.938 6.24534C22.9938 6.1896 23.0977 6.13926 23.1767 6.13926C23.2166 6.13926 23.2563 6.13926 23.2961 6.13926C23.3717 6.13926 23.3325 6.1236 23.3094 6.15252C23.272 6.1992 23.0558 6.21882 23.0028 6.21882C22.8498 6.21882 22.705 6.24534 22.5534 6.24534C22.4976 6.24534 22.2267 6.24594 22.1953 6.28518C22.1729 6.3132 22.4787 6.27246 22.5195 6.26598C22.7014 6.23712 22.886 6.21762 23.0662 6.18054C23.1277 6.16788 23.2147 6.18318 23.2622 6.14514C23.2761 6.13398 23.5069 6.1344 23.4891 6.11862C23.4386 6.07362 23.1979 6.1113 23.1355 6.11418C22.9415 6.12324 22.7548 6.21624 22.5726 6.2778C22.3512 6.3525 22.142 6.41388 21.9168 6.47232C21.7464 6.51648 21.5879 6.53712 21.4128 6.53712C21.3336 6.53712 21.2172 6.55818 21.1549 6.60198C20.7128 6.91308 20.1008 7.07322 19.8213 7.57014C19.7502 7.69656 19.8144 7.9485 19.6886 8.04912C19.5847 8.13222 19.5416 8.32728 19.4425 8.42634C19.2018 8.66712 20.0123 8.04528 20.253 7.8045C20.2742 7.78332 20.4977 7.557 20.4977 7.68954C20.4977 7.82034 20.3836 7.89792 20.2987 7.98276C20.1785 8.103 20.0658 8.24094 19.9686 8.38068C19.8716 8.52012 19.7759 8.66916 19.7564 8.8449C19.7536 8.86986 19.7157 9.03156 19.755 8.97162C19.8339 8.85084 19.8912 8.7222 19.9819 8.60616C20.0222 8.55456 20.4446 8.18076 20.4446 8.34384C20.4446 8.55522 20.4063 9.18858 20.4181 8.9775C20.4204 8.93664 20.5038 8.49138 20.5979 8.58552C20.6727 8.66034 20.5851 8.87142 20.7378 8.87142C20.8518 8.87142 21.1077 8.54496 21.1077 8.74026C21.1077 8.86752 20.9231 9.01524 20.8896 8.81832C20.8742 8.72736 20.8753 8.46 20.841 8.54574C20.8292 8.57538 20.8181 8.70468 20.7629 8.67984C20.6429 8.62578 20.5352 8.50164 20.3871 8.53686C20.1848 8.58504 20.1567 8.74794 20.1528 8.91858C20.1464 9.20448 19.9361 9.23832 19.696 9.13074C19.5521 9.0663 19.3758 8.98494 19.2524 8.88468C19.1976 8.8401 19.1449 8.63124 19.1449 8.70192C19.1449 8.82342 19.173 8.97804 19.1994 9.09684C19.2186 9.18324 19.1852 9.24078 19.2112 9.32382C19.2414 9.42042 19.251 9.5598 19.251 9.66126C19.251 9.7695 19.1963 9.76866 19.1051 9.78798C18.9862 9.81324 18.8714 9.8577 18.7529 9.88524C18.6885 9.90024 18.6288 9.9552 18.5613 9.95892C18.4518 9.96504 18.6029 9.87954 18.6674 9.91176C18.737 9.94662 18.8009 10.0334 18.859 10.0857C18.9279 10.1477 19.0162 10.195 19.1065 10.1977C19.1603 10.1993 19.0974 10.2839 19.1449 10.2568C19.1901 10.231 19.3571 10.0025 19.3571 9.94566C19.3571 9.84426 19.4372 9.7287 19.4838 9.64062C19.5667 9.48402 19.5381 9.63678 19.5752 9.68778C19.6274 9.75966 19.6994 9.7986 19.7933 9.77178C19.8594 9.75288 19.9341 9.71136 20.0069 9.69516C20.0733 9.6804 20.0895 9.66912 20.1499 9.62886C20.2179 9.5835 20.3542 9.55794 20.4033 9.49476C20.4519 9.4323 20.5074 9.36564 20.564 9.30906C20.6463 9.22674 20.6231 9.12666 20.6627 9.03054C20.6843 8.97822 20.5911 9.04776 20.5655 9.05706C20.4911 9.08412 20.5521 9.13068 20.5772 9.16908C20.664 9.3018 20.5817 9.36348 20.7423 9.30168C20.9085 9.23778 21.0765 9.18978 21.2404 9.11604C21.3096 9.0849 21.3713 9.11226 21.426 9.0438C21.4998 8.95158 21.7453 8.81832 21.8637 8.81832C21.9404 8.81832 22.0361 8.77518 22.1157 8.76384C22.2267 8.74794 22.3167 8.70534 22.434 8.71224C22.4788 8.71488 22.409 8.7249 22.353 8.68572C22.2816 8.63574 22.2195 8.63268 22.1364 8.63268C21.9971 8.63268 21.8613 8.60616 21.7193 8.60616C21.4889 8.60616 21.2586 8.60616 21.0282 8.60616" stroke="#F0CAAB" stroke-linecap="round"/>
<path d="M30.8604 13.4453C30.7712 13.4453 30.7101 13.4547 30.6279 13.4915C30.5747 13.5153 30.572 13.5504 30.5348 13.5876C30.4815 13.6409 30.4238 13.6827 30.3861 13.7507C30.3729 13.7744 30.3726 13.7638 30.3514 13.7659C30.2779 13.7732 30.1731 13.928 30.1355 13.9811C30.0791 14.0608 30.0049 14.139 29.9579 14.2244C29.9372 14.262 29.8904 14.3129 29.8857 14.355C29.8821 14.3881 29.8635 14.3649 29.8439 14.3681C29.7555 14.3819 29.6524 14.5187 29.5991 14.5847C29.4864 14.724 29.396 14.8741 29.2951 15.0236C29.2661 15.0667 29.2332 15.1231 29.1941 15.1579C29.1722 15.1773 29.1663 15.2715 29.1587 15.3102C29.1314 15.4491 29.1035 15.564 29.0532 15.6958C28.9862 15.8718 28.9642 16.0654 28.8951 16.238C28.7947 16.4891 28.7549 16.781 28.7421 17.0496C28.7396 17.1024 28.7153 17.1878 28.7096 17.2539C28.6952 17.4207 28.6901 17.5854 28.6901 17.7528C28.6901 17.9931 28.6917 18.2166 28.7782 18.4459C28.8147 18.5427 28.8306 18.6411 28.867 18.7369C28.9272 18.8955 29.0321 19.0377 29.1182 19.1831C29.1873 19.2996 29.2552 19.4051 29.3414 19.5101C29.3942 19.5745 29.4424 19.6427 29.4959 19.7065C29.5372 19.7559 29.5952 19.7916 29.6388 19.8401C29.7369 19.9491 29.844 20.0422 29.9507 20.1383C29.9978 20.1807 29.8454 20.1055 29.8308 20.0993C29.7191 20.0512 29.5988 20.0229 29.4857 19.9794C29.43 19.958 29.3597 19.9425 29.4713 19.9766C29.6112 20.0193 29.7444 20.0868 29.872 20.157C29.9256 20.1866 29.9833 20.1992 30.0359 20.2292C30.0522 20.2386 30.071 20.2397 30.0836 20.2524C30.1143 20.2832 29.9989 20.232 29.9565 20.222C29.8518 20.1975 29.7473 20.1513 29.6388 20.1513C29.5535 20.1513 29.5035 20.1873 29.4107 20.1542C29.3593 20.1358 29.2943 20.092 29.2417 20.1195C29.2055 20.1384 29.1723 20.1756 29.1291 20.1773C29.089 20.1788 29.0444 20.1998 29.0078 20.2191C28.9903 20.2284 28.9878 20.2833 28.9565 20.3007C28.9215 20.3202 28.8771 20.2941 28.8461 20.2798C28.6212 20.1762 28.4251 20.0353 28.2121 19.9109C28.1606 19.8807 28.0951 19.8592 28.0504 19.8177C27.9971 19.7682 27.913 19.7882 27.8439 19.7802C27.6543 19.758 27.4853 19.7373 27.3125 19.6509C27.1363 19.5628 26.9642 19.4674 26.7811 19.3932C26.5289 19.2908 26.2935 19.1579 26.0447 19.0495C25.9995 19.0298 25.8536 18.9938 25.844 18.9296C25.8308 18.8415 25.7456 18.7546 25.7024 18.6798C25.5822 18.4715 25.4958 18.2399 25.3985 18.0199C25.3212 17.8454 25.2464 17.6693 25.1884 17.4871C25.1733 17.4398 25.1708 17.3807 25.1682 17.3312C25.1664 17.2988 25.1532 17.2631 25.1422 17.2329C25.1382 17.222 25.1106 17.1391 25.119 17.1867C25.176 17.5055 25.4329 17.5978 25.6707 17.7585C25.8539 17.8824 26.051 17.9674 26.2541 18.0531C26.4092 18.1186 26.5482 18.1827 26.7104 18.2207C26.7959 18.2406 26.8829 18.277 26.9717 18.2798C27.0545 18.2825 27.1434 18.185 27.1934 18.1296C27.3197 17.9897 27.3921 17.8037 27.4959 17.6474C27.4969 17.6459 27.5244 17.591 27.5363 17.604C27.5376 17.6055 27.5426 17.6131 27.5465 17.6112C27.5997 17.5854 27.6711 17.5028 27.7082 17.4683C27.9582 17.2357 28.2314 17.0231 28.3457 16.6929C28.379 16.5968 28.3558 16.489 28.3912 16.394C28.3979 16.3761 28.3953 16.3811 28.371 16.394C28.2364 16.4651 28.1195 16.5732 28.0056 16.6727C27.9758 16.6988 27.8843 16.7541 27.8843 16.8048C27.8843 16.8471 27.9642 16.7937 27.9782 16.7838C28.0487 16.7344 28.0905 16.6526 28.1327 16.5803C28.2161 16.4373 28.2951 16.2925 28.3623 16.1413C28.415 16.0226 28.4671 15.9111 28.55 15.8106C28.6376 15.7044 28.8309 15.3413 28.7854 15.4713C28.7237 15.6475 28.6227 15.8192 28.5486 15.9897C28.3529 16.4394 28.1718 16.8938 28.0518 17.3701C28.0045 17.558 27.958 17.7485 27.9471 17.9427C27.9402 18.0678 27.9395 18.2159 28.0287 18.3159C28.1061 18.4027 28.2239 18.4566 28.3277 18.5037C28.3569 18.5169 28.4493 18.5397 28.4172 18.5397C28.3817 18.5397 28.3677 18.1717 28.3659 18.1506C28.3478 17.9422 28.3559 17.7397 28.3522 17.5319C28.3514 17.4871 28.3215 17.4581 28.3139 17.4163C28.3116 17.4033 28.3126 17.3873 28.3146 17.3745C28.3343 17.2518 28.3364 17.4636 28.3363 17.4654C28.3299 17.9289 28.3221 18.3926 28.3377 18.856C28.3449 19.0673 28.3406 19.3188 28.4172 19.5231C28.478 19.6853 28.6463 19.7531 28.7984 19.8076C28.8644 19.8312 28.9316 19.8523 29.0006 19.8654C29.0249 19.87 29.1633 19.9148 29.1204 19.8632C29.0261 19.7501 28.9101 19.6535 28.8085 19.547C28.7309 19.4655 28.6578 19.3803 28.5753 19.3037C28.5372 19.2683 28.4679 19.2275 28.4475 19.1766C28.4313 19.136 28.4426 19.0721 28.4432 19.0293C28.445 18.8888 28.5723 19.0862 28.6034 19.1238C28.6087 19.1302 28.7367 19.2845 28.6453 19.2394C28.4021 19.1193 28.1717 18.899 27.9912 18.7001C27.8581 18.5534 27.7817 18.4195 27.7941 18.2214C27.7965 18.1832 27.8141 18.1512 27.8035 18.1109C27.7805 18.0242 27.6822 18.1935 27.6757 18.2048C27.5685 18.3892 27.5462 18.5728 27.6504 18.7607C27.7941 19.0199 28.0202 19.2282 28.1904 19.469C28.2033 19.4871 28.2891 19.575 28.2143 19.5217C27.9321 19.3205 27.6258 19.0905 27.4323 18.7982C27.3825 18.723 27.3309 18.6288 27.293 18.5456C27.2894 18.5375 27.2877 18.5155 27.28 18.5109C27.2742 18.5074 27.2746 18.5236 27.2742 18.5304C27.2702 18.6086 27.2841 18.6906 27.2995 18.7665C27.3358 18.9455 27.386 19.126 27.4598 19.2935C27.4705 19.3178 27.5145 19.3842 27.4988 19.3628C27.3448 19.1529 26.9852 19.0971 26.9031 18.8329C26.885 18.7743 26.852 18.7382 26.8194 18.6892C26.7986 18.6581 26.7933 18.5481 26.7479 18.5456C26.6589 18.5406 26.6887 18.7192 26.6887 18.7643C26.6887 18.8587 26.6782 18.8784 26.5761 18.869C26.5383 18.8655 26.4631 18.8471 26.4454 18.8235C26.3852 18.7433 26.2773 18.6972 26.205 18.6278C26.1373 18.5629 26.086 18.4844 26.0201 18.4185C25.9881 18.3864 25.9233 18.375 25.9089 18.3318" stroke="white" stroke-linecap="round"/>
<path d="M25.1054 -0.0156974C25.0238 -0.00519635 24.7327 0.0315574 24.4672 0.0630605C23.063 0.225827 21.3883 0.782387 20.1016 1.51221C16.8542 3.3709 14.6842 6.54222 14.1174 10.2701C13.9897 11.0839 13.9948 12.8901 14.1174 13.6829C14.2348 14.4023 14.5157 15.5259 14.7199 16.0877C15.9709 19.4743 18.7281 22.1783 22.1185 23.3335C23.4409 23.7902 24.5591 23.9687 26.0245 23.9687C28.0312 23.9687 29.6855 23.5802 31.4369 22.6876C32.984 21.9053 34.2962 20.8499 35.3786 19.5268C36.1292 18.6027 36.9053 17.2376 37.3292 16.0877C37.5436 15.4996 37.8244 14.3813 37.9316 13.6567C38.0542 12.8324 38.0542 11.0787 37.9316 10.2701C37.6151 8.21712 36.8339 6.34272 35.6339 4.75179C33.7141 2.22103 30.9314 0.561862 27.781 0.0840629C27.2755 0.00530472 25.4323 -0.0629521 25.1054 -0.0156974ZM27.735 0.824387C32.4223 1.55421 36.1599 5.11932 37.0994 9.7608L37.2322 10.4066L36.8134 10.8214C36.3896 11.2309 36.3896 11.2309 36.2824 11.1312C36.0986 10.9579 35.6493 11.0524 35.6493 11.2677C35.6493 11.3097 35.588 11.357 35.5114 11.3727C35.0468 11.4725 34.2247 11.6983 33.7856 11.8558C33.275 12.0343 32.1415 12.5803 31.733 12.8429L31.5185 12.9794L31.5901 12.7956C31.6309 12.6906 31.6666 12.5068 31.6666 12.3755C31.6666 12.155 31.6819 12.134 31.9117 11.987C32.9738 11.2835 33.0197 10.3541 32.0393 9.36702L31.6666 8.99424L31.7994 8.55318C32.1109 7.53984 32.6674 6.38994 33.0605 5.95416L33.2648 5.72314L32.9686 5.27684C31.9219 3.69118 30.3391 2.63057 28.5622 2.31554C27.5818 2.14227 26.5709 2.17902 25.4731 2.43105C24.9217 2.55707 24.9574 2.51506 24.9012 3.07687C24.8552 3.55467 24.5897 4.8358 24.3906 5.56562C24.1966 6.24294 23.9719 6.76272 23.5379 7.50306C23.2979 7.91784 23.2724 7.93884 23.1192 7.92312C22.9712 7.90734 22.9609 7.89684 22.9763 7.71834C22.9916 7.57134 22.9558 7.48206 22.818 7.29306L22.6444 7.05678L23.2213 6.78372C23.5379 6.6315 23.8391 6.45822 23.8851 6.40572C23.9362 6.34794 23.9821 6.18516 23.9975 6.02244L24.0179 5.73889L23.6196 5.70213C23.3081 5.67063 23.0222 5.69163 22.3534 5.7914C21.5261 5.91216 21.4904 5.91216 21.2964 5.8229C21.1177 5.74414 21.0718 5.74414 20.8318 5.80715C20.6837 5.8439 20.4539 5.8649 20.3059 5.84915C20.1373 5.82815 19.9842 5.84915 19.8565 5.90166C19.6472 5.99616 19.208 6.33222 18.8455 6.684C18.4217 7.0935 17.9826 8.00712 17.9826 8.4744C17.9826 8.67396 17.8652 8.87868 17.4822 9.35124C17.472 9.36702 17.3597 9.26202 17.2422 9.12546L17.0176 8.87346L16.9104 9.25674C16.8491 9.46674 16.7776 9.73453 16.7419 9.85009C16.7112 9.96559 16.6806 10.0706 16.6704 10.0863C16.6602 10.0968 16.5836 10.0286 16.4968 9.9288C16.3027 9.69252 16.2874 9.72402 16.1496 10.4749C15.6032 13.4519 16.2568 15.8882 17.9673 17.2113C19.1059 18.0934 20.4998 18.5187 22.4146 18.5764C23.3388 18.6079 23.3439 18.6079 23.3439 18.7287C23.3439 18.8547 23.3183 18.86 22.8333 18.9388C21.8581 19.0858 20.7041 19.7263 19.545 20.7659L19.2591 21.0179L18.7842 20.6242C14.4237 16.9803 13.4485 10.6744 16.5019 5.91216C17.5537 4.27924 18.9885 2.95085 20.6888 2.03726C21.9653 1.34944 23.4869 0.887393 24.9319 0.740381C25.5803 0.677375 27.0764 0.719375 27.735 0.824387ZM28.0976 3.02961C28.3631 3.07687 28.8175 3.19238 29.1085 3.29214C29.6242 3.46541 30.3391 3.81194 30.3391 3.88545C30.3391 3.90645 30.2318 4.06397 30.1042 4.23723C29.6957 4.76754 29.1953 5.58137 28.8839 6.20616C28.7205 6.53694 28.5826 6.81 28.5775 6.8205C28.5724 6.82572 28.4192 6.77322 28.2354 6.705C27.6635 6.48444 27.0151 6.33744 26.1113 6.22194C25.8866 6.19566 25.8407 6.17466 25.8662 6.10116C25.8764 6.05394 26.0041 5.68113 26.147 5.27159C26.3819 4.58377 26.5658 3.81194 26.6372 3.19238L26.6679 2.9456H27.1427C27.4031 2.9456 27.832 2.98236 28.0976 3.02961ZM32.4478 5.3976C32.5244 5.50262 32.5857 5.61813 32.5857 5.65488C32.5857 5.69163 32.4581 5.91741 32.2997 6.15894C31.9066 6.7575 31.4471 7.71834 31.1867 8.47968C31.156 8.5689 31.1254 8.55318 30.9007 8.3274L30.6505 8.0754L30.7782 7.73934C31.0897 6.8835 32.0649 5.19809 32.2436 5.20334C32.2793 5.20859 32.3662 5.29259 32.4478 5.3976ZM23.5175 6.02244C23.6452 6.06966 23.6145 6.19044 23.4613 6.27444C23.3797 6.31122 23.1192 6.40572 22.8742 6.48444C22.6342 6.55794 22.4248 6.64722 22.4146 6.684C22.384 6.77322 22.241 6.69972 22.1389 6.54222C22.0214 6.35844 22.0827 6.25344 22.3534 6.15894C22.6801 6.04344 23.3694 5.96466 23.5175 6.02244ZM21.1841 6.23766C21.4087 6.34794 22.4759 7.40856 22.4759 7.51884C22.4759 7.58184 22.3942 7.61856 22.1593 7.66584C21.9806 7.69734 21.7202 7.78662 21.5772 7.86534L21.3168 8.00712L20.9288 7.81284C20.4947 7.60284 20.1986 7.40328 19.9076 7.125C19.8003 7.02 19.7084 6.936 19.7033 6.936C19.6982 6.936 19.7135 7.16706 19.7391 7.45584C19.8003 8.17512 19.7595 8.3904 19.4838 8.77368C19.2795 9.06246 19.2183 9.19374 19.2846 9.19374C19.3561 9.19374 19.7033 8.98374 19.7799 8.89968C19.9331 8.71596 20.0812 8.3694 20.1118 8.10162L20.1424 7.83912L20.4182 8.02284C20.5714 8.12262 20.7705 8.23812 20.8624 8.2749C21.0104 8.3379 21.0258 8.3694 21.0053 8.5059C20.9798 8.70018 21.0309 8.70546 21.4547 8.5899C21.6079 8.5479 21.8376 8.51118 21.9653 8.51118C22.2461 8.51118 22.6035 8.70546 22.6035 8.85246C22.6035 8.94696 22.5575 8.96274 22.241 8.98896C21.9449 9.00996 21.7814 9.06246 21.373 9.26724C21.0973 9.40374 20.7398 9.5928 20.5867 9.69252C20.3365 9.8448 20.2752 9.86058 20.0199 9.83958C19.6472 9.8028 19.5399 9.86581 19.4378 10.1914C19.3561 10.4434 19.351 10.4486 19.1927 10.4171C18.7383 10.3279 17.7784 9.80808 17.7784 9.65052C17.7784 9.5298 17.8856 9.24624 17.9367 9.24624C17.9571 9.24624 18.0132 9.30924 18.0541 9.38802L18.1256 9.53502L18.1562 9.40374C18.2737 8.82096 18.3196 8.64246 18.4473 8.2854C18.82 7.22478 19.5859 6.31122 20.1118 6.30594C20.219 6.30072 20.4335 6.26916 20.5867 6.22716C20.9594 6.13266 20.9747 6.13266 21.1841 6.23766ZM26.5862 6.642C27.3214 6.7785 27.8167 6.9675 28.8941 7.51884C29.951 8.0649 29.9867 8.15412 28.9758 7.74456C28.6643 7.61856 28.3835 7.51356 28.358 7.51356C28.2916 7.51356 28.1741 7.86012 28.215 7.92834C28.2303 7.95462 28.4192 7.99134 28.6337 8.01234C29.0881 8.0544 29.7621 8.2329 30.3391 8.4639C30.7884 8.63718 30.8497 8.72118 30.4616 8.6214C29.4404 8.35368 28.5724 8.2434 26.5351 8.12262C24.794 8.01234 24.2987 7.95984 23.9311 7.83384L23.6247 7.72884L24.3549 7.73934L25.0901 7.75512L25.2637 7.39806C25.4374 7.041 25.4374 7.041 25.6569 7.041C25.7743 7.041 26.2747 7.08828 26.7649 7.146C27.2551 7.19856 27.6635 7.24056 27.6737 7.23006C27.6993 7.20378 26.8925 6.98328 26.4586 6.89928C26.2492 6.8625 25.6569 6.81522 25.1463 6.79422C24.3957 6.768 24.2119 6.747 24.2119 6.68922C24.2119 6.6525 24.263 6.59472 24.3293 6.56844C24.4927 6.48972 26.0398 6.54744 26.5862 6.642ZM23.7524 8.40618C24.0485 8.4954 24.3804 8.5899 24.4978 8.61618C24.6664 8.65818 26.3207 8.92596 26.4483 8.93124C26.4688 8.93646 26.3921 8.98374 26.2798 9.04674C25.9582 9.21474 25.6927 9.5193 25.6927 9.7188C25.6927 9.8343 25.9122 9.76081 26.0654 9.5928C26.4994 9.11496 26.8313 9.22525 27.4286 10.0338C27.7402 10.4539 27.8065 10.5116 27.8525 10.3856C27.9086 10.2281 27.4951 9.36702 27.2755 9.17274C27.0713 8.99946 27.0968 8.99946 28.0261 9.19896C28.9707 9.39852 29.3996 9.52452 29.854 9.74502C30.5638 10.0863 30.8497 10.3961 30.8497 10.8266C30.8497 11.1154 30.8191 11.1364 30.3952 11.1364C30.1502 11.1364 30.0685 11.1627 29.9153 11.2835C29.66 11.483 29.5834 11.6405 29.6855 11.7508C29.7928 11.8558 29.9612 11.8138 30.1655 11.6353C30.3136 11.504 30.4463 11.4777 30.7986 11.4987C31.0539 11.5197 31.2428 11.7193 31.3143 12.0553C31.3654 12.2915 31.3603 12.3545 31.2837 12.5226C31.1152 12.8796 30.5791 13.1737 30.0072 13.2157C29.4659 13.2577 29.42 13.2734 29.42 13.4204C29.42 13.5254 29.4455 13.5517 29.5477 13.5517C29.8132 13.5517 29.7519 13.6987 29.2975 14.1345C28.3018 15.0953 27.5104 16.3292 27.107 17.5526C27.0866 17.6051 27.0253 17.6471 26.964 17.6471C26.8364 17.6471 26.3513 17.3898 26.1266 17.2061L25.9735 17.08L26.0807 16.9278C26.2186 16.7387 26.3105 16.723 26.673 16.8385C26.964 16.9278 26.9743 16.9278 27.0457 16.828C27.0866 16.7755 27.1223 16.7125 27.1223 16.6967C27.1223 16.681 26.964 16.6127 26.77 16.5445C26.4279 16.4237 26.4177 16.4132 26.5249 16.3397C26.6883 16.2295 27.0202 15.9039 27.0764 15.7937C27.1172 15.7254 27.0253 15.7517 26.7292 15.9039C26.3309 16.1087 26.3258 16.1087 25.5395 16.1455C24.7021 16.1875 24.457 16.156 23.9566 15.9564C23.5992 15.8147 23.0988 15.4524 22.8588 15.1688L22.675 14.9431L23.0222 14.9011C23.4664 14.8538 23.9362 14.7278 24.1302 14.6123C24.2783 14.5231 24.2834 14.5231 24.6919 14.7383C25.3097 15.0691 25.6211 15.1478 26.193 15.1111C26.5709 15.0901 26.7292 15.0533 26.9845 14.9273C27.6993 14.5808 28.2456 14.0032 28.2456 13.5937C28.2456 13.3574 28.2354 13.3574 27.7861 13.5044C27.0151 13.7564 26.4534 13.5779 25.7845 12.8691C25.3556 12.4175 25.1463 12.2758 24.937 12.302C24.8297 12.3125 24.794 12.3493 24.7838 12.4648C24.7685 12.5856 24.794 12.6223 24.937 12.6801C25.0289 12.7221 25.228 12.9111 25.3914 13.1159C25.8101 13.6409 26.6066 14.0767 27.1478 14.0767C27.2755 14.0767 27.3776 14.0977 27.3776 14.124C27.3776 14.3078 26.6117 14.6438 26.0909 14.6911C25.6365 14.7383 25.0391 14.5388 24.4264 14.145L24.1558 13.9665L23.9413 14.1555C23.6758 14.3918 23.4256 14.4653 22.8793 14.4705C22.481 14.4705 22.4146 14.4548 22.0929 14.2868C21.6896 14.0767 21.2606 13.6724 21.1024 13.3574C21.0053 13.1579 20.9645 12.9741 21.0155 12.9741C21.0258 12.9741 21.2147 13.0634 21.4343 13.1684C21.9806 13.4362 22.3023 13.4414 22.7975 13.1842C23.1601 13.0004 23.4613 12.7063 23.4358 12.5698C23.4001 12.3913 23.2622 12.3703 23.0886 12.5226C22.8231 12.7484 22.532 12.8796 22.2155 12.9059L21.9244 12.9374L21.8887 12.323C21.8683 11.9923 21.8683 11.5565 21.8836 11.3622C21.9806 10.3909 22.3329 9.43524 22.6495 9.27774C22.9558 9.13074 23.1295 9.17796 23.6043 9.5508C23.8596 9.7503 23.9056 9.7083 23.7779 9.37752C23.6809 9.10974 23.3541 8.78418 23.1397 8.73696C23.0375 8.71596 22.9865 8.67396 22.9865 8.6109C22.9865 8.4744 23.0937 8.24862 23.1601 8.24862C23.1907 8.24862 23.4562 8.32212 23.7524 8.40618ZM29.6447 8.98896C31.2786 9.20946 32.3304 9.86058 32.3304 10.6639C32.3304 11.0157 32.0802 11.4147 31.7432 11.5933C31.6207 11.6615 31.5901 11.6615 31.5696 11.6038C31.539 11.5092 31.3041 11.2677 31.2122 11.2362C31.156 11.2152 31.1662 11.1679 31.253 10.9894C31.539 10.4119 31.2632 9.96558 30.3646 9.53502C29.9153 9.31974 29.4864 9.17796 28.8073 9.00996L28.2712 8.87868L28.7562 8.90496C29.0218 8.92068 29.42 8.95746 29.6447 8.98896ZM22.1695 9.28824C22.1695 9.31452 22.0776 9.57703 21.9704 9.88159C21.6998 10.6114 21.6079 11.1942 21.6079 12.1498V12.9269L21.4955 12.8901C21.276 12.8219 21.0155 12.6643 20.8471 12.5068L20.6837 12.3493L20.6377 12.4806C20.5714 12.6591 20.5765 12.7431 20.6633 13.0424C20.8471 13.6619 21.179 14.1555 21.6793 14.5388L21.9908 14.7751L21.8019 14.7436C21.5006 14.6963 21.2555 14.5493 20.9083 14.2133C20.311 13.6409 20.1118 13.1422 20.1067 12.2233C20.1067 11.7823 20.0914 11.609 20.0455 11.609C19.8922 11.609 19.9433 11.1049 20.1322 10.7794C20.1833 10.6849 20.2292 10.5956 20.2292 10.5851C20.2292 10.5746 20.0965 10.5589 19.9382 10.5484C19.6676 10.5326 19.6421 10.5221 19.6267 10.4014C19.6165 10.3279 19.6472 10.2229 19.688 10.1651C19.7493 10.0758 19.8105 10.0601 20.1271 10.0758C20.4692 10.0863 20.5254 10.0706 20.9594 9.86059C21.2198 9.73453 21.567 9.54552 21.7355 9.44052C22.0367 9.25152 22.1695 9.20424 22.1695 9.28824ZM17.6916 9.9183C18.3145 10.4276 18.9987 10.7164 19.5706 10.7164C19.734 10.7164 19.8718 10.7374 19.8718 10.7584C19.8718 10.7794 19.8259 10.9474 19.7646 11.1259L19.6574 11.4515H19.3612C19.0089 11.4515 18.4983 11.2992 18.0081 11.0472C17.5946 10.8319 17.1401 10.5431 16.9818 10.3909L16.8695 10.2911L16.9716 9.8868C17.1146 9.28825 17.1044 9.30402 17.2474 9.49302C17.3137 9.5823 17.5129 9.77652 17.6916 9.9183ZM37.0585 11.4935C36.5837 11.714 36.5377 11.5355 36.9666 11.1312L37.2577 10.8581L37.2832 11.1154L37.3087 11.3727L37.0585 11.4935ZM36.2467 11.7928C36.2569 11.8243 36.0884 11.8768 35.8739 11.9135C35.2408 12.0133 34.8323 12.3335 34.8323 12.7221C34.8323 12.9164 35.0213 13.1579 35.1182 13.0897C35.1489 13.0687 35.2255 12.9531 35.2868 12.8324C35.5012 12.3913 35.7871 12.1393 36.1497 12.0553C36.3028 12.0238 36.3182 12.0343 36.3947 12.218C36.4663 12.3965 36.4663 12.4175 36.3896 12.4596C36.2059 12.5698 35.9455 12.8429 35.8484 13.0319C35.7208 13.2944 35.7259 13.5832 35.8688 13.8667C36.0322 14.2027 36.0884 14.187 36.119 13.7984C36.1343 13.6199 36.1854 13.3889 36.2365 13.2892C36.3335 13.0897 36.5633 12.8166 36.6296 12.8166C36.7165 12.8166 36.6705 13.3364 36.5633 13.5254C36.4663 13.6934 36.4612 13.7354 36.5173 13.9612C36.5786 14.2185 36.7216 14.4968 36.8849 14.6858C36.982 14.8013 36.982 14.8066 36.7828 15.4209C36.6705 15.7674 36.4714 16.2872 36.3386 16.576C36.1088 17.0905 36.0935 17.1115 35.9148 17.143C35.5574 17.2008 34.3575 17.1746 33.8213 17.0905C33.3823 17.0275 33.275 17.0223 33.2444 17.08C33.1627 17.2113 33.1933 17.8204 33.2954 18.0146C33.4231 18.2614 33.8264 18.4714 34.337 18.5502L34.7302 18.6132V18.8862C34.7302 19.0753 34.6996 19.196 34.6332 19.28L34.5413 19.4008L34.5055 19.2853C34.4596 19.1435 34.4443 19.1435 34.1941 19.2748C34.0817 19.3325 33.9286 19.3798 33.852 19.3798C33.6937 19.3798 33.6784 19.4218 33.7754 19.5583C33.8264 19.6318 33.898 19.6475 34.0817 19.637C34.3013 19.616 34.3115 19.6213 34.2298 19.7C34.1124 19.8156 33.6835 19.9573 33.4435 19.9573C33.0912 19.9573 33.1372 20.2514 33.4946 20.2829L33.6835 20.3039L33.5456 20.3669C33.0963 20.5664 32.0087 20.5402 31.4369 20.3196C30.2165 19.8523 29.2873 18.3454 29.3843 16.996C29.4761 15.7674 30.1144 14.5966 31.1867 13.7092C32.1874 12.8849 33.6886 12.2075 35.3429 11.8453C35.9455 11.714 36.2161 11.6983 36.2467 11.7928ZM37.324 11.9608C37.3087 12.1393 37.2934 12.1603 37.13 12.1918C36.936 12.2338 36.8747 12.1865 36.8747 11.9975C36.8747 11.9188 36.9207 11.8715 37.0432 11.8295C37.324 11.7403 37.3394 11.7508 37.324 11.9608ZM16.5325 12.0185C16.558 12.0395 16.6091 12.386 16.6448 12.7904C16.6806 13.2629 16.747 13.6934 16.8338 13.998C17.5282 16.5025 19.7544 18.0146 22.7465 18.0146H23.2979L23.2826 18.1564L23.2673 18.3034L22.5524 18.2929C19.6625 18.2614 17.5078 16.9383 16.6857 14.6858C16.4917 14.1607 16.3436 13.3784 16.313 12.6958C16.2874 12.1918 16.2976 12.0605 16.3538 12.0238C16.4406 11.966 16.461 11.966 16.5325 12.0185ZM30.4055 13.935C29.7008 14.6911 29.2719 15.4734 29.032 16.429C28.6949 17.7626 28.9911 19.0333 29.8387 19.9206L30.1808 20.2776L29.7774 20.2409L29.3792 20.2094L29.1647 20.4089L28.9553 20.6137L27.975 20.1149C27.4338 19.8418 26.7751 19.5373 26.5096 19.4375C26.2441 19.3378 25.9633 19.196 25.8815 19.1225C25.5139 18.776 25.1259 17.9464 25.0493 17.3426L25.0135 17.0643L25.4935 17.3898C26.1879 17.8571 26.7343 18.1196 27.0151 18.1196L27.25 18.1144L27.3929 17.7836C27.638 17.2271 28.2712 16.1665 28.7665 15.4839C29.3026 14.7541 30.4106 13.5727 30.5995 13.5359C30.6659 13.5254 30.7424 13.5097 30.768 13.5044C30.7935 13.5044 30.6301 13.6934 30.4055 13.935ZM23.977 16.6967C23.8749 16.933 23.7983 17.1273 23.8085 17.1378C24.1966 17.3793 24.7174 17.7731 24.697 17.8046C24.6817 17.8309 24.4978 17.9516 24.2885 18.0724C24.0791 18.1984 23.9056 18.3139 23.9056 18.3297C23.9056 18.3507 23.9515 18.4084 24.0128 18.4662C24.074 18.5187 24.1507 18.629 24.1915 18.7077C24.263 18.8495 24.263 18.8547 24.12 18.8547C23.9719 18.8547 23.7677 18.6762 23.6554 18.4452C23.5992 18.3402 23.6196 18.2981 23.8647 18.0356L24.1353 17.7416L23.9821 17.6314C23.6809 17.4056 23.4971 17.2166 23.4971 17.1273C23.4971 16.9383 24.1098 16.093 24.1507 16.2242C24.1609 16.2505 24.0791 16.4657 23.977 16.6967ZM34.9447 17.5106C35.4451 17.5106 35.8535 17.5264 35.8535 17.5369C35.8535 17.5736 35.1898 18.5869 35.1438 18.6132C35.1182 18.629 35.0723 18.5764 35.0366 18.4924C34.9651 18.3139 34.817 18.2456 34.4086 18.2036C34.0919 18.1669 33.7907 18.0619 33.6529 17.9306C33.5609 17.8466 33.4792 17.5211 33.5252 17.4423C33.5405 17.4161 33.6631 17.4213 33.7958 17.4476C33.9337 17.4791 34.4494 17.5054 34.9447 17.5106ZM24.6766 19.3273C25.6671 19.4428 26.627 19.7893 28.0312 20.5402L28.9196 21.0127L29.1953 20.7974C29.3485 20.6819 29.5068 20.5717 29.5477 20.5559C29.5885 20.5402 29.803 20.6294 30.0174 20.7607C30.7016 21.1649 31.3705 21.4905 31.4471 21.4537C31.5083 21.4327 31.5185 21.375 31.493 21.1859L31.4624 20.9444L31.6309 20.9759C31.7177 20.9969 31.9985 21.0232 32.2487 21.0442L32.7031 21.0757L32.2181 21.396C31.636 21.7793 30.8548 22.1888 30.191 22.4513C29.7263 22.6351 29.7059 22.6403 29.6191 22.5458C29.5681 22.4933 29.4812 22.3201 29.4251 22.1626C29.3383 21.9106 29.323 21.8948 29.323 22.0366C29.3179 22.1258 29.3536 22.3148 29.3945 22.4566C29.4353 22.5983 29.471 22.7191 29.471 22.7243C29.471 22.7559 28.0618 23.0709 27.6074 23.1392C26.8313 23.2599 25.2484 23.2599 24.4468 23.1392C23.252 22.9606 22.0214 22.5773 20.9696 22.0523C20.4233 21.7793 19.6165 21.2857 19.6165 21.2279C19.6165 21.1807 20.4743 20.5559 20.8777 20.3039C21.6998 19.7998 22.6648 19.4323 23.4205 19.3325C23.926 19.2695 24.1711 19.2695 24.6766 19.3273Z" fill="#333333"/>
<path d="M20.6532 6.65247C20.6123 6.76269 20.9953 7.16175 21.3271 7.36125C21.4701 7.44532 21.5978 7.51353 21.6233 7.51353C21.6437 7.51353 21.4957 7.30353 21.2914 7.04625C20.9187 6.57369 20.7298 6.45819 20.6532 6.65247Z" fill="#333333"/>
<path d="M29.4966 10.1544C29.3025 10.2279 29.1851 10.3014 29.1749 10.3644C29.1494 10.5062 29.3025 10.5272 29.6293 10.4274C29.9816 10.3172 30.0786 10.2279 29.9816 10.1124C29.9 10.0127 29.8693 10.0179 29.4966 10.1544Z" fill="#333333"/>
<path d="M23.0426 10.2908C22.961 10.4378 22.9712 10.5323 23.0784 10.6268C23.206 10.7423 23.3081 10.7371 23.4205 10.6111C23.4971 10.5271 23.5073 10.4746 23.4664 10.3591C23.4052 10.1753 23.1244 10.1281 23.0426 10.2908Z" fill="#333333"/>
<path d="M26.1266 10.3799C26.0296 10.4849 26.045 10.7107 26.1573 10.7842C26.2798 10.863 26.4943 10.7894 26.5249 10.6529C26.5658 10.5059 26.4381 10.2959 26.3054 10.2959C26.2543 10.2959 26.1726 10.3326 26.1266 10.3799Z" fill="#333333"/>
<path d="M29.8796 10.601C29.7417 10.6587 29.6447 10.7322 29.6345 10.79C29.5987 10.9632 29.7008 11 29.9663 10.9002C30.2676 10.7847 30.3544 10.7112 30.3084 10.5957C30.2676 10.4855 30.1757 10.4855 29.8796 10.601Z" fill="#333333"/>
<path d="M23.8443 11.3204C23.6707 11.4201 23.4767 11.8402 23.4818 12.0974C23.5022 12.507 23.7371 12.6908 24.2017 12.6435C24.503 12.612 24.6204 12.5385 24.6204 12.3915C24.6204 12.3022 24.5796 12.2917 24.2987 12.2917C24.115 12.2917 23.9515 12.2654 23.9158 12.2287C23.7932 12.1027 23.8852 11.7247 24.0792 11.5619C24.1252 11.5199 24.1609 11.4359 24.1609 11.3676C24.1609 11.2206 24.0536 11.2049 23.8443 11.3204Z" fill="#333333"/>
<path d="M17.0636 10.0811C16.9972 10.2124 17.0432 10.3331 17.1708 10.3751C17.3648 10.4381 17.5027 10.1913 17.3597 10.0443C17.2678 9.9498 17.1249 9.9708 17.0636 10.0811Z" fill="#333333"/>
<path d="M31.5135 14.8115C31.4727 14.8377 31.4114 14.9375 31.3808 15.032C31.3501 15.1265 31.2889 15.2105 31.2429 15.221C31.1459 15.2421 31.1306 15.1213 31.2072 14.9638C31.248 14.885 31.2429 14.8535 31.1868 14.8325C31.0693 14.7852 30.9008 14.9112 30.8702 15.0635C30.8497 15.179 30.7681 15.2473 30.5077 15.3838C30.0889 15.6096 29.9205 15.8511 29.9205 16.2134C29.9256 16.6702 30.0736 16.9275 30.3851 17.0167C30.6762 17.1007 30.6966 17.127 30.7272 17.5575L30.763 17.9618H30.6098C30.4515 17.9618 30.2319 17.82 30.0634 17.6048C30.0073 17.5312 29.9511 17.4997 29.9205 17.5312C29.8592 17.5942 29.9562 18.2034 30.0583 18.3609C30.14 18.4921 30.4107 18.5919 30.6864 18.5919C30.814 18.5919 30.8651 18.6181 30.8957 18.7179C30.9774 18.9384 31.2582 18.9436 31.2174 18.7231C31.1868 18.5499 31.2889 18.5551 31.4472 18.7284C31.5901 18.8859 31.7484 18.8754 31.7331 18.7074C31.7229 18.6076 31.7433 18.5919 31.8862 18.5919C32.0854 18.5919 32.2335 18.4501 32.356 18.1613C32.4735 17.862 32.4531 17.5417 32.2896 17.2215C32.1773 16.9957 32.0956 16.917 31.8301 16.7647C31.488 16.5704 31.4676 16.5337 31.5442 16.0611L31.5748 15.8668L31.825 15.9981C31.9629 16.0663 32.1058 16.1714 32.1364 16.2291C32.2488 16.4076 32.2794 16.3446 32.2743 15.9508C32.2641 15.3576 32.2437 15.3208 31.9271 15.2683C31.6667 15.221 31.6565 15.2158 31.6872 15.0845C31.7484 14.8272 31.7433 14.7905 31.6667 14.7747C31.6258 14.7642 31.5544 14.78 31.5135 14.8115ZM31.2225 16.1609C31.1868 16.5127 31.1868 16.5127 31.0795 16.4759C30.9315 16.4129 30.9978 15.8616 31.1561 15.8616C31.2378 15.8616 31.248 15.8983 31.2225 16.1609ZM30.6813 16.2396C30.666 16.3446 30.6609 16.3499 30.6251 16.2659C30.5995 16.2186 30.5995 16.1136 30.6251 16.0296C30.6609 15.8983 30.666 15.8931 30.6813 16.0033C30.6966 16.0716 30.6966 16.1766 30.6813 16.2396ZM31.2327 17.3422C31.2429 17.379 31.2582 17.5365 31.2736 17.6835C31.294 17.9461 31.2889 17.9618 31.1766 17.9618C31.0693 17.9618 31.054 17.9356 31.054 17.7833C31.054 17.6888 31.0387 17.5312 31.0234 17.442C30.9927 17.3002 31.0029 17.2792 31.0999 17.2792C31.1612 17.2792 31.2174 17.3107 31.2327 17.3422ZM31.7484 17.568C31.8199 17.6783 31.825 17.7308 31.779 17.8305C31.6769 18.0616 31.5646 17.9933 31.5646 17.6993C31.5646 17.4105 31.6207 17.3685 31.7484 17.568Z" fill="#333333"/>
<path d="M35.777 16.5283C35.7617 16.6385 35.7106 16.7803 35.6748 16.838C35.5931 16.964 35.6187 17.0165 35.7566 17.0165C35.9505 17.0165 36.1037 16.4338 35.925 16.3655C35.8791 16.3498 35.8382 16.334 35.828 16.334C35.8229 16.334 35.7974 16.4233 35.777 16.5283Z" fill="#333333"/>
<path d="M33.2801 18.9962C33.1116 19.0697 32.8563 19.1379 32.7032 19.1537C32.4632 19.1799 32.4325 19.1957 32.4325 19.3059C32.4325 19.3899 32.4683 19.4319 32.5755 19.4529C32.7593 19.4949 33.1984 19.4057 33.4537 19.2744C33.6222 19.1852 33.6579 19.1432 33.6579 19.0119C33.6579 18.8282 33.6682 18.8282 33.2801 18.9962Z" fill="#333333"/>
<path d="M31.4573 19.6215C31.3092 19.8053 31.6462 19.9996 32.1364 20.0048C32.4632 20.0101 32.6368 19.9366 32.6368 19.7895C32.6368 19.674 32.6215 19.6688 32.1925 19.6688C31.9424 19.6688 31.6973 19.6373 31.636 19.6005C31.5441 19.5533 31.5135 19.5533 31.4573 19.6215Z" fill="#333333"/>
<path d="M27.5307 18.3508C27.3878 18.5346 27.5869 18.8391 27.7758 18.7184C27.9546 18.6028 27.8881 18.2773 27.6839 18.2773C27.6328 18.2773 27.5665 18.3141 27.5307 18.3508Z" fill="#333333"/>
<path d="M28.1538 19.0232C28.067 19.1125 28.0772 19.2543 28.1742 19.3488C28.2866 19.4696 28.3836 19.4538 28.4755 19.3068C28.5419 19.207 28.547 19.1545 28.501 19.0705C28.4397 18.9497 28.2508 18.9235 28.1538 19.0232Z" fill="#333333"/>
<path d="M28.7563 19.6106C28.6134 19.7944 28.8125 20.0989 29.0014 19.9782C29.1801 19.8626 29.1138 19.5371 28.9095 19.5371C28.8585 19.5371 28.792 19.5738 28.7563 19.6106Z" fill="#333333"/>
</g>
<path d="M46.0424 8.19245H48.5372C48.9764 8.19245 49.3724 8.23205 49.7252 8.31125C50.078 8.39045 50.3804 8.52005 50.6324 8.70005C50.8844 8.88005 51.0788 9.11045 51.2156 9.39125C51.3524 9.67205 51.4208 10.0104 51.4208 10.4064C51.4208 10.8312 51.3416 11.1876 51.1832 11.4756C51.0248 11.7636 50.8088 11.9976 50.5352 12.1776C50.2688 12.3504 49.9556 12.4764 49.5956 12.5556C49.2356 12.6348 48.854 12.6744 48.4508 12.6744H47.4032V15.8388H46.0424V8.19245ZM48.3536 11.5296C48.5768 11.5296 48.7892 11.5152 48.9908 11.4864C49.1924 11.4504 49.3724 11.3928 49.5308 11.3136C49.6892 11.2272 49.8152 11.112 49.9088 10.968C50.0024 10.824 50.0492 10.6368 50.0492 10.4064C50.0492 10.1832 50.0024 10.0032 49.9088 9.86645C49.8152 9.72245 49.6892 9.61085 49.5308 9.53165C49.3796 9.45245 49.2032 9.40205 49.0016 9.38045C48.8072 9.35165 48.6056 9.33725 48.3968 9.33725H47.4032V11.5296H48.3536ZM54.3884 8.19245H55.5656L58.8596 15.8388H57.3044L56.5916 14.0892H53.276L52.5848 15.8388H51.062L54.3884 8.19245ZM56.1164 12.9228L54.9392 9.81245L53.7404 12.9228H56.1164ZM60.8196 12.5232L57.9468 8.19245H59.61L61.5324 11.4108L63.4764 8.19245H65.0532L62.1804 12.5232V15.8388H60.8196V12.5232ZM65.6912 8.19245H68.186C68.6252 8.19245 69.0212 8.23205 69.374 8.31125C69.7268 8.39045 70.0292 8.52005 70.2812 8.70005C70.5332 8.88005 70.7276 9.11045 70.8644 9.39125C71.0012 9.67205 71.0696 10.0104 71.0696 10.4064C71.0696 10.8312 70.9904 11.1876 70.832 11.4756C70.6736 11.7636 70.4576 11.9976 70.184 12.1776C69.9176 12.3504 69.6044 12.4764 69.2444 12.5556C68.8844 12.6348 68.5028 12.6744 68.0996 12.6744H67.052V15.8388H65.6912V8.19245ZM68.0024 11.5296C68.2256 11.5296 68.438 11.5152 68.6396 11.4864C68.8412 11.4504 69.0212 11.3928 69.1796 11.3136C69.338 11.2272 69.464 11.112 69.5576 10.968C69.6512 10.824 69.698 10.6368 69.698 10.4064C69.698 10.1832 69.6512 10.0032 69.5576 9.86645C69.464 9.72245 69.338 9.61085 69.1796 9.53165C69.0284 9.45245 68.852 9.40205 68.6504 9.38045C68.456 9.35165 68.2544 9.33725 68.0456 9.33725H67.052V11.5296H68.0024ZM74.0372 8.19245H75.2144L78.5084 15.8388H76.9532L76.2404 14.0892H72.9248L72.2336 15.8388H70.7108L74.0372 8.19245ZM75.7652 12.9228L74.588 9.81245L73.3892 12.9228H75.7652ZM79.265 8.19245H80.6258V14.6292H83.8766V15.8388H79.265V8.19245ZM85.7 12.5232L82.8272 8.19245H84.4904L86.4128 11.4108L88.3568 8.19245H89.9336L87.0608 12.5232V15.8388H85.7V12.5232ZM95.7842 9.98525C95.5826 9.71165 95.3198 9.51365 94.9958 9.39125C94.6717 9.26165 94.3549 9.19685 94.0453 9.19685C93.6493 9.19685 93.2893 9.26885 92.9653 9.41285C92.6413 9.55685 92.3606 9.75485 92.123 10.0068C91.8926 10.2588 91.7126 10.554 91.583 10.8924C91.4605 11.2308 91.3993 11.598 91.3993 11.994C91.3993 12.4116 91.4605 12.7932 91.583 13.1388C91.7053 13.4844 91.8782 13.7832 92.1014 14.0352C92.3318 14.28 92.6054 14.4708 92.9222 14.6076C93.239 14.7444 93.5954 14.8128 93.9914 14.8128C94.4018 14.8128 94.7653 14.7336 95.0821 14.5752C95.3989 14.4096 95.6545 14.1936 95.8489 13.9272L96.9398 14.694C96.6013 15.1188 96.1873 15.45 95.6977 15.6876C95.2081 15.918 94.6357 16.0332 93.9805 16.0332C93.3829 16.0332 92.8322 15.936 92.3282 15.7416C91.8314 15.54 91.403 15.2628 91.0429 14.91C90.6829 14.55 90.4022 14.1252 90.2006 13.6356C89.999 13.1388 89.8982 12.5916 89.8982 11.994C89.8982 11.382 90.0026 10.8312 90.2114 10.3416C90.4274 9.84485 90.719 9.42365 91.0862 9.07805C91.4606 8.73245 91.8998 8.46605 92.4038 8.27885C92.9078 8.09165 93.4549 7.99805 94.0453 7.99805C94.2901 7.99805 94.5457 8.02325 94.8122 8.07365C95.0786 8.11685 95.3341 8.18885 95.5789 8.28965C95.8237 8.38325 96.0542 8.50205 96.2702 8.64605C96.4862 8.79005 96.6698 8.96285 96.821 9.16445L95.7842 9.98525ZM97.7851 8.19245H99.146V11.2812H102.721V8.19245H104.082V15.8388H102.721V12.4476H99.146V15.8388H97.7851V8.19245Z" fill="white"/>
</svg>
