<svg width="120" height="24" viewBox="0 0 120 24" fill="none" xmlns="http://www.w3.org/2000/svg">
<g clip-path="url(#clip0_2157_793)">
<path d="M53.2527 4.50967C54.113 4.50391 54.9734 4.50967 55.8338 4.50391C56.4938 4.50967 57.1891 4.69411 57.6605 5.17249C58.1202 5.6163 58.2734 6.29065 58.1909 6.90736C58.1261 7.49526 57.7666 8.04281 57.2363 8.331C56.5821 8.7114 55.8043 8.67682 55.0677 8.67682C54.9321 8.67682 54.8202 8.78633 54.8202 8.91889C54.8202 9.24166 54.8202 9.57019 54.8202 9.89295C54.8202 10.0255 54.7141 10.135 54.5786 10.135C54.2191 10.135 53.8597 10.135 53.5002 10.135C53.3647 10.135 53.2586 10.0255 53.2586 9.89295C53.2586 8.08892 53.2586 6.29641 53.2527 4.50967ZM54.8202 6.01976C54.8202 6.40016 54.8202 6.78056 54.8202 7.16673C54.8202 7.29929 54.9321 7.40304 55.0677 7.40304C55.3034 7.40304 55.545 7.4088 55.7807 7.39728C56.0459 7.38575 56.3347 7.29929 56.4938 7.06875C56.7648 6.67105 56.647 6.01399 56.152 5.84108C55.8043 5.73157 55.433 5.76615 55.0677 5.77192C54.9263 5.77768 54.8202 5.88719 54.8202 6.01976Z" fill="white"/>
<path d="M62.2747 10.1238C62.2806 8.33131 62.2688 6.5388 62.2806 4.74629C62.2806 4.61373 62.3925 4.50422 62.5281 4.50998C63.3236 4.51575 64.1191 4.50998 64.9088 4.50998C65.5629 4.52727 66.2523 4.71748 66.7061 5.20163C67.1716 5.68001 67.3013 6.38895 67.1893 7.02295C67.1068 7.52439 66.8004 7.9682 66.3761 8.24485C66.2641 8.31978 66.2288 8.46964 66.3054 8.57915C66.5706 8.97108 66.8298 9.36301 67.095 9.75494C67.2011 9.91632 67.0832 10.1296 66.8888 10.1238C66.5234 10.1238 66.1639 10.1238 65.7986 10.1238C65.7161 10.1238 65.6395 10.0835 65.5923 10.0201C65.3036 9.59932 65.0266 9.17281 64.7438 8.74629C64.6966 8.67713 64.62 8.63678 64.5375 8.63678C64.3902 8.63678 64.2429 8.63678 64.0897 8.63678C63.9541 8.63678 63.8422 8.74629 63.8422 8.87886C63.8422 9.21315 63.8422 9.54745 63.8422 9.88174C63.8422 10.0143 63.7361 10.1238 63.6006 10.1238C63.1527 10.1238 62.7107 10.1238 62.2747 10.1238ZM63.8363 6.02007C63.8363 6.40047 63.8363 6.78088 63.8363 7.16128C63.8363 7.29384 63.9423 7.39759 64.0779 7.40336C64.4609 7.40912 64.8498 7.44946 65.2152 7.31114C65.8222 7.0633 65.7868 6.05465 65.1622 5.84716C64.8145 5.73765 64.4432 5.77799 64.0838 5.78376C63.9423 5.77799 63.8363 5.8875 63.8363 6.02007Z" fill="white"/>
<path d="M71.5912 4.50432C71.9507 4.49856 72.3101 4.49856 72.6696 4.50432C72.8051 4.50432 72.9112 4.61383 72.9112 4.7464C72.9053 6.45821 72.9112 8.17003 72.9112 9.88184C72.9112 10.0144 72.7992 10.1239 72.6696 10.1239C72.3101 10.1239 71.9507 10.1239 71.5971 10.1239C71.4616 10.1239 71.3496 10.0144 71.3496 9.88184C71.3496 8.17003 71.3555 6.45821 71.3496 4.7464C71.3437 4.61383 71.4557 4.50432 71.5912 4.50432Z" fill="white"/>
<path d="M77.3015 9.88204C77.3074 8.17022 77.2956 6.45264 77.3074 4.74083C77.3074 4.60826 77.4194 4.49875 77.5608 4.50451C77.8554 4.51028 78.156 4.50451 78.4506 4.50451C78.539 4.50451 78.6215 4.55062 78.6628 4.62555C79.2049 5.54198 79.7471 6.45264 80.2892 7.3633C80.2892 7.3633 80.2892 7.3633 80.2892 7.36907C80.3835 7.53045 80.6251 7.53045 80.7194 7.36907C81.2438 6.4584 81.7801 5.54774 82.2987 4.63132C82.3399 4.55639 82.4224 4.51028 82.5049 4.50451C82.8054 4.49875 83.1119 4.50451 83.4124 4.50451C83.5479 4.50451 83.6599 4.61402 83.6599 4.74659C83.654 5.50163 83.6835 6.25668 83.6776 7.01172C83.6776 7.96849 83.6717 8.92526 83.6776 9.88204C83.6776 10.0146 83.5715 10.1241 83.436 10.1241C83.1178 10.1299 82.7995 10.1241 82.4872 10.1241C82.3517 10.1241 82.2456 10.0204 82.2397 9.89356C82.2221 9.28838 82.2279 8.68319 82.2338 8.078C82.2338 7.83016 81.8979 7.74371 81.7742 7.95696C81.4796 8.4584 81.1967 8.95985 80.9021 9.45552C80.8608 9.53045 80.7783 9.57656 80.6899 9.57656C80.5485 9.57656 80.4071 9.57656 80.2656 9.57656C80.1772 9.57656 80.1006 9.53045 80.0535 9.45552C79.7647 8.97714 79.4878 8.49875 79.199 8.02036C79.0694 7.81287 78.7394 7.89933 78.7394 8.1414C78.7394 8.71777 78.7394 9.2999 78.7394 9.87627C78.7394 10.0088 78.6274 10.1183 78.4919 10.1183C78.1737 10.1183 77.8554 10.1183 77.5372 10.1183C77.4076 10.1241 77.3015 10.0146 77.3015 9.88204Z" fill="white"/>
<path d="M88.2681 4.51037C89.5409 4.50461 90.8079 4.51037 92.0807 4.51037C92.2163 4.51037 92.3282 4.61988 92.3282 4.75245V5.51326C92.3282 5.64582 92.2163 5.75533 92.0807 5.75533C91.3265 5.75533 90.5722 5.74957 89.8179 5.75533C89.6823 5.75533 89.5763 5.86484 89.5763 5.99741C89.5763 6.14726 89.5763 6.30288 89.5763 6.45274C89.5763 6.5853 89.6882 6.68905 89.8238 6.68905C90.472 6.68328 91.1143 6.68905 91.7625 6.68905C91.8981 6.68905 92.01 6.79856 92.01 6.93112C92.01 7.16743 92.01 7.40374 92.01 7.64582C92.01 7.77838 91.904 7.88789 91.7684 7.88789C91.1202 7.88789 90.472 7.88789 89.8297 7.88789C89.6941 7.88789 89.5822 7.9974 89.5822 8.12997V8.66023C89.5822 8.79279 89.6941 8.9023 89.8297 8.9023C90.6193 8.9023 91.4031 8.90807 92.1927 8.9023C92.3282 8.9023 92.4402 9.00605 92.4402 9.13862C92.4402 9.39222 92.4402 9.64582 92.4402 9.89942C92.4402 10.032 92.3282 10.1415 92.1927 10.1415C90.8904 10.1415 89.5822 10.1415 88.2799 10.1415C88.1443 10.1415 88.0323 10.032 88.0323 9.89942C88.0323 8.18761 88.0382 6.47579 88.0323 4.76398C88.0206 4.61412 88.1325 4.51037 88.2681 4.51037Z" fill="white"/>
<path d="M62.251 14.5C62.6635 14.5058 63.0701 14.5 63.4826 14.5058C63.9069 15.2378 64.3429 15.9697 64.7731 16.7017C64.832 16.6902 64.8497 16.621 64.8792 16.5807C65.2799 15.889 65.6924 15.2032 66.0872 14.5115C66.4703 14.5 66.8474 14.5115 67.2304 14.5058C66.5999 15.6066 65.934 16.6844 65.3153 17.7911C65.3035 18.379 65.3094 18.9669 65.3153 19.5548C64.9322 19.5605 64.5433 19.5548 64.1603 19.5605C64.1603 18.9899 64.1603 18.4193 64.1603 17.8487C64.1662 17.7219 64.0719 17.6239 64.0129 17.5202C63.4237 16.5 62.8285 15.5029 62.251 14.5Z" fill="white"/>
<path d="M67.6018 14.5058C67.9142 14.5115 68.2265 14.5115 68.5388 14.5058C69.1576 15.5432 69.7704 16.5865 70.3774 17.6297C70.9902 16.5922 71.5854 15.549 72.1924 14.5058C72.5047 14.5058 72.8229 14.5115 73.1352 14.5C73.1588 15.6124 73.1234 16.7305 73.1529 17.8429C73.1529 18.4135 73.1529 18.9841 73.1529 19.5548C72.7934 19.5548 72.4281 19.5548 72.0686 19.5548C72.0627 18.5634 72.0804 17.5663 72.0568 16.5749C71.5736 17.3876 71.1022 18.2003 70.6367 19.0187C70.4599 19.0245 70.2772 19.0245 70.1004 19.0245C69.6231 18.2291 69.1576 17.4222 68.6684 16.6268C68.6684 17.6009 68.6684 18.5807 68.6684 19.5548C68.309 19.5548 67.9554 19.5548 67.5959 19.5548C67.6018 17.8775 67.5901 16.1888 67.6018 14.5058Z" fill="white"/>
<path d="M74.3198 14.5026C75.5632 14.4968 76.8125 14.5026 78.0559 14.5026C78.05 14.8196 78.0618 15.1366 78.05 15.4478C77.1896 15.4363 76.3234 15.4478 75.463 15.442C75.4571 15.7994 75.4689 16.1625 75.4571 16.5199C76.2173 16.5314 76.9834 16.5314 77.7436 16.5199C77.7671 16.8253 77.7436 17.1308 77.7554 17.442C76.9893 17.4536 76.2291 17.442 75.463 17.4478C75.463 17.8282 75.4689 18.2144 75.4571 18.5948C76.3529 18.6063 77.2486 18.5948 78.1502 18.6005C78.1502 18.9175 78.1502 19.2288 78.1502 19.5458C76.8773 19.5458 75.5986 19.5458 74.3257 19.5458C74.3198 17.8686 74.3257 16.1856 74.3198 14.5026Z" fill="white"/>
<path d="M79.0398 14.5C79.3521 14.5058 79.6645 14.5058 79.9768 14.5C80.8018 15.5086 81.5973 16.5346 82.4223 17.5432C82.4282 16.5288 82.4223 15.5202 82.4223 14.5058C82.7995 14.5058 83.1825 14.5058 83.5596 14.5058C83.5655 16.1888 83.5597 17.8718 83.5655 19.549C83.2414 19.5548 82.9232 19.5548 82.5991 19.549C81.7918 18.5461 80.9963 17.5259 80.1713 16.5403C80.1713 17.5432 80.1713 18.5519 80.1713 19.5548C79.7941 19.5548 79.4111 19.5548 79.0339 19.5548C79.0398 17.8718 79.028 16.183 79.0398 14.5Z" fill="white"/>
<path d="M84.196 14.5014C85.6339 14.5014 87.0718 14.4957 88.5096 14.5072V14.513C88.4802 14.83 88.5037 15.147 88.4978 15.4582C87.9734 15.4582 87.4489 15.4582 86.9244 15.4582C86.9244 16.8242 86.9244 18.1844 86.9244 19.5504C86.5414 19.5504 86.1584 19.5504 85.7753 19.5504C85.7753 18.1902 85.7753 16.8242 85.7753 15.4582C85.2509 15.4582 84.7264 15.4582 84.2019 15.4582C84.196 15.1412 84.196 14.8184 84.196 14.5014Z" fill="white"/>
<path d="M52.9876 14.5C53.7301 14.5 54.4726 14.5 55.2092 14.5C55.7808 14.5115 56.3937 14.6729 56.7944 15.0994C57.1362 15.4337 57.2776 15.9236 57.2599 16.3905C57.2599 16.8862 57.0478 17.3876 56.6529 17.7046C56.2522 18.0274 55.7219 18.1542 55.2092 18.1657C54.8497 18.1657 54.4962 18.1657 54.1367 18.1657C54.1308 18.6268 54.1308 19.0879 54.1367 19.549C53.7537 19.5548 53.3706 19.549 52.9817 19.549C52.9876 17.866 52.9876 16.183 52.9876 14.5ZM54.1367 15.4568C54.1367 16.0389 54.1367 16.621 54.1367 17.2032C54.4608 17.1974 54.779 17.2089 55.1031 17.1974C55.3742 17.1859 55.6688 17.1282 55.8692 16.9323C56.1285 16.6671 56.152 16.2406 56.0047 15.9121C55.881 15.6527 55.5981 15.5086 55.3212 15.4741C54.9322 15.4395 54.5374 15.4625 54.1367 15.4568Z" fill="white"/>
<path d="M57.2068 19.5476C57.9316 17.8646 58.6741 16.1873 59.3989 14.5043C59.782 14.4986 60.165 14.4986 60.548 14.5043C61.2729 16.1873 62.0154 17.8646 62.7461 19.5476C62.3395 19.5476 61.9329 19.5533 61.5263 19.5418C61.3907 19.1844 61.2375 18.8271 61.0961 18.4697C60.3359 18.4697 59.5816 18.4697 58.8273 18.4697C58.68 18.8271 58.5386 19.1844 58.3913 19.5418C57.9964 19.5476 57.6016 19.5476 57.2068 19.5476ZM59.1927 17.5764C59.7054 17.5764 60.218 17.5764 60.7366 17.5764C60.4832 16.9424 60.2239 16.3084 59.9646 15.6686C59.7054 16.3084 59.452 16.9424 59.1927 17.5764Z" fill="white"/>
<path d="M90.7961 19.5548C90.4602 19.5548 90.1714 19.5202 89.9357 19.451C89.6941 19.3818 89.4996 19.2839 89.3464 19.1571C89.1932 19.0303 89.0754 18.8746 88.9987 18.6902C88.9221 18.5058 88.8809 18.304 88.875 18.0793H89.9121C89.9239 18.2695 89.9887 18.4193 90.1184 18.5288C90.248 18.6383 90.472 18.6902 90.7961 18.6902C91.1202 18.6902 91.35 18.6383 91.4796 18.5403C91.6093 18.4424 91.68 18.3098 91.68 18.1484C91.68 18.0562 91.6623 17.9697 91.627 17.9006C91.5916 17.8256 91.5327 17.7622 91.4502 17.7046C91.3618 17.647 91.2498 17.5951 91.1025 17.5432C90.9611 17.4914 90.7784 17.4395 90.5545 17.3876C90.2834 17.3242 90.0536 17.2435 89.8591 17.1571C89.6646 17.0706 89.5055 16.9669 89.3759 16.8516C89.2463 16.7363 89.152 16.598 89.0871 16.4424C89.0223 16.2867 88.9929 16.1023 88.9929 15.889C88.9929 15.6816 89.0282 15.4971 89.0989 15.3242C89.1696 15.1571 89.2816 15.013 89.4289 14.8862C89.5763 14.7651 89.7648 14.6671 89.9888 14.6037C90.2127 14.5346 90.4779 14.5 90.7843 14.5C91.3971 14.5 91.8509 14.6326 92.1396 14.8919C92.4284 15.1571 92.5816 15.5086 92.5875 15.9524H91.5621C91.5504 15.768 91.4914 15.6239 91.3736 15.5202C91.2557 15.4164 91.0612 15.3646 90.7902 15.3646C90.5191 15.3646 90.3188 15.4164 90.2009 15.5144C90.083 15.6124 90.0241 15.7392 90.0241 15.889C90.0241 15.9755 90.0418 16.0562 90.0771 16.1196C90.1125 16.183 90.1714 16.2464 90.2539 16.2925C90.3364 16.3444 90.4425 16.3905 90.578 16.4366C90.7136 16.4827 90.8786 16.5288 91.0789 16.5749C91.3677 16.6441 91.6093 16.7248 91.8155 16.817C92.0218 16.9092 92.1868 17.013 92.3164 17.134C92.4461 17.255 92.5463 17.3991 92.6052 17.5605C92.67 17.7219 92.6995 17.9179 92.6995 18.1369C92.6995 18.3501 92.6641 18.5403 92.5875 18.7075C92.5109 18.8804 92.3989 19.0245 92.2398 19.1513C92.0866 19.2781 91.8863 19.3703 91.6446 19.4395C91.4089 19.5259 91.1261 19.5548 90.7961 19.5548Z" fill="white"/>
<path d="M34.3259 2.3848C36.328 1.79501 38.5094 1.89331 40.4709 2.61031C42.282 3.28106 43.8964 4.478 45.0478 6.02765C46.3729 7.78548 47.0788 10.0001 47.0383 12.1974C47.0383 12.4113 47.0498 12.631 46.9978 12.845C46.8589 14.5681 46.2456 16.2392 45.2677 17.6617C43.6591 20.0093 41.0032 21.6225 38.168 21.9232C37.896 21.929 37.6299 22.0273 37.3579 21.9926C37.0686 21.9579 36.7793 22.0157 36.49 21.9926C36.1139 21.9579 35.7378 21.8538 35.3617 21.8654C35.3617 21.8596 35.3617 21.8423 35.3617 21.8307C36.5073 21.8538 37.6646 21.7382 38.7582 21.3681C39.8171 21.0212 40.8007 20.4429 41.6224 19.6912C42.5655 18.8123 43.2888 17.7021 43.6996 16.4821C43.8385 16.0889 43.9369 15.6841 44.0237 15.2793C44.1683 14.3368 44.2435 13.377 44.0931 12.4345C43.9253 11.2953 43.4508 10.2083 42.7565 9.28888C41.8712 8.10928 40.523 7.23037 39.0359 7.07425C38.5499 7.07425 38.0581 7.02799 37.5894 7.1552C36.4668 7.39806 35.4543 8.04568 34.6731 8.87255C34.2507 9.26575 33.9498 9.76302 33.5448 10.1678C32.9083 10.8212 32.0867 11.3416 31.1667 11.4746C30.7616 11.4804 30.3334 11.5324 29.9458 11.3879C29.2109 11.1797 28.5802 10.6188 28.2793 9.91336C28.0247 9.32935 27.9553 8.66439 28.1057 8.04568C28.3198 6.90657 29.0315 5.94092 29.8069 5.11405C31.0336 3.8246 32.6074 2.86473 34.3259 2.3848Z" fill="#FF9E00"/>
<path d="M37.2883 10.0435C37.9595 9.64448 38.7753 9.36115 39.5622 9.54618C40.2682 9.69652 40.8584 10.188 41.2345 10.7894C41.7957 11.6799 41.9982 12.7554 41.952 13.7962C41.8652 15.6234 40.9914 17.387 39.6259 18.6071C38.4455 19.6537 36.8774 20.1509 35.3267 20.2839C34.7481 20.2897 34.1637 20.3244 33.5909 20.2261C31.9649 20.0295 30.3737 19.3356 29.2281 18.1503C28.337 17.1846 27.7873 15.953 27.417 14.6982C27.1392 13.7094 27.0293 12.6744 27.0409 11.6452C27.0987 11.252 27.0814 10.8588 27.1682 10.4714C27.1855 10.3731 27.2434 10.2632 27.1855 10.1707C27.2087 10.136 27.2376 10.1071 27.2607 10.0724C27.2607 10.0319 27.2607 9.95673 27.2665 9.91625C27.2723 10.0088 27.2781 10.1013 27.2607 10.1996C27.1971 10.6275 27.2723 11.0611 27.3591 11.4775C27.5269 12.206 27.9898 12.8652 28.6205 13.27C29.1818 13.6401 29.8645 13.7788 30.53 13.7615C31.4095 13.7962 32.2948 13.6054 33.099 13.2411C33.886 12.8826 34.5861 12.3622 35.2284 11.7897C35.8938 11.1884 36.5013 10.5003 37.2883 10.0435Z" fill="#1F19FF"/>
</g>
<defs>
<clipPath id="clip0_2157_793">
<rect width="66" height="20" fill="white" transform="translate(27 2)"/>
</clipPath>
</defs>
</svg>
