<svg width="64" height="64" viewBox="0 0 64 64" fill="none" xmlns="http://www.w3.org/2000/svg">
<g clip-path="url(#clip0_762_2663)">
<path fill-rule="evenodd" clip-rule="evenodd" d="M28.125 0.1965L26.8125 0.364875L25.5625 0.62825L24.3125 0.891625L23.002 1.266L21.6915 1.64037L20.252 2.2025L18.8125 2.76462L17.1859 3.6085L15.5592 4.45237L14.3734 5.24237L13.1875 6.03237L12.125 6.854L11.0625 7.67575L9.37263 9.36912L7.68262 11.0625L6.73338 12.3125L5.78412 13.5625L5.0625 14.6815L4.341 15.8004L3.6745 17.0597L3.008 18.319L2.45237 19.645L1.89688 20.971L1.45975 22.3292L1.02275 23.6875L0.70325 25.125L0.383875 26.5625L0.192 28.1212L0 29.68V31.9375V34.195L0.18725 35.7076L0.3745 37.2202L0.62725 38.4487L0.880125 39.6771L1.25912 40.9949L1.63825 42.3125L2.2085 43.75L2.77888 45.1875L3.5085 46.625L4.23812 48.0625L5.22225 49.5625L6.20638 51.0625L6.96475 52.0125L7.72325 52.9626L8.89287 54.1864L10.0625 55.4102L11.3125 56.4592L12.5625 57.5082L14.125 58.5595L15.6875 59.6107L17.25 60.4216L18.8125 61.2324L19.8125 61.6311L20.8125 62.0297L21.875 62.396L22.9375 62.7622L24.4004 63.1229L25.8633 63.4834L27.2754 63.7097L28.6875 63.936L32.0625 63.9325L35.4375 63.929L37.0625 63.649L38.6875 63.3689L40.084 62.9979L41.4805 62.6269L42.7715 62.174L44.0625 61.7211L45.6906 60.945L47.3187 60.1689L48.2381 59.6319L49.1575 59.095L49.6263 58.6715L50.0951 58.2479L50.375 57.5972L50.655 56.9465L50.5923 56.1657L50.5296 55.385L50.1995 54.8217L49.8694 54.2585L49.435 53.9271L49.0005 53.5957L48.5315 53.4284L48.0625 53.261L47.4115 53.2555L46.7605 53.25L45.724 53.8161L44.6875 54.3822L43.1875 55.1256L41.6875 55.869L40 56.424L38.3125 56.979L36.9375 57.2469L35.5625 57.5149L33.7179 57.6575L31.8734 57.8002L30.1554 57.6565L28.4375 57.5129L27.0625 57.2469L25.6875 56.981L24.125 56.478L22.5625 55.9751L20.9094 55.185L19.2563 54.3949L18.1594 53.6815L17.0625 52.9682L16 52.1425L14.9375 51.3169L13.8104 50.1896L12.6831 49.0625L11.8575 48L11.0317 46.9375L10.3235 45.8484L9.61525 44.7592L8.87463 43.2234L8.134 41.6875L7.63538 40.1875L7.13675 38.6875L6.825 37.125L6.51325 35.5625L6.3705 33.7885L6.22762 32.0146L6.36763 30.226L6.5075 28.4375L6.81712 26.9055L7.12675 25.3735L7.56437 24.0656L8.00187 22.7579L8.4565 21.7226L8.91113 20.6875L9.53263 19.5625L10.154 18.4375L10.8474 17.4375L11.5406 16.4375L12.3276 15.4879L13.1147 14.5382L14.2475 13.4602L15.3802 12.3822L16.3814 11.6201L17.3824 10.8581L18.3565 10.254L19.3306 9.64975L20.5088 9.05812L21.6869 8.46637L22.7498 8.05612L23.8125 7.646L24.9375 7.33175L26.0625 7.0175L27.4375 6.744L28.8125 6.47062L31.2778 6.40687L33.743 6.34325L34.9652 6.49237L36.1875 6.6415L37.5854 6.95012L38.9831 7.25875L40.1479 7.64512L41.3125 8.03162L42.5322 8.57162L43.752 9.11162L44.9072 9.79312L46.0625 10.4746L47.1784 11.2686L48.2941 12.0625L49.6501 13.3604L51.0061 14.6581L51.8107 15.6229L52.6154 16.5876L53.4458 17.8251L54.2761 19.0625L55.0659 20.6875L55.8556 22.3125L56.2415 23.4196L56.6275 24.5269L56.9314 25.7321L57.2352 26.9375L57.4455 28.375L57.6556 29.8125L57.6715 31.5625L57.6875 33.3125L57.6296 34.6875L57.5718 36.0625L57.8384 36.5691L58.105 37.0757L58.5213 37.4861L58.9375 37.8965L59.3115 38.0921L59.6855 38.2877L60.5265 38.3479L61.3674 38.408L62.0561 38.0711L62.7449 37.7341L63.1215 37.2772L63.498 36.8204L63.7178 36.1915L63.9375 35.5625V32.125V28.6875L63.7089 27.3125L63.4801 25.9375L63.1865 24.6875L62.8929 23.4375L62.557 22.375L62.2212 21.3125L61.7243 20.0625L61.2274 18.8125L60.4689 17.3242L59.7103 15.8361L58.7508 14.3867L57.7911 12.9375L57.0431 12L56.2951 11.0625L55.2414 9.94687L54.1875 8.83112L52.8125 7.6505L51.4375 6.46987L49.75 5.34625L48.0625 4.22275L46.0625 3.23962L44.0625 2.25662L42.1875 1.637L40.3125 1.01725L38.875 0.700625L37.4375 0.383875L35.8787 0.192L34.32 0L31.8787 0.014L29.4375 0.028125L28.125 0.1965ZM43.25 20.5012L42.6875 20.7601L34.9714 28.4709L27.2551 36.1815L24.1589 33.1074L21.0625 30.0331L20.5629 29.8717L20.0634 29.7102L19.3636 29.7169L18.664 29.7235L18.2383 29.939L17.8125 30.1545L17.4342 30.4372L17.0561 30.72L16.7288 31.3287L16.4013 31.9375L16.3154 32.4641L16.2296 32.9907L16.4369 33.7141L16.6441 34.4375L21.0409 38.8577L25.4375 43.2779L25.9702 43.5205L26.5031 43.763L27.242 43.7666L27.981 43.7701L28.5842 43.5044L29.1875 43.2385L37.6689 34.7755L46.1502 26.3125L46.7601 25.5902L47.3701 24.868L47.5681 24.1867L47.7661 23.5055L47.6818 22.9429L47.5974 22.3802L47.205 21.7259L46.8125 21.0715L46.1996 20.6935L45.5869 20.3154L44.6996 20.2789L43.8125 20.2424L43.25 20.5012Z" fill="#D8AE60"/>
</g>
<defs>
<clipPath id="clip0_762_2663">
<rect width="64" height="64" fill="white"/>
</clipPath>
</defs>
</svg>
