<svg width="20" height="20" viewBox="0 0 20 20" fill="none" xmlns="http://www.w3.org/2000/svg">
<path fill-rule="evenodd" clip-rule="evenodd" d="M7.05022 15.3659L7.09215 15.5246L7.27972 15.7122L7.46729 15.8998L7.6763 15.9499L7.88531 16L8.09658 15.9511L8.30785 15.9022L11.017 13.2006L13.7262 10.499L13.8117 10.338L13.8972 10.1771L13.8955 9.95575L13.8939 9.73443L13.8098 9.57346L13.7257 9.41249L11.0772 6.76802L8.42858 4.1235L8.27896 4.06177L8.12934 4L7.92523 4L7.72113 4L7.56801 4.07811L7.41493 4.15622L7.28523 4.3039L7.15557 4.45159L7.11803 4.55034L7.08048 4.6491L7.08048 4.84898L7.08048 5.04886L7.14225 5.19848L7.20402 5.34809L9.50596 7.6516L11.8079 9.95511L9.4495 12.3196L7.09103 14.6841L7.04551 14.873L7 15.0618L7.00414 15.1346L7.00833 15.2073L7.05022 15.3659Z"/>
</svg>
