<svg width="20" height="20" viewBox="0 0 20 20" fill="none" xmlns="http://www.w3.org/2000/svg">
<path fill-rule="evenodd" clip-rule="evenodd" d="M13.8472 15.3659L13.8053 15.5246L13.6177 15.7122L13.4302 15.8998L13.2212 15.9499L13.0121 16L12.8009 15.9511L12.5896 15.9022L9.88047 13.2006L7.17128 10.499L7.08577 10.338L7.00026 10.1771L7.00195 9.95575L7.00359 9.73443L7.08766 9.57346L7.17172 9.41249L9.82031 6.76802L12.4689 4.1235L12.6185 4.06177L12.7681 4L12.9722 4L13.1763 4L13.3295 4.07811L13.4825 4.15622L13.6122 4.3039L13.7419 4.45159L13.7794 4.55034L13.817 4.6491L13.817 4.84898L13.817 5.04886L13.7552 5.19847L13.6934 5.34809L11.3915 7.6516L9.08952 9.95511L11.448 12.3196L13.8064 14.6841L13.8519 14.873L13.8975 15.0618L13.8933 15.1346L13.8891 15.2073L13.8472 15.3659Z"/>
</svg>
