<svg width="20" height="20" viewBox="0 0 20 20" fill="none" xmlns="http://www.w3.org/2000/svg">
<g clip-path="url(#clip0_117_92)">
<path fill-rule="evenodd" clip-rule="evenodd" d="M6.86888 2.02724L6.77104 2.04384L6.16438 2.18227L5.55773 2.32074L4.75538 2.58763L3.95303 2.85456L3.50294 3.04877L3.05284 3.24301L2.9038 3.45319L2.75479 3.66341L2.43699 4.19178L2.11918 4.72016L1.82004 5.30724L1.52086 5.89433L1.28149 6.46184L1.04211 7.02935L0.864227 7.55069L0.68634 8.07206L0.548728 8.5683L0.411076 9.06458L0.296399 9.63209L0.181683 10.1996L0.0920939 10.865L0.00254403 11.5303L0.00125245 12.9198L0 14.3092L0.0320548 14.5245L0.0640705 14.7397L0.227749 14.8554L0.391389 14.9712L0.841487 15.2704L1.29159 15.5696L1.72211 15.8173L2.15264 16.065L2.73973 16.3488L3.32681 16.6326L3.73777 16.7966L4.14873 16.9607L4.59699 17.1124L5.04524 17.2642H5.11037H5.1755L5.46759 16.8239L5.75969 16.3836L5.98446 15.9812L6.20928 15.5789L6.19499 15.5361L6.18074 15.4933L5.71268 15.2905L5.24462 15.0877L4.89515 14.8969L4.54571 14.7062L4.71902 14.5567L4.89237 14.4072L4.93644 14.4072L4.98047 14.407L5.21041 14.5097L5.44031 14.6123L5.85127 14.7657L6.26223 14.9191L6.6571 15.0342L7.05202 15.1493L7.51816 15.2501L7.98434 15.351L8.3953 15.4087L8.80626 15.4665L9.39961 15.4996L9.99296 15.5328L10.6061 15.5005L11.2191 15.4683L11.5195 15.4246L11.82 15.381L12.2487 15.302L12.6775 15.223L13.2718 15.0524L13.8661 14.8818L14.4524 14.6444L15.0387 14.407H15.0657H15.0926L15.2469 14.531L15.4012 14.655V14.702V14.7491L14.8434 15.0232L14.2857 15.2974L14.0571 15.3865L13.8286 15.4757L13.8099 15.5245L13.7912 15.5733L13.8914 15.7712L13.9917 15.9691L14.212 16.3329L14.4323 16.6967L14.6281 16.9804L14.8239 17.2642H14.8943H14.9648L15.4863 17.0832L16.0078 16.9022L16.5558 16.6685L17.1037 16.4348L17.5538 16.2055L18.0039 15.9762L18.4611 15.7045L18.9184 15.4328L19.2672 15.1978L19.6162 14.9628L19.7757 14.8513L19.9352 14.7397L19.9676 14.4853L20 14.2309L19.9992 12.9002L19.9984 11.5695L19.9283 11.002L19.8582 10.4344L19.7614 9.90607L19.6647 9.37769L19.511 8.78489L19.3574 8.19209L19.1959 7.70857L19.0345 7.22505L18.8384 6.73581L18.6424 6.24658L18.2966 5.54207L17.9509 4.83757L17.5791 4.21996L17.2072 3.60235L17.0772 3.42278L16.9472 3.24325L16.5499 3.07413L16.1526 2.90501L15.6497 2.72243L15.1468 2.53988L14.5468 2.369L13.9467 2.19812L13.4659 2.09906L12.9852 2H12.8906H12.796L12.5431 2.51859L12.2901 3.03718L12.2868 3.04681L12.2834 3.05644L11.856 2.99562L11.4286 2.93483L10.3131 2.91276L9.19765 2.89069L8.55186 2.95663L7.90607 3.02254L7.82035 3.04333L7.7346 3.06407L7.46951 2.53202L7.20438 2L7.08556 2.00532L6.96673 2.01065L6.86888 2.02724ZM6.99417 8.42333L7.20157 8.46701L7.39965 8.56305L7.59773 8.65906L7.77843 8.81354L7.95918 8.96802L8.11816 9.20615L8.27714 9.44423L8.35401 9.69307L8.43088 9.94192L8.45577 10.2273L8.4807 10.5127L8.41898 10.8063L8.35726 11.0998L8.21632 11.3861L8.07538 11.6724L7.86669 11.8811L7.65796 12.0898L7.41006 12.2119L7.16215 12.3339L6.91769 12.3733L6.67319 12.4127L6.42869 12.3733L6.18423 12.3339L5.94352 12.2154L5.70286 12.0969L5.46665 11.8444L5.23041 11.5919L5.11241 11.3446L4.99436 11.0973L4.94982 10.9029L4.90528 10.7084L4.90544 10.3673L4.9056 10.0262L4.97096 9.79981L5.03628 9.57339L5.15714 9.34564L5.27797 9.11789L5.47824 8.91511L5.67851 8.71233L5.89209 8.59691L6.10568 8.48149L6.30137 8.4339L6.49706 8.3863L6.64192 8.38298L6.78677 8.37965L6.99417 8.42333ZM13.6478 8.42329L13.8552 8.46689L14.0704 8.56724L14.2857 8.66755L14.5235 8.90521L14.7613 9.14286L14.8858 9.39726L15.0103 9.65166L15.0681 9.92564L15.1258 10.1996V10.3953V10.591L15.0699 10.855L15.0139 11.119L14.8899 11.3788L14.766 11.6386L14.5256 11.878L14.2852 12.1174L14.0699 12.2216L13.8546 12.3258L13.6038 12.3713L13.353 12.4168L13.0974 12.3723L12.8418 12.3277L12.6365 12.2306L12.4312 12.1334L12.2266 11.9495L12.022 11.7656L11.8924 11.5629L11.7627 11.3603L11.6641 11.0666L11.5656 10.7729L11.566 10.408L11.5665 10.0431L11.6224 9.83292L11.6784 9.62278L11.7831 9.40873L11.8878 9.19468L12.1222 8.94415L12.3565 8.69366L12.597 8.57534L12.8376 8.45703L13.0137 8.42262L13.1898 8.38822L13.3151 8.38395L13.4404 8.37965L13.6478 8.42329Z" fill="white"/>
</g>
<defs>
<clipPath id="clip0_117_92">
<rect width="20" height="20" fill="white"/>
</clipPath>
</defs>
</svg>
