<svg width="20" height="20" viewBox="0 0 20 20" fill="none" xmlns="http://www.w3.org/2000/svg">
<path fill-rule="evenodd" clip-rule="evenodd" d="M16.8472 15.3659L16.8053 15.5246L16.6177 15.7122L16.4302 15.8998L16.2212 15.9499L16.0121 16L15.8009 15.9511L15.5896 15.9022L12.8805 13.2006L10.1713 10.499L10.0858 10.338L10.0003 10.1771L10.0019 9.95575L10.0036 9.73443L10.0877 9.57346L10.1717 9.41249L12.8203 6.76802L15.4689 4.1235L15.6185 4.06177L15.7681 4L15.9722 4L16.1763 4L16.3295 4.07811L16.4825 4.15622L16.6122 4.3039L16.7419 4.45159L16.7794 4.55034L16.817 4.6491L16.817 4.84898L16.817 5.04886L16.7552 5.19847L16.6934 5.34809L14.3915 7.6516L12.0895 9.95511L14.448 12.3196L16.8064 14.6841L16.8519 14.873L16.8975 15.0618L16.8933 15.1346L16.8891 15.2073L16.8472 15.3659Z" />
<path fill-rule="evenodd" clip-rule="evenodd" d="M9.84724 15.3659L9.80531 15.5246L9.61774 15.7122L9.43018 15.8998L9.22116 15.9499L9.01215 16L8.80088 15.9511L8.58961 15.9022L5.88047 13.2006L3.17128 10.499L3.08577 10.338L3.00026 10.1771L3.00195 9.95575L3.00359 9.73443L3.08766 9.57346L3.17172 9.41249L5.82031 6.76802L8.46889 4.1235L8.6185 4.06177L8.76812 4L8.97223 4L9.17633 4L9.32945 4.07811L9.48253 4.15622L9.61223 4.3039L9.74189 4.45159L9.77943 4.55034L9.81698 4.6491L9.81698 4.84898L9.81698 5.04886L9.75521 5.19847L9.69344 5.34809L7.3915 7.6516L5.08952 9.95511L7.44796 12.3196L9.80643 14.6841L9.85195 14.873L9.89746 15.0618L9.89332 15.1346L9.88913 15.2073L9.84724 15.3659Z"/>
</svg>
