<svg width="20" height="20" viewBox="0 0 20 20" fill="none" xmlns="http://www.w3.org/2000/svg">
<path fill-rule="evenodd" clip-rule="evenodd" d="M3.05022 15.3659L3.09215 15.5246L3.27972 15.7122L3.46729 15.8998L3.6763 15.9499L3.88531 16L4.09658 15.9511L4.30785 15.9022L7.01699 13.2006L9.72618 10.499L9.81169 10.338L9.89721 10.1771L9.89552 9.95575L9.89387 9.73443L9.8098 9.57346L9.72574 9.41249L7.07716 6.76802L4.42858 4.1235L4.27896 4.06177L4.12934 4L3.92523 4L3.72113 4L3.56801 4.07811L3.41493 4.15622L3.28523 4.3039L3.15557 4.45159L3.11803 4.55034L3.08048 4.6491L3.08048 4.84898L3.08048 5.04886L3.14225 5.19847L3.20402 5.34809L5.50596 7.6516L7.80794 9.95511L5.4495 12.3196L3.09103 14.6841L3.04551 14.873L3 15.0618L3.00414 15.1346L3.00833 15.2073L3.05022 15.3659Z"/>
<path fill-rule="evenodd" clip-rule="evenodd" d="M10.0502 15.3659L10.0922 15.5246L10.2797 15.7122L10.4673 15.8998L10.6763 15.9499L10.8853 16L11.0966 15.9511L11.3079 15.9022L14.017 13.2006L16.7262 10.499L16.8117 10.338L16.8972 10.1771L16.8955 9.95575L16.8939 9.73443L16.8098 9.57346L16.7257 9.41249L14.0772 6.76802L11.4286 4.1235L11.279 4.06177L11.1293 4L10.9252 4L10.7211 4L10.568 4.07811L10.4149 4.15622L10.2852 4.3039L10.1556 4.45159L10.118 4.55034L10.0805 4.6491L10.0805 4.84898L10.0805 5.04886L10.1423 5.19847L10.204 5.34809L12.506 7.6516L14.8079 9.95511L12.4495 12.3196L10.091 14.6841L10.0455 14.873L10 15.0618L10.0041 15.1346L10.0083 15.2073L10.0502 15.3659Z"/>
</svg>
