<svg width="64" height="64" viewBox="0 0 64 64" fill="none" xmlns="http://www.w3.org/2000/svg">
<g clip-path="url(#clip0_2578_996)">
<path fill-rule="evenodd" clip-rule="evenodd" d="M28.8877 0.0468275C20.4628 0.955453 12.7996 4.97758 7.48934 11.2781C3.71947 15.7511 1.18509 21.3327 0.241219 27.241C-0.0804062 29.2547 -0.0804062 34.6765 0.241219 36.6902C0.786719 40.1051 1.72234 43.0386 3.25922 46.1531C6.41972 52.5581 11.4592 57.5776 17.8877 60.7236C20.8691 62.1826 23.4911 63.0238 26.8998 63.615C29.0911 63.9948 34.4733 64.0281 36.6748 63.6753C43.4146 62.5952 49.4295 59.6041 54.303 54.909C58.3806 50.9807 61.6021 45.4053 63.0151 39.8311C63.7342 36.9943 63.8807 35.663 63.8807 31.9656C63.8807 28.9665 63.845 28.3225 63.6003 26.9152C63.007 23.5026 62.168 20.8877 60.7065 17.896C56.1001 8.46645 47.2778 1.9722 36.7627 0.270203C35.5496 0.0738275 30.0766 -0.0814225 28.8877 0.0468275ZM35.694 5.29245C46.3527 6.6977 55.3161 14.6756 58.0147 25.1593C58.6252 27.5311 58.8575 29.4062 58.8575 31.9656C58.8575 34.46 58.6333 36.3328 58.0645 38.5932C55.6747 48.0885 48.2186 55.5943 38.7565 58.0301C36.3847 58.6406 34.5096 58.8728 31.9502 58.8728C29.4458 58.8728 27.5828 58.6487 25.2896 58.0716C15.8407 55.6935 8.31472 48.208 5.88572 38.7718C5.27522 36.4001 5.04297 34.525 5.04297 31.9656C5.04297 27.4967 5.96459 23.6203 7.95522 19.7157C10.6366 14.4563 14.7996 10.3761 20.1377 7.77533C25.081 5.36695 30.1373 4.55995 35.694 5.29245ZM21.9515 20.3801C21.0853 20.6558 20.1982 21.8785 20.201 22.7926C20.2037 23.7208 20.3692 23.9247 24.4273 27.9968L28.3825 31.9656L24.4273 35.9343C20.3692 40.0065 20.2037 40.2103 20.201 41.1386C20.1972 42.3826 21.5332 43.7186 22.7772 43.7148C23.7055 43.7121 23.9093 43.5466 27.9815 39.4885L31.9502 35.5333L35.919 39.4885C39.9911 43.5466 40.195 43.7121 41.1232 43.7148C42.3672 43.7186 43.7032 42.3826 43.6995 41.1386C43.6967 40.2103 43.5312 40.0065 39.4731 35.9343L35.518 31.9656L39.4731 27.9968C43.5312 23.9247 43.6967 23.7208 43.6995 22.7926C43.7032 21.5486 42.3672 20.2126 41.1232 20.2163C40.195 20.2191 39.9911 20.3846 35.919 24.4427L31.9502 28.3978L27.9815 24.4427C24.6548 21.1275 23.9318 20.4657 23.5127 20.3523C22.9097 20.1891 22.5298 20.1958 21.9515 20.3801Z" fill="#D8AE60"/>
</g>
<defs>
<clipPath id="clip0_2578_996">
<rect width="64" height="64" fill="white"/>
</clipPath>
</defs>
</svg>
