<svg width="20" height="20" viewBox="0 0 20 20" fill="none" xmlns="http://www.w3.org/2000/svg">
<g clip-path="url(#clip0_143_3166)">
<path d="M10 16.8389C8.92433 16.8413 7.85884 16.6305 6.8651 16.2188C5.87135 15.807 4.96903 15.2025 4.21027 14.44L0.227436 10.4648C0.155369 10.3934 0.0981682 10.3083 0.0591328 10.2146C0.0200974 10.1209 0 10.0204 0 9.91893C0 9.81743 0.0200974 9.71693 0.0591328 9.62324C0.0981682 9.52954 0.155369 9.4445 0.227436 9.37302L4.21027 5.39787C5.7459 3.86253 7.82849 3 10 3C12.1715 3 14.2541 3.86253 15.7897 5.39787L19.7726 9.37302C19.8446 9.4445 19.9018 9.52954 19.9409 9.62324C19.9799 9.71693 20 9.81743 20 9.91893C20 10.0204 19.9799 10.1209 19.9409 10.2146C19.9018 10.3083 19.8446 10.3934 19.7726 10.4648L15.7897 14.44C15.031 15.2025 14.1287 15.807 13.1349 16.2188C12.1412 16.6305 11.0757 16.8413 10 16.8389ZM1.85748 9.91893L5.29441 13.3559C6.5439 14.601 8.23599 15.3002 10 15.3002C11.764 15.3002 13.4561 14.601 14.7056 13.3559L18.1425 9.91893L14.7056 6.482C13.4561 5.23682 11.764 4.53765 10 4.53765C8.23599 4.53765 6.5439 5.23682 5.29441 6.482L1.85748 9.91893Z" fill="#82858F"/>
<path d="M9.99999 12.9939C9.39171 12.9939 8.79708 12.8135 8.29131 12.4756C7.78554 12.1376 7.39133 11.6573 7.15855 11.0953C6.92577 10.5333 6.86486 9.91491 6.98354 9.31832C7.10221 8.72172 7.39512 8.17371 7.82525 7.74358C8.25537 7.31346 8.80338 7.02054 9.39998 6.90187C9.99658 6.7832 10.615 6.84411 11.177 7.07689C11.7389 7.30967 12.2193 7.70387 12.5572 8.20964C12.8952 8.71541 13.0755 9.31004 13.0755 9.91833C13.0755 10.734 12.7515 11.5163 12.1747 12.0931C11.598 12.6698 10.8157 12.9939 9.99999 12.9939ZM9.99999 8.38055C9.69585 8.38055 9.39854 8.47074 9.14565 8.63971C8.89276 8.80869 8.69566 9.04885 8.57927 9.32985C8.46288 9.61084 8.43243 9.92003 8.49176 10.2183C8.5511 10.5166 8.69756 10.7906 8.91262 11.0057C9.12768 11.2208 9.40169 11.3672 9.69999 11.4266C9.99829 11.4859 10.3075 11.4554 10.5885 11.339C10.8695 11.2227 11.1096 11.0256 11.2786 10.7727C11.4476 10.5198 11.5378 10.2225 11.5378 9.91833C11.5378 9.51048 11.3758 9.11934 11.0874 8.83096C10.799 8.54257 10.4078 8.38055 9.99999 8.38055Z" fill="#82858F"/>
</g>
<defs>
<clipPath id="clip0_143_3166">
<rect width="20" height="20" fill="white"/>
</clipPath>
</defs>
</svg>
