<svg width="20" height="20" viewBox="0 0 20 20" fill="none" xmlns="http://www.w3.org/2000/svg">
<path fill-rule="evenodd" clip-rule="evenodd" d="M2.87009 1.05326L2.64947 1.10118L2.38835 1.22677L2.12726 1.35235L1.91202 1.52505L1.69681 1.69779L1.52407 1.91299L1.35138 2.12823L1.22646 2.38795L1.10154 2.64767L1.05077 2.88724L1 3.12684V10.0004V16.8739L1.05077 17.1135L1.10154 17.3531L1.22646 17.6128L1.35138 17.8725L1.52407 18.0877L1.69681 18.3029L1.91202 18.4757L2.12726 18.6484L2.38697 18.7733L2.64669 18.8982L2.88626 18.949L3.12587 18.9997L6.52747 19.0004L9.92907 19.001V15.7856V12.5703L9.03502 12.5598L8.14097 12.5494L8.04179 12.4757L7.9426 12.4022L7.90062 12.2824L7.85868 12.1626L7.85668 11.1155L7.85471 10.0684L7.90618 9.94523L7.95765 9.82204L8.08085 9.77056L8.20404 9.71909H9.06656H9.92907L9.92928 8.51491L9.92949 7.31072L9.97987 6.97658L10.0302 6.64243L10.1244 6.34372L10.2186 6.04501L10.3246 5.83406L10.4306 5.62311L10.5388 5.46489L10.6469 5.30668L10.8066 5.13518L10.9662 4.96364L11.1596 4.81625L11.353 4.66883L11.5464 4.5604L11.7397 4.45197L12.0386 4.34805L12.3374 4.24415L12.5835 4.19528L12.8297 4.14645H14.0506H15.2715L15.369 4.24394L15.4666 4.3414V5.38069V6.41994L15.3517 6.52254L15.2369 6.62513L14.6661 6.62541L14.0954 6.62569L13.7816 6.66166L13.4678 6.69759L13.3069 6.76858L13.1461 6.83956L13.014 6.96824L12.8819 7.09689L12.8037 7.2917L12.7255 7.48652L12.7138 8.6028L12.7021 9.71909H13.991H15.2799L15.3761 9.77591L15.4723 9.83276L15.5193 9.90775L15.5663 9.98278L15.5605 10.1586L15.5547 10.3344L15.4367 11.3083L15.3187 12.2823L15.258 12.3748L15.1974 12.4673L15.0782 12.5172L14.959 12.5669H13.8328H12.7066V15.784V19.001L14.7898 19.0004L16.8729 18.9997L17.1072 18.9501L17.3414 18.9005L17.5994 18.7808L17.8573 18.6611L18.0797 18.482L18.302 18.3029L18.4747 18.0877L18.6474 17.8725L18.7723 17.6128L18.8972 17.3531L18.948 17.1135L18.9988 16.8739V10.0004V3.12684L18.948 2.88724L18.8972 2.64767L18.7723 2.38795L18.6474 2.12823L18.4747 1.91299L18.302 1.69779L18.0797 1.51872L17.8573 1.33962L17.5994 1.21994L17.3414 1.10026L17.1072 1.05062L16.8729 1.00098L9.98181 1.00316L3.09071 1.00534L2.87009 1.05326Z" fill="white"/>
</svg>
