<svg width="24" height="24" viewBox="0 0 24 24" fill="none" xmlns="http://www.w3.org/2000/svg">
<g clip-path="url(#clip0_513_422)">
<g mask="url(#mask0_513_422)">
<path d="M23.3562 2.66067C23.5269 2.66067 23.6907 2.59285 23.8114 2.47211C23.9322 2.35137 24 2.18762 24 2.01686C24 1.84611 23.9322 1.68236 23.8114 1.56162C23.6907 1.44088 23.5269 1.37305 23.3562 1.37305H21.5964V0.64381C21.5964 0.47306 21.5285 0.3093 21.4078 0.188562C21.2871 0.067823 21.1233 0 20.9526 0C20.7818 0 20.6181 0.067823 20.4973 0.188562C20.3766 0.3093 20.3087 0.47306 20.3087 0.64381V1.37305H19.7511C19.3529 1.37346 18.9711 1.53184 18.6895 1.81343C18.4079 2.09502 18.2496 2.4768 18.2492 2.87503V4.24811C18.2496 4.64633 18.4079 5.02812 18.6895 5.30971C18.9711 5.5913 19.3529 5.74968 19.7511 5.75008H20.3087V7.55262H18.5497C18.3789 7.55262 18.2152 7.62044 18.0945 7.74118C17.9737 7.86192 17.9059 8.02568 17.9059 8.19643C17.9059 8.36718 17.9737 8.53094 18.0945 8.65167C18.2152 8.77241 18.3789 8.84024 18.5497 8.84024H20.3095V9.56948C20.3095 9.74023 20.3773 9.90399 20.4981 10.0247C20.6188 10.1455 20.7826 10.2133 20.9533 10.2133C21.1241 10.2133 21.2878 10.1455 21.4086 10.0247C21.5293 9.90399 21.5971 9.74023 21.5971 9.56948V8.84024H22.1548C22.553 8.83983 22.9348 8.68145 23.2164 8.39986C23.498 8.11827 23.6563 7.73649 23.6567 7.33826V5.96518C23.6563 5.56696 23.498 5.18517 23.2164 4.90358C22.9348 4.62199 22.553 4.46361 22.1548 4.46321H21.5971V2.66067H23.3562ZM20.3095 4.46321H19.7519C19.6951 4.46301 19.6407 4.44037 19.6005 4.40021C19.5604 4.36006 19.5377 4.30564 19.5375 4.24885V2.8758C19.5377 2.81901 19.5604 2.76461 19.6005 2.72446C19.6407 2.6843 19.6951 2.66164 19.7519 2.66144H20.3095V4.46321ZM22.1548 5.75085C22.2115 5.75105 22.2659 5.77369 22.3061 5.81384C22.3463 5.854 22.3689 5.9084 22.3691 5.96518V7.33826C22.3689 7.39505 22.3463 7.44944 22.3061 7.4896C22.2659 7.52975 22.2115 7.55242 22.1548 7.55262H21.5971V5.75008H22.1548V5.75085Z" fill="white" fill-opacity="0.48"/>
<path d="M12.734 20.5628C12.175 20.4891 11.6657 20.2035 11.3113 19.7649C11.0548 19.432 10.901 19.0314 10.8689 18.6123C10.8627 18.5123 10.8185 18.4185 10.7456 18.3499C10.6726 18.2813 10.5762 18.2432 10.476 18.2432C10.3759 18.2432 10.2795 18.2813 10.2065 18.3499C10.1335 18.4185 10.0894 18.5123 10.0832 18.6123C10.0511 19.0314 9.89733 19.432 9.64075 19.7649C9.2864 20.2035 8.7771 20.4891 8.21811 20.5628C8.12293 20.5747 8.03538 20.621 7.97191 20.6929C7.90844 20.7648 7.87341 20.8574 7.87341 20.9534C7.87341 21.0493 7.90844 21.1419 7.97191 21.2138C8.03538 21.2857 8.12293 21.332 8.21811 21.3439C8.77712 21.4176 9.28645 21.7032 9.64075 22.1418C9.89733 22.4747 10.0511 22.8753 10.0832 23.2944C10.0894 23.3944 10.1335 23.4882 10.2065 23.5568C10.2795 23.6254 10.3759 23.6635 10.476 23.6635C10.5762 23.6635 10.6726 23.6254 10.7456 23.5568C10.8185 23.4882 10.8627 23.3944 10.8689 23.2944C10.901 22.8753 11.0547 22.4747 11.3113 22.1418C11.6657 21.7033 12.175 21.4176 12.734 21.3439C12.8292 21.332 12.9167 21.2857 12.9802 21.2138C13.0436 21.1419 13.0787 21.0493 13.0787 20.9534C13.0787 20.8574 13.0436 20.7648 12.9802 20.6929C12.9167 20.621 12.8292 20.5747 12.734 20.5628ZM10.6919 21.6559C10.6133 21.7563 10.5414 21.8618 10.4768 21.9717C10.4122 21.8618 10.3403 21.7563 10.2617 21.6559C10.0397 21.3727 9.76576 21.1343 9.45463 20.9534C9.76577 20.7725 10.0397 20.5341 10.2617 20.2508C10.3403 20.1504 10.4122 20.0449 10.4768 19.935C10.7246 20.3562 11.0766 20.7067 11.499 20.9526C11.1876 21.1334 10.9134 21.3718 10.6912 21.6552L10.6919 21.6559Z" fill="white" fill-opacity="0.48"/>
<path d="M7.42028 1.50049L8.78725 0.134289C8.87294 0.0495074 8.98861 0.00195312 9.10916 0.00195312C9.2297 0.00195312 9.34537 0.0495074 9.43106 0.134289L13.9858 4.68905C14.0706 4.77474 14.1182 4.89041 14.1182 5.01095C14.1182 5.1315 14.0706 5.24717 13.9858 5.33286L12.6196 6.69906C12.5339 6.78384 12.4183 6.8314 12.2977 6.8314C12.1772 6.8314 12.0615 6.78384 11.9758 6.69906L7.42105 2.1443C7.33617 2.05871 7.28847 1.94309 7.28833 1.82255C7.28819 1.70201 7.3356 1.58628 7.42028 1.50049Z" fill="white" fill-opacity="0.48"/>
<path d="M9.69789 12.8883L12.8864 9.69971C12.9721 9.61493 13.0878 9.56738 13.2084 9.56738C13.3289 9.56738 13.4446 9.61493 13.5303 9.69971L14.8965 11.0659C14.9812 11.1516 15.0288 11.2673 15.0288 11.3878C15.0288 11.5084 14.9812 11.624 14.8965 11.7097L11.7079 14.8983C11.6222 14.9831 11.5065 15.0306 11.386 15.0306C11.2654 15.0306 11.1498 14.9831 11.0641 14.8983L9.69789 13.5321C9.61311 13.4464 9.56555 13.3307 9.56555 13.2102C9.56555 13.0896 9.61311 12.974 9.69789 12.8883Z" fill="white" fill-opacity="0.48"/>
<path d="M13.0751 14.899L14.8974 13.0767C14.9831 12.9919 15.0988 12.9443 15.2194 12.9443C15.3399 12.9443 15.4556 12.9919 15.5413 13.0767L20.8184 18.3538C20.9032 18.4395 20.9507 18.5552 20.9507 18.6757C20.9507 18.7963 20.9032 18.9119 20.8184 18.9976L18.996 20.82C18.9104 20.9048 18.7947 20.9523 18.6741 20.9523C18.5536 20.9523 18.4379 20.9048 18.3522 20.82L13.0751 15.5428C12.9903 15.4572 12.9427 15.3415 12.9427 15.2209C12.9427 15.1004 12.9903 14.9847 13.0751 14.899Z" fill="white" fill-opacity="0.48"/>
<path d="M3.77625 7.04498L7.04339 3.77784C7.12907 3.69306 7.24475 3.64551 7.36529 3.64551C7.48583 3.64551 7.60152 3.69306 7.68721 3.77784L10.4204 6.51101C10.5051 6.59669 10.5527 6.71237 10.5527 6.83292C10.5527 6.95346 10.5051 7.06913 10.4204 7.15482L10.0199 7.5553L11.5592 9.09466C11.644 9.18034 11.6916 9.29602 11.6916 9.41656C11.6916 9.5371 11.644 9.65278 11.5592 9.73847L9.73688 11.5608C9.6512 11.6456 9.53552 11.6932 9.41498 11.6932C9.29444 11.6932 9.17875 11.6456 9.09306 11.5608L7.55371 10.0215L7.15323 10.4219C7.06754 10.5067 6.95187 10.5543 6.83132 10.5543C6.71078 10.5543 6.59511 10.5067 6.50942 10.4219L3.77625 7.68879C3.69147 7.6031 3.64392 7.48743 3.64392 7.36688C3.64392 7.24634 3.69147 7.13067 3.77625 7.04498Z" fill="white" fill-opacity="0.48"/>
<path d="M0.132319 8.78857L1.49853 7.42237C1.58422 7.33759 1.69989 7.29004 1.82043 7.29004C1.94098 7.29004 2.05665 7.33759 2.14234 7.42237L6.6971 11.9771C6.78189 12.0628 6.82945 12.1785 6.82945 12.299C6.82945 12.4196 6.78189 12.5353 6.6971 12.6209L5.33089 13.9871C5.24521 14.0719 5.12953 14.1195 5.00899 14.1195C4.88845 14.1195 4.77277 14.0719 4.68708 13.9871L0.132319 9.43238C0.0475375 9.34669 0 9.23102 0 9.11047C0 8.98993 0.0475375 8.87426 0.132319 8.78857Z" fill="white" fill-opacity="0.48"/>
</g>
</g>
<defs>
<clipPath id="clip0_513_422">
<rect width="24" height="24" fill="white"/>
</clipPath>
</defs>
</svg>
