<svg width="24" height="24" viewBox="0 0 24 24" fill="none" xmlns="http://www.w3.org/2000/svg">
<g clip-path="url(#clip0_513_445)">
<path d="M11.4074 13.0764V23.9034H0L0.833517 22.8541C1.98386 21.4053 2.61004 19.6099 2.61018 17.7599L2.34394 13.3992C5.27525 11.3904 7.88045 8.94307 10.0683 6.14289L11.6005 4.1809L12.3644 5.29197C14.6734 8.65048 17.5565 11.5755 20.8814 13.9325L21.1729 14.1396L20.6387 17.3467C20.6717 19.2715 21.3817 21.1232 22.6442 22.5766L23.8797 24H16.2414L18.8516 21.1967L18.6967 21.0931C16.5002 19.6291 14.6056 17.7564 13.1162 15.5769L11.4074 13.0764ZM12.374 16.266L13.0448 19.507C13.3603 21.0319 14.222 22.389 15.4679 23.3231L17.6909 21.2932L16.0004 20.2674C15.3296 19.8589 14.7398 19.3304 14.2603 18.7083L12.374 16.266ZM11.6666 3.3178C12.3715 3.00638 13.1704 2.98405 13.8915 3.25562C14.6127 3.52718 15.1984 4.07094 15.5227 4.76993C16.0356 5.00105 16.5987 5.09806 17.1593 5.05183C17.6701 4.92852 18.1709 4.76711 18.6576 4.56895L17.5265 4.0356C17.1978 3.88077 16.9383 3.60949 16.7982 3.2743L16.1892 1.80825C15.9629 1.26644 15.5796 0.804745 15.0887 0.482548C14.5978 0.16035 14.0217 -0.00761307 13.4346 0.000264957L11.4074 0.0246266L11.6249 3.3352L11.6666 3.3178Z" fill="white" fill-opacity="0.48"/>
</g>
<defs>
<clipPath id="clip0_513_445">
<rect width="24" height="24" fill="white"/>
</clipPath>
</defs>
</svg>
