<svg width="24" height="24" viewBox="0 0 24 24" fill="none" xmlns="http://www.w3.org/2000/svg">
<g clip-path="url(#clip0_513_449)">
<path d="M12.001 0C10.8966 0.00224227 9.79767 0.159148 8.73481 0.466355L10.3072 4.55991C11.422 4.29868 12.58 4.29868 13.6948 4.55991L15.268 0.466355C14.2048 0.1596 13.1056 0.00270307 12.001 0ZM6.69936 1.25743C5.07546 2.06334 3.64886 3.23203 2.5247 4.67737L6.2177 7.02728C6.3223 6.90637 6.43449 6.79237 6.54584 6.68183V6.69219C6.58212 6.63418 6.63088 6.58544 6.6884 6.54969H6.66899C7.14966 6.07855 7.68847 5.67382 8.27171 5.34581L6.69936 1.25743ZM17.3026 1.25743L15.7319 5.34408C16.3105 5.67271 16.845 6.0768 17.322 6.54624H17.3136C17.3711 6.58199 17.4198 6.63073 17.4561 6.68874V6.67146C17.6383 6.85694 17.8112 7.0518 17.9741 7.25527L21.7539 5.04959C20.5936 3.43362 19.0656 2.13192 17.3026 1.25743ZM1.34966 6.51429C0.466433 8.20313 0.00290704 10.0886 0 12.0043H4.36361C4.36506 10.922 4.59708 9.85304 5.0435 8.87197L1.34966 6.51429ZM12.0035 6.54624C11.6372 6.54353 11.2717 6.58 10.9128 6.65506V21.8202H13.0917V6.65419C12.7328 6.57943 12.3672 6.54324 12.001 6.54624H12.0035ZM22.8581 6.93228L19.0749 9.1371C19.4455 10.0454 19.6367 11.0199 19.6375 12.0043H24.0011C23.9983 10.2465 23.6066 8.51215 22.8556 6.93141L22.8581 6.93228ZM8.7306 7.63786C8.05695 8.13875 7.50808 8.79512 7.1285 9.55376C6.74892 10.3124 6.5493 11.1519 6.54584 12.0043V21.8194H8.72806L8.7306 7.63786ZM15.2764 7.63786V21.8194H17.4587V12.0043C17.4553 11.1518 17.2558 10.3121 16.8762 9.55328C16.4966 8.79448 15.9477 8.13797 15.2739 7.63699L15.2764 7.63786ZM0 14.1832V18.5471H4.36361V14.1832H0ZM19.6375 14.1832V18.5471H24.0011V14.1832H19.6375ZM0 20.7269V24H4.36361V20.7269H0ZM19.6375 20.7269V24H24.0011V20.7269H19.6375Z" fill="white" fill-opacity="0.48"/>
</g>
<defs>
<clipPath id="clip0_513_449">
<rect width="24" height="24" fill="white"/>
</clipPath>
</defs>
</svg>
