<svg width="24" height="24" viewBox="0 0 24 24" fill="none" xmlns="http://www.w3.org/2000/svg">
<path d="M12.0895 2C12.0895 2 10.3424 4.85289 10.3424 5.81738C10.3318 6.09095 10.3831 6.36338 10.4925 6.61433C10.6019 6.86529 10.7666 7.08828 10.9743 7.26666C11.2358 7.48694 11.5563 7.62542 11.896 7.66486C12.2356 7.7043 12.5794 7.64296 12.8844 7.48847C13.1894 7.33398 13.4423 7.09317 13.6115 6.79603C13.7807 6.49889 13.8587 6.15855 13.8359 5.81738C13.8359 4.85289 12.0895 2 12.0895 2ZM9.52138 5.27246C8.3253 5.79418 7.37175 6.75033 6.85327 7.94782C5.93805 9.80941 5.5895 12.4456 5.55617 15.3949H8.74022C8.59816 16.1989 8.52903 17.014 8.5337 17.8304C8.59814 19.1336 8.74993 20.4309 8.98805 21.7137C9.65905 20.6281 10.2652 19.5037 10.8033 18.3463C11.1156 19.5659 11.9627 21.8355 11.9627 21.8355C11.9627 21.8355 12.8011 19.5891 13.1178 18.3645C13.6566 19.5149 14.2615 20.6331 14.9293 21.7137C15.1714 20.4216 15.3217 19.114 15.3793 17.8007C15.3826 16.9942 15.3134 16.189 15.1728 15.3949H18.3308C18.2975 12.4456 17.9489 9.80941 17.0337 7.94782C16.5584 6.86769 15.7345 5.97822 14.6938 5.42173C14.7764 5.81533 14.7687 6.22254 14.6713 6.61273C14.5738 7.00292 14.3891 7.36593 14.1312 7.67446C13.8732 7.98299 13.5486 8.22901 13.1818 8.39402C12.8151 8.55903 12.4157 8.63872 12.0136 8.62712C11.6116 8.61551 11.2175 8.51291 10.8609 8.32702C10.5042 8.14113 10.1944 7.87679 9.95462 7.55389C9.71487 7.23099 9.55146 6.85793 9.47667 6.46277C9.40188 6.06761 9.41766 5.66064 9.52283 5.27246H9.52138ZM7.08805 5.52318C7.03081 5.52318 6.97356 5.52318 6.91631 5.52318C5.81018 5.57562 4.7307 5.88041 3.76047 6.41421C2.79024 6.948 1.95497 7.69667 1.31859 8.60293C0.682203 9.50918 0.261561 10.549 0.0888472 11.6428C-0.0838663 12.7367 -0.00407304 13.8555 0.322121 14.9137C0.949656 17 4.02284 18.3391 5.61921 17.4652C2.61125 17.4703 1.71777 14.2043 2.6482 11.9362C2.83362 11.364 3.17163 10.8533 3.62582 10.459C4.08002 10.0647 4.63318 9.80175 5.22574 9.69854C5.41046 8.9504 5.67199 8.22335 6.00617 7.52898C6.3646 6.78287 6.85567 6.10813 7.45544 5.53768C7.3308 5.52946 7.20834 5.52463 7.08805 5.52318ZM16.9076 5.52318C16.7545 5.52318 16.6006 5.53067 16.446 5.54565C17.0411 6.11469 17.5284 6.7866 17.8844 7.52898C18.2165 8.21881 18.4768 8.94096 18.6612 9.68404C19.2766 9.76695 19.856 10.0225 20.3322 10.4211C20.8083 10.8197 21.1619 11.345 21.3518 11.9362C22.2822 14.2029 21.388 17.4703 18.3808 17.4652C19.975 18.3391 23.0503 17 23.6779 14.9137C24.0041 13.8555 24.0839 12.7367 23.9111 11.6428C23.7384 10.549 23.3178 9.50918 22.6814 8.60293C22.045 7.69667 21.2098 6.948 20.2395 6.41421C19.2693 5.88041 18.1898 5.57562 17.0837 5.52318C17.0267 5.52318 16.9694 5.52318 16.9119 5.52318H16.9076ZM15.5902 9.63042C15.8433 9.72785 16.0661 9.89054 16.2359 10.102C16.4058 10.3134 16.5166 10.566 16.5572 10.8341C16.5978 11.1022 16.5667 11.3763 16.4671 11.6286C16.3674 11.8808 16.2028 12.1021 15.9899 12.2701C15.777 12.4381 15.5234 12.5467 15.2549 12.585C14.9865 12.6232 14.7126 12.5897 14.4613 12.4878C14.21 12.386 13.9901 12.2194 13.824 12.0051C13.6579 11.7907 13.5515 11.5362 13.5156 11.2674C13.9628 11.1696 14.382 10.9714 14.7414 10.6878C15.1008 10.4042 15.391 10.0426 15.5902 9.63042ZM8.29674 9.63042C8.49603 10.0427 8.78641 10.4043 9.14594 10.6879C9.50547 10.9714 9.92475 11.1696 10.3721 11.2674C10.3362 11.5361 10.2298 11.7906 10.0636 12.0049C9.89755 12.2192 9.67768 12.3857 9.42639 12.4876C9.1751 12.5894 8.90134 12.6229 8.6329 12.5847C8.36447 12.5465 8.11093 12.4379 7.89804 12.27C7.68515 12.1021 7.5205 11.8808 7.42081 11.6286C7.32111 11.3765 7.28993 11.1024 7.33043 10.8343C7.37092 10.5662 7.48166 10.3136 7.65138 10.1022C7.8211 9.89073 8.04376 9.72797 8.29674 9.63042ZM13.8098 13.4159L11.9431 17.279L10.0786 13.4159L11.9431 14.6935L13.8098 13.4159Z" fill="white" fill-opacity="0.48"/>
</svg>
