<svg width="20" height="20" viewBox="0 0 20 20" fill="none" xmlns="http://www.w3.org/2000/svg">
<g clip-path="url(#clip0_117_82)">
<path fill-rule="evenodd" clip-rule="evenodd" d="M9.05254 0.0168359L8.89629 0.0336719L8.4118 0.111055L7.9273 0.188438L7.55242 0.283945L7.17754 0.379414L6.84551 0.493281L6.51348 0.607148L6.20098 0.731719L5.88848 0.856328L5.40019 1.1102L4.91191 1.36402L4.52711 1.61996L4.1423 1.8759L3.74586 2.19023L3.34941 2.50453L2.9375 2.91789L2.52559 3.33129L2.2098 3.72773L1.89402 4.12418L1.63809 4.50898L1.38215 4.89379L1.12836 5.38207L0.874531 5.87035L0.720859 6.26098L0.567148 6.6516L0.465 6.9641L0.362812 7.2766L0.265273 7.68676L0.167773 8.09691L0.105234 8.48754L0.0427344 8.87816L0.0213672 9.71801L0 10.5579L0.0442187 10.968L0.0884375 11.3782L0.151094 11.7489L0.213711 12.1198L0.343789 12.5943L0.473828 13.0688L0.615547 13.4539L0.757266 13.8391L1.04504 14.425L1.33277 15.011L1.63078 15.4589L1.92879 15.9069L2.22773 16.2793L2.52672 16.6516L2.93805 17.065L3.34941 17.4784L3.74812 17.7945L4.14684 18.1106L4.54176 18.371L4.93668 18.6314L5.41258 18.8779L5.88848 19.1245L6.33769 19.3023L6.78691 19.4802L7.27519 19.621L7.76348 19.7618L8.32988 19.8613L8.89629 19.9608L9.73613 19.9809L10.576 20.001L10.9861 19.9568L11.3963 19.9126L11.7671 19.8499L12.1379 19.7873L12.6124 19.6572L13.0869 19.5272L13.4721 19.3855L13.8572 19.2438L14.4432 18.956L15.0291 18.6682L15.4771 18.3702L15.925 18.0722L16.2974 17.7736L16.6697 17.475L17.082 17.0633L17.4943 16.6516L17.8115 16.2529L18.1287 15.8542L18.3891 15.4593L18.6495 15.0643L18.8961 14.5884L19.1426 14.1125L19.3205 13.6633L19.4983 13.2141L19.6391 12.7258L19.78 12.2375L19.8828 11.6711L19.9856 11.1047V9.99145V8.87816L19.8828 8.31176L19.78 7.74535L19.6391 7.25707L19.4983 6.76879L19.3205 6.31957L19.1426 5.87035L18.8961 5.39445L18.6495 4.91855L18.3891 4.52363L18.1287 4.12871L17.8123 3.73L17.4958 3.33129L17.0828 2.91824L16.6697 2.5052L16.271 2.18875L15.8723 1.8723L15.4853 1.61711L15.0982 1.36195L14.6916 1.14668L14.2849 0.931445L13.8757 0.760469L13.4666 0.589492L13.0955 0.46707L12.7244 0.344688L12.3143 0.247148L11.9041 0.149648L11.5135 0.0865234L11.1229 0.0234375L10.1658 0.0117188L9.20879 0L9.05254 0.0168359ZM8.48613 1.42137V1.44504L8.37371 1.58738L8.26133 1.72973L7.93039 2.23754L7.59949 2.74535L7.3584 3.18355L7.11726 3.62176L6.90391 4.0934L6.69055 4.56504L6.49914 5.08098L6.30773 5.59691L6.28019 5.72539L6.25269 5.85391L6.18777 5.83477L6.12285 5.81563L5.6541 5.71195L5.18535 5.60824L4.61012 5.43672L4.03488 5.26516L3.48977 5.06543L2.94465 4.8657L3.14664 4.60633L3.34863 4.34691L3.73965 3.94219L4.13066 3.53746L4.4257 3.29094L4.72074 3.04441L5.16789 2.74191L5.61504 2.43945L6.20098 2.15531L6.78691 1.87121L7.20769 1.72965L7.62848 1.58809L8.02801 1.49562L8.42754 1.40316L8.45683 1.40043L8.48613 1.3977V1.42137ZM11.9041 1.47738L12.1385 1.52336L12.5827 1.65742L13.0269 1.79148L13.4811 1.99301L13.9354 2.19457L14.2998 2.40051L14.6642 2.60645L14.9834 2.8284L15.3025 3.05035L15.615 3.31375L15.9275 3.57715L16.2989 3.96203L16.6702 4.34691L16.8724 4.60633L17.0745 4.8657L16.5401 5.06145L16.0057 5.25719L15.5401 5.39824L15.0746 5.5393L14.505 5.67672L13.9354 5.81418L13.8551 5.83133L13.7749 5.84848L13.6652 5.50785L13.5554 5.16723L13.3619 4.68004L13.1684 4.19281L12.8994 3.65359L12.6305 3.11434L12.3776 2.69461L12.1247 2.27488L11.8289 1.8523L11.533 1.42973V1.41105V1.39242L11.6014 1.41191L11.6697 1.43137L11.9041 1.47738ZM10.2831 1.92832L10.5185 2.22453L10.7863 2.60215L11.0541 2.97973L11.3005 3.38988L11.547 3.80004L11.8179 4.3602L12.0887 4.92035L12.2972 5.47348L12.5057 6.0266L12.3612 6.05207L12.2166 6.07754L11.6893 6.12848L11.1619 6.17938H10.0096H8.85723L8.32988 6.12848L7.80254 6.07754L7.65797 6.05207L7.5134 6.0266L7.72672 5.4602L7.94008 4.89379L8.20637 4.34691L8.47266 3.80004L8.71883 3.38988L8.96504 2.97973L9.23285 2.60215L9.50062 2.22453L9.73605 1.92832L9.97144 1.63207H10.0096H10.0477L10.2831 1.92832ZM2.92605 6.22465L3.4793 6.43391L4.04141 6.60844L4.60352 6.78293L5.20691 6.92645L5.81035 7.07L5.86394 7.08602L5.91754 7.10203L5.89156 7.22836L5.86559 7.35473L5.79117 7.84301L5.71676 8.33129L5.67582 8.78051L5.63484 9.22973V9.99145V10.7532L5.67582 11.2024L5.71676 11.6516L5.79211 12.1399L5.86746 12.6282L5.89184 12.7685L5.91621 12.9088L5.57773 12.976L5.23926 13.0432L4.74355 13.1782L4.24785 13.3132L3.70098 13.4931L3.1541 13.6731L2.70887 13.8447L2.26367 14.0164L2.24937 14.0021L2.23512 13.9879L2.04504 13.5619L1.85492 13.136L1.69664 12.6477L1.53836 12.1594L1.45934 11.7688L1.38035 11.3782L1.33457 11.0266L1.28875 10.675V9.99145V9.30785L1.33469 8.95629L1.38062 8.60473L1.46035 8.2141L1.54008 7.82348L1.69762 7.3352L1.8552 6.84691L2.05145 6.40551L2.2477 5.9641L2.31027 5.98973L2.37285 6.01539L2.92605 6.22465ZM17.9573 6.38094L18.1416 6.79387L18.2768 7.19148L18.4119 7.5891L18.5052 7.97973L18.5984 8.37035L18.665 8.8391L18.7316 9.30785V9.99145V10.675L18.665 11.1438L18.5984 11.6125L18.5052 12.0032L18.4119 12.3938L18.2768 12.7914L18.1416 13.189L17.9564 13.6039L17.7712 14.0188L17.7088 13.9938L17.6463 13.9688L17.0875 13.7582L16.5288 13.5475L15.9547 13.3721L15.3807 13.1969L14.8163 13.059L14.252 12.9211H14.1816H14.1111L14.1115 12.8723L14.112 12.8235L14.1867 12.3938L14.2615 11.9641L14.3133 11.5539L14.365 11.1438V9.99145V8.8391L14.3132 8.42895L14.2614 8.01879L14.1845 7.57332L14.1075 7.12785L14.1386 7.10098L14.1697 7.0741L14.5799 6.98418L14.99 6.8943L15.6408 6.70637L16.2915 6.51848L16.8712 6.30668L17.451 6.09492L17.5877 6.03465L17.7244 5.97437L17.7487 5.97121L17.773 5.96801L17.9573 6.38094ZM8.07598 7.40113L8.66191 7.47066L10.0291 7.46926L11.3963 7.46781L12.0993 7.38383L12.8023 7.29984L12.8283 7.3273L12.8542 7.35473L12.9344 7.86254L13.0145 8.37035L13.055 8.77488L13.0955 9.17941V9.99145V10.8035L13.055 11.208L13.0145 11.6125L12.9344 12.1204L12.8542 12.6282L12.8243 12.6596L12.7943 12.6911L12.2516 12.6315L11.7088 12.5718L10.8592 12.5316L10.0096 12.4914L9.15996 12.5316L8.31035 12.5718L7.76758 12.6315L7.22484 12.6911L7.19547 12.6596L7.16609 12.6282L7.08465 12.1204L7.0032 11.6125L6.9618 11.2219L6.92039 10.8313L6.91976 10.0104L6.9191 9.18945L6.96137 8.76039L7.00363 8.33129L7.0818 7.86254L7.16 7.39379L7.17918 7.34008L7.19836 7.28637L7.34422 7.30898L7.49004 7.3316L8.07598 7.40113ZM11.7479 13.8614L12.2166 13.9057L12.3612 13.931L12.5057 13.9563L12.2992 14.5032L12.0927 15.05L11.8731 15.5113L11.6535 15.9725L11.4497 16.3316L11.2459 16.6907L10.9735 17.1008L10.7011 17.511L10.4125 17.8882L10.1239 18.2655L10.0668 18.3129L10.0096 18.3604L9.9466 18.3081L9.88363 18.2559L9.4991 17.7437L9.11461 17.2316L8.83683 16.7854L8.55906 16.3391L8.24934 15.7141L7.93965 15.0891L7.72648 14.5227L7.51328 13.9563L7.65793 13.9305L7.80254 13.9046L8.36894 13.861L8.93535 13.8173L9.11113 13.8028L9.28691 13.7883L10.283 13.8027L11.2791 13.8171L11.7479 13.8614ZM6.27644 14.2395L6.30184 14.3469L6.46125 14.7961L6.62066 15.2454L6.84851 15.7614L7.07633 16.2774L7.31219 16.7096L7.54805 17.1418L7.79008 17.5295L8.03211 17.9173L8.26078 18.2366L8.48945 18.5558L8.47598 18.5693L8.46246 18.5828L8.04359 18.4882L7.62469 18.3935L7.20582 18.2526L6.78691 18.1117L6.20098 17.8276L5.61504 17.5434L5.16582 17.2397L4.7166 16.936L4.4041 16.6709L4.0916 16.4057L3.72023 16.0209L3.34891 15.636L3.14613 15.3757L2.94332 15.1155L3.43934 14.9334L3.93535 14.7512L4.56035 14.5625L5.18535 14.3738L5.69316 14.2568L6.20098 14.1399L6.22605 14.136L6.25109 14.1321L6.27644 14.2395ZM14.505 14.3062L15.0746 14.4436L15.5401 14.5846L16.0057 14.7257L16.5401 14.9214L17.0745 15.1172L16.8737 15.3766L16.6728 15.636L16.1635 16.1464L15.6541 16.657L15.3407 16.8934L15.0274 17.1298L14.7157 17.3343L14.4041 17.5388L13.8182 17.8261L13.2322 18.1134L12.8083 18.2546L12.3844 18.3958L11.9705 18.4893L11.5567 18.5828L11.5436 18.5698L11.5305 18.5567L11.8276 18.1323L12.1247 17.708L12.372 17.297L12.6193 16.886L12.8723 16.3782L13.1253 15.8704L13.2867 15.4903L13.448 15.1103L13.6132 14.6228L13.7784 14.1353L13.8569 14.152L13.9354 14.1687L14.505 14.3062Z" fill="white"/>
</g>
<defs>
<clipPath id="clip0_117_82">
<rect width="20" height="20" fill="white"/>
</clipPath>
</defs>
</svg>
