<svg viewBox="0 0 36 36" fill="none" xmlns="http://www.w3.org/2000/svg">
<path fill-rule="evenodd" clip-rule="evenodd" d="M16.1796 0.542799C1.37554 2.3285 -4.85852 20.1421 5.67007 30.5733C15.9228 40.7312 33.4884 34.7434 35.4762 20.413C37.0284 9.22186 27.2975 -0.798373 16.1796 0.542799ZM20.7847 3.68881C32.8428 6.13053 36.8169 21.4058 27.4296 29.23C18.2643 36.8692 4.47804 31.0467 3.46929 19.1106C2.67445 9.70616 11.534 1.81561 20.7847 3.68881ZM14.4999 18.0301C14.4999 22.9117 14.5279 25.8817 14.5738 25.8817C14.704 25.8817 25.6327 18.1437 25.6327 18.0515C25.6327 17.9692 14.6879 10.1924 14.5585 10.1829C14.5263 10.1805 14.4999 13.7118 14.4999 18.0301Z" fill="white"/>
</svg>
