<svg width="24" height="24" viewBox="0 0 24 24" fill="none" xmlns="http://www.w3.org/2000/svg">
<g clip-path="url(#clip0_759_1404)">
<path fill-rule="evenodd" clip-rule="evenodd" d="M10.6641 0.0190312L10.5234 0.0380625L10.0781 0.0884531L9.63281 0.138797L8.92158 0.276984L8.21034 0.415125L7.56703 0.603234L6.92372 0.791391L6.26264 1.05319L5.60156 1.31503L4.96875 1.63298L4.33594 1.95089L3.82031 2.26463L3.30469 2.57831L2.83594 2.92045L2.36719 3.26255L1.88672 3.66727L1.40625 4.07198V3.3848V2.69761L1.31175 2.5447L1.21725 2.39184L1.05858 2.31652L0.899906 2.24123H0.703125H0.506344L0.347672 2.31652L0.189 2.39184L0.0945 2.5447L0 2.69761V4.45467V6.21173L0.105469 6.36628L0.210938 6.52078L0.375 6.60891L0.539062 6.69708L2.25834 6.684L3.97767 6.67092L4.10705 6.57427L4.23637 6.47761L4.33134 6.35044L4.42636 6.22322V5.97666V5.73014L4.32183 5.56097L4.21725 5.39184L4.05858 5.31652L3.89991 5.24123L3.11011 5.23922L2.32031 5.23725L2.53125 5.04713L2.74219 4.85705L3.21094 4.4812L3.67969 4.10536L4.19531 3.76608L4.71094 3.4268L5.17969 3.16978L5.64844 2.91281L6.11719 2.69967L6.58594 2.48658L7.04658 2.31492L7.50722 2.14327L8.07558 1.97967L8.64394 1.81608L9.21272 1.70091L9.7815 1.58573L10.4103 1.51102L11.0391 1.4363L11.9766 1.43536L12.9141 1.43447L13.4062 1.488L13.8984 1.54153L14.4375 1.63594L14.9766 1.73039L15.5156 1.86703L16.0547 2.00372L16.5234 2.1637L16.9922 2.32369L17.3617 2.47195L17.7311 2.62017L18.3329 2.92158L18.9347 3.22294L19.2994 3.44203L19.6641 3.66113L20.0391 3.91903L20.4141 4.17694L20.8359 4.51767L21.2578 4.85841L21.4688 5.04783L21.6797 5.23725L20.8899 5.23922L20.1001 5.24123L19.9414 5.31652L19.7828 5.39184L19.6782 5.56097L19.5736 5.73014V5.97666V6.22322L19.6687 6.35044L19.7636 6.47761L19.893 6.57427L20.0223 6.67092L21.7417 6.684L23.4609 6.69708L23.625 6.60891L23.7891 6.52078L23.8945 6.36628L24 6.21173V4.43559V2.6595L23.8159 2.46206L23.6318 2.26467H23.2969H22.962L22.7779 2.46206L22.5938 2.6595V3.36572V4.07198L22.1133 3.66727L21.6328 3.26255L21.1641 2.92045L20.6953 2.57831L20.1797 2.26463L19.6641 1.95089L19.0312 1.63298L18.3984 1.31503L17.7374 1.05319L17.0763 0.791391L16.4454 0.606891L15.8146 0.422437L15.3253 0.320578L14.8359 0.218719L14.2266 0.123094L13.6172 0.0275156L12.2109 0.0137344L10.8047 0L10.6641 0.0190312ZM11.5781 6.04477L11.3203 6.08737L11.0281 6.22397L10.7359 6.36061L10.5447 6.51427L10.3535 6.66788L10.1694 6.94364L9.98527 7.21936L9.88008 7.53108L9.77494 7.8428L9.76036 11.5783L9.74583 15.3138L9.22055 15.0581L8.69531 14.8024L8.36719 14.7336L8.03906 14.6647H7.82812H7.61719L7.29905 14.7322L6.98091 14.7996L6.66623 14.9539L6.35156 15.1081L6.01912 15.4364L5.68664 15.7647L5.53964 16.0694L5.39264 16.374L5.32134 16.6534L5.25 16.9328V17.1831V17.4334L5.32519 17.5834L5.40042 17.7334L7.57195 19.9131L9.74353 22.0928L9.75923 22.7959L9.77498 23.499L9.85509 23.6468L9.93525 23.7947L10.0942 23.8929L10.2533 23.9912H14.2603H18.2674L18.4267 23.8848L18.5859 23.7784L18.6679 23.6153L18.7499 23.4522L18.7499 22.7796L18.75 22.107L19.0296 21.736L19.3091 21.365L19.4923 21.0492L19.6755 20.7334L19.8472 20.3016L20.019 19.8698L20.118 19.4579L20.217 19.0459L20.2378 17.124L20.2585 15.2022L20.2022 14.9444L20.1459 14.6865L20.0257 14.4287L19.9056 14.1709L19.5973 13.8628L19.2891 13.5547L19.0312 13.431L18.7734 13.3073L16.6875 12.7876L14.6016 12.268L14.4291 12.2225L14.2567 12.1769L14.2394 10.0099L14.2222 7.8428L14.1185 7.53108L14.0147 7.21936L13.825 6.93525L13.6353 6.65119L13.455 6.50836L13.2747 6.36558L12.9772 6.22734L12.6797 6.08911L12.375 6.04055L12.0703 5.99194L11.9531 5.99705L11.8359 6.0022L11.5781 6.04477ZM12.2391 7.49775L12.3984 7.55109L12.5084 7.65009L12.6183 7.74905L12.6959 7.88967L12.7734 8.0303L12.7969 10.5381L12.8203 13.0459L12.9141 13.1723L13.0078 13.2988L13.1484 13.3718L13.2891 13.4449L15.7431 14.0554L18.1971 14.6658L18.3502 14.7298L18.5033 14.7938L18.6383 14.9708L18.7734 15.1478L18.7869 16.8157L18.8004 18.4834L18.7496 18.8111L18.6988 19.1389L18.5576 19.5611L18.4164 19.9834L18.2073 20.3405L17.9983 20.6977L17.6935 21.0549L17.3887 21.4122L17.3428 21.5329L17.2969 21.6536V22.1193V22.585H14.25H11.2031V22.0958V21.6067L11.1537 21.4748L11.1044 21.3428L8.91989 19.1552L6.73547 16.9676L6.80016 16.8114L6.8648 16.6553L7.06162 16.4584L7.25845 16.2615L7.52156 16.185L7.78472 16.1086L7.9808 16.1417L8.17688 16.1748L9.25641 16.7127L10.3359 17.2506L10.5602 17.2245L10.7846 17.1984L10.9242 17.0989L11.0639 16.9995L11.1335 16.8649L11.2031 16.7302L11.2034 12.474L11.2036 8.2178L11.2528 8.04075L11.302 7.86366L11.4386 7.70808L11.5752 7.5525L11.729 7.50323L11.8828 7.45392L11.9813 7.44914L12.0798 7.44436L12.2391 7.49775Z" fill="white"/>
</g>
<defs>
<clipPath id="clip0_759_1404">
<rect width="24" height="24" fill="white"/>
</clipPath>
</defs>
</svg>
