<svg width="20" height="20" viewBox="0 0 20 20" fill="none" xmlns="http://www.w3.org/2000/svg">
<path fill-rule="evenodd" clip-rule="evenodd" d="M18.5672 2.04061C18.4481 2.06783 16.4661 2.82937 14.1628 3.73296C11.8595 4.63652 8.08229 6.11785 5.76906 7.02484C3.45583 7.93179 1.49683 8.71228 1.41575 8.75925C0.815446 9.10706 0.87292 9.71472 1.53835 10.0552C1.60409 10.0889 2.57549 10.4248 3.69699 10.8017L5.73607 11.4869L10.9783 8.15758C16.9165 4.38626 16.744 4.48522 16.744 4.84865C16.744 5.00364 16.8187 4.934 12.1839 9.10139C8.49877 12.4149 8.23316 12.6615 8.2897 12.7167C8.49945 12.9217 15.0546 17.8931 15.173 17.937C15.685 18.1268 16.338 17.8769 16.5391 17.4142C16.6184 17.2315 19.4878 2.73384 19.4878 2.51542C19.4878 2.09957 19.126 1.91295 18.5672 2.04061Z" fill="white"/>
</svg>
