<svg width="20" height="20" viewBox="0 0 20 20" fill="none" xmlns="http://www.w3.org/2000/svg">
<path fill-rule="evenodd" clip-rule="evenodd" d="M2.15657 1.09766L2.11937 1.19434L1.55969 2.68552L1 4.17671L1.00886 10.4199L1.01775 16.6631L3.17107 16.6722L5.32439 16.6812V17.8411V19.001H6.51113H7.69783L8.8576 17.8408L10.0174 16.6807H11.793H13.5687L15.9329 14.3163L18.2971 11.9519V6.47646V1.00098H10.2454H2.19373L2.15657 1.09766ZM16.715 6.86311V11.1432L15.3353 12.5233L13.9556 13.9033H11.7935H9.63142L8.47988 15.0545L7.3283 16.2057V15.0545V13.9033H5.55291H3.77752V8.24316V2.58301H10.2463H16.715V6.86311ZM8.07513 8.04035L8.08416 10.4053H8.87518H9.66619V8.0498V5.69434L8.86614 5.68488L8.06609 5.67542L8.07513 8.04035ZM12.3993 8.04102L12.4084 10.4053H13.1818H13.9553L13.9643 8.04102L13.9733 5.67676H13.1818H12.3903L12.3993 8.04102Z" fill="white"/>
</svg>
