<svg width="20" height="20" viewBox="0 0 20 20" fill="none" xmlns="http://www.w3.org/2000/svg">
<path fill-rule="evenodd" clip-rule="evenodd" d="M9.33458 1.03856C5.62974 1.46748 3.47229 5.56635 5.19471 8.90372C7.19353 12.7766 12.8174 12.7766 14.8162 8.90372C16.811 5.03848 13.6732 0.536219 9.33458 1.03856ZM11.018 2.99326C13.9798 3.93703 14.4984 7.77573 11.8887 9.43635C9.55287 10.9226 6.45414 9.20778 6.44811 6.42562C6.44292 4.03409 8.77876 2.27974 11.018 2.99326ZM7.95921 13.6345C3.99743 13.8711 1.94533 15.0696 1.08033 17.652C0.827487 18.4068 1.19028 19 1.90486 19C2.39913 19 2.63506 18.7961 2.85609 18.1778C3.59734 16.1045 5.33112 15.4369 9.97575 15.4363C14.5732 15.4358 16.3732 16.0919 17.0937 18.0311C17.3779 18.7958 17.5905 19 18.1027 19C19.9778 19 18.6856 15.7781 16.3304 14.5809C14.7365 13.7707 11.6053 13.4167 7.95921 13.6345Z" fill="white"/>
</svg>
