<svg width="24" height="24" viewBox="0 0 24 24" fill="none" xmlns="http://www.w3.org/2000/svg">
<g clip-path="url(#clip0_498_305)">
<path fill-rule="evenodd" clip-rule="evenodd" d="M4.25652 3.43767L1.63471 6.53313C1.60176 6.57321 1.58599 6.62481 1.59087 6.67659C1.59574 6.72836 1.62086 6.77607 1.66071 6.80922C1.69541 6.83852 1.73927 6.85459 1.78457 6.85459H3.17997V7.90436C3.17997 7.93553 3.18608 7.96639 3.19797 7.99518C3.20985 8.02397 3.22726 8.05012 3.24921 8.07212C3.27116 8.09413 3.29721 8.11156 3.32587 8.12342C3.35453 8.13528 3.38524 8.14133 3.41623 8.14123H5.50511C5.56744 8.14164 5.62739 8.11718 5.67182 8.07321C5.71624 8.02924 5.74153 7.96935 5.74214 7.90666V6.85459H7.136C7.17343 6.8553 7.21027 6.84515 7.24212 6.82536C7.27397 6.80557 7.29948 6.77698 7.31561 6.74299C7.33173 6.70901 7.33779 6.67108 7.33306 6.63373C7.32833 6.59638 7.31301 6.56119 7.28892 6.53236L4.66405 3.43767C4.61795 3.38343 4.55247 3.34964 4.48178 3.3436C4.4111 3.33755 4.34089 3.35974 4.28634 3.40537C4.27558 3.41534 4.26561 3.42614 4.25652 3.43767ZM19.0897 3.43767L16.471 6.53313C16.438 6.57321 16.4223 6.62481 16.4271 6.67659C16.432 6.72836 16.4571 6.77607 16.497 6.80922C16.5317 6.83852 16.5755 6.85459 16.6209 6.85459H18.0155V7.90436C18.0156 7.93556 18.0218 7.96645 18.0338 7.99524C18.0457 8.02403 18.0632 8.05017 18.0852 8.07217C18.1072 8.09416 18.1333 8.11158 18.162 8.12343C18.1907 8.13528 18.2215 8.14133 18.2525 8.14123H20.3383C20.4007 8.14164 20.4606 8.11718 20.505 8.07321C20.5495 8.02924 20.5748 7.96935 20.5754 7.90666V6.85459H21.9692C21.995 6.85469 22.0205 6.84967 22.0443 6.83981C22.068 6.82995 22.0897 6.81546 22.1079 6.79715C22.1261 6.77885 22.1405 6.75711 22.1503 6.73318C22.1601 6.70924 22.1651 6.6836 22.165 6.65771C22.1643 6.61225 22.1484 6.56835 22.1199 6.53313L19.4973 3.43767C19.4513 3.38348 19.386 3.34971 19.3154 3.34366C19.2448 3.33762 19.1747 3.35979 19.1203 3.40537C19.1102 3.41531 19.101 3.42612 19.0928 3.43767H19.0897ZM0.6285 23.9992H1.98796L6.40963 18.392L8.52604 21.6805C8.91762 22.3121 9.41782 22.8686 10.0033 23.324C10.5542 23.7642 11.2379 24.0021 11.9415 23.9984H14.2468V23.577C13.6961 23.4695 13.1874 23.2061 12.7803 22.8179C12.2533 22.3734 11.8006 21.8468 11.4392 21.2583L8.15139 16.1787L12.95 10.0877H11.5883L7.5443 15.2273L5.72073 12.4041C5.32868 11.7726 4.82856 11.216 4.24353 10.7599C3.69222 10.3204 3.00871 10.0826 2.30527 10.0854H0V10.5068C0.55084 10.6158 1.05949 10.8801 1.4665 11.269C1.9929 11.7141 2.44559 12.2405 2.80761 12.8286L5.78343 17.443L0.6285 23.9992ZM14.2491 23.9992H16.9741V18.3712H18.9621C19.6631 18.3614 20.3601 18.2621 21.0364 18.0759C21.8125 17.8672 22.5184 17.4522 23.0802 16.8747C23.3965 16.5341 23.6405 16.1322 23.7972 15.6936C23.954 15.255 24.0201 14.7889 23.9916 14.3237C23.9916 12.6374 23.4085 11.5094 22.2422 10.9398C21.0213 10.3586 19.6842 10.0666 18.3336 10.0862H12.5731V10.7183H12.7826C13.0064 10.6883 13.2342 10.7205 13.4411 10.8114C13.648 10.9024 13.8262 11.0487 13.9562 11.2344C14.1831 11.7323 14.284 12.2789 14.2498 12.8256L14.2491 23.9992ZM16.9741 17.5284V11.079L17.3931 11.016C17.703 10.9511 18.0194 10.9227 18.3359 10.9314C18.6928 10.9224 19.048 10.9848 19.3808 11.1151C19.7135 11.2454 20.0172 11.441 20.2741 11.6904C20.5671 12.0375 20.7876 12.4403 20.9227 12.8748C21.0577 13.3094 21.1044 13.7668 21.0601 14.2199C21.1052 14.6771 21.0577 15.1388 20.9205 15.5771C20.7833 16.0154 20.5592 16.4212 20.2619 16.7701C19.7108 17.2839 18.9797 17.5568 18.2288 17.5291L16.9741 17.5284ZM11.5844 0.139176L7.81803 4.75353C7.77006 4.81365 7.74702 4.89009 7.75371 4.96689C7.76041 5.04369 7.79632 5.11493 7.85396 5.16574C7.90375 5.2089 7.96715 5.23288 8.03288 5.23342H10.0377V7.5106C10.0369 7.55625 10.0452 7.60159 10.0619 7.64404C10.0786 7.68649 10.1035 7.72521 10.1351 7.75799C10.1667 7.79077 10.2044 7.81697 10.246 7.83509C10.2877 7.85321 10.3325 7.8629 10.3779 7.8636H13.3805C13.4258 7.8631 13.4706 7.8536 13.5123 7.83566C13.554 7.81771 13.5918 7.79167 13.6235 7.75902C13.6552 7.72638 13.6801 7.68777 13.6969 7.6454C13.7138 7.60304 13.7221 7.55775 13.7215 7.51214V5.22957H15.7247C15.8007 5.22796 15.8728 5.19612 15.9254 5.14104C15.978 5.08597 16.0068 5.01215 16.0054 4.93579C16.0054 4.86835 15.9825 4.80292 15.9404 4.75045L12.1739 0.1361C12.111 0.0578622 12.0198 0.00792947 11.9203 -0.00274007C11.8208 -0.0134096 11.7212 0.0160558 11.6433 0.0791894L11.6296 0.0938015C11.6134 0.107798 11.5984 0.122963 11.5844 0.139176Z" fill="#ffffff" fill-opacity="0.48"/>
</g>
<defs>
<clipPath id="clip0_498_305">
<rect width="24" height="24" fill="white"/>
</clipPath>
</defs>
</svg>
