<svg width="20" height="20" viewBox="0 0 20 20" fill="none" xmlns="http://www.w3.org/2000/svg">
<path fill-rule="evenodd" clip-rule="evenodd" d="M7.84561 4.02585L7.39611 4.03529L6.34727 4.07481L5.29844 4.11433L4.75529 4.15265L4.21214 4.191L3.74391 4.24693L3.27568 4.30285L3.03924 4.35758L2.8028 4.41231L2.59936 4.50854L2.39589 4.60481L2.17271 4.77258L1.94954 4.94036L1.77532 5.17212L1.6011 5.40387L1.50884 5.58592L1.41658 5.76801L1.34406 6.05157L1.27154 6.33516L1.19744 6.84396L1.12339 7.3528L1.06278 8.19562L1.00217 9.03843L1.00109 10.2746L1 11.5107L1.04383 12.1849L1.08762 12.8592L1.14399 13.3649L1.20033 13.8706L1.29012 14.3181L1.3799 14.7656L1.51135 15.0298L1.64279 15.294L1.79251 15.4738L1.94219 15.6536L2.12199 15.8035L2.30176 15.9536L2.56397 16.079L2.82618 16.2045L3.08839 16.2617L3.35059 16.3189L3.83755 16.376L4.32452 16.4331L4.90512 16.4724L5.48573 16.5117L6.34727 16.5479L7.20882 16.5841L8.89445 16.6088L10.5801 16.6334L12.247 16.5899L13.9139 16.5465L14.5507 16.5105L15.1875 16.4745L15.6744 16.4342L16.1614 16.3939L16.5192 16.3413L16.8769 16.2888L17.1185 16.2138L17.3601 16.1388L17.5985 15.9973L17.8368 15.8559L18.0758 15.6026L18.3148 15.3493L18.4494 15.0819L18.5841 14.8144L18.6723 14.4174L18.7605 14.0204L18.8191 13.5147L18.8777 13.009L18.9155 12.5221L18.9533 12.0351L18.9767 10.8552L19 9.67523L18.9552 8.80177L18.9105 7.92831L18.8565 7.4158L18.8025 6.9033L18.7422 6.54744L18.682 6.19159L18.5926 5.91065L18.5033 5.62971L18.3931 5.4389L18.283 5.24808L18.0914 5.03854L17.9 4.829L17.6675 4.68265L17.435 4.5363L17.2179 4.45546L17.0009 4.37466L16.6809 4.31885L16.3609 4.26307L15.7929 4.20793L15.2249 4.1528L14.4945 4.1135L13.7641 4.07417L12.453 4.03757L11.142 4.00098L9.71854 4.00869L8.29511 4.01637L7.84561 4.02585ZM10.6084 9.02008L12.8467 10.3079L12.7435 10.372L12.6403 10.436L10.5426 11.642L8.44495 12.848L8.32321 12.9222L8.20147 12.9964V10.3108V7.62512L8.28575 7.67865L8.37003 7.73218L10.6084 9.02008Z" fill="white"/>
</svg>
