<svg width="24" height="24" viewBox="0 0 24 24" fill="none" xmlns="http://www.w3.org/2000/svg">
<g clip-path="url(#clip0_0_190)">
<g clip-path="url(#clip1_0_190)">
<path fill-rule="evenodd" clip-rule="evenodd" d="M0 2.64267V5.2853L7.09613 11.2739L14.1923 17.2624L14.0789 17.5101C13.648 18.4513 13.8305 19.73 14.5067 20.5078L14.6697 20.6953L17.6708 17.6955C19.3214 16.0455 20.6719 14.6823 20.6719 14.666C20.6719 14.612 20.1835 14.2592 19.9453 14.1412C19.1463 13.7452 18.188 13.7342 17.4341 14.1125L17.2667 14.1965L11.2764 7.09828L5.28623 0H2.64314H0V2.64267ZM15.8164 3.42989C14.2244 5.31633 12.9219 6.88303 12.9219 6.91144C12.9219 7.06158 16.6963 11.4367 16.776 11.3789C16.8205 11.3467 18.4641 9.96333 20.4285 8.3048L24 5.28928V2.64464V0H21.3555H18.711L15.8164 3.42989ZM6.01223 5.0513L8.48503 7.52442L8.00377 8.00409L7.52245 8.48372L5.03911 6.00005L2.55572 3.51633L3.02306 3.04725C3.28012 2.7892 3.50147 2.57812 3.51492 2.57812C3.52837 2.57812 4.65216 3.69103 6.01223 5.0513ZM20.9769 3.04725L21.4443 3.51633L18.9609 6.00005L16.4775 8.48372L15.9962 8.00409L15.515 7.52442L17.9878 5.0513C19.3478 3.69103 20.4716 2.57812 20.4851 2.57812C20.4985 2.57812 20.7199 2.7892 20.9769 3.04725ZM7.08398 13.7816L6.73828 14.199L6.56836 14.1138C5.81203 13.7341 4.85484 13.7446 4.05469 14.1412C3.81652 14.2592 3.32812 14.612 3.32812 14.666C3.32812 14.6823 4.67859 16.0455 6.3292 17.6955L9.33028 20.6953L9.49331 20.5078C10.1702 19.7292 10.3521 18.4513 9.92016 17.508L9.80583 17.2582L10.3611 16.7971C11.0505 16.2245 11.1969 16.4775 9.2138 14.8144C7.20441 13.1292 7.50394 13.2744 7.08398 13.7816ZM3.25781 18.7031L2.18044 19.7812H1.09022H0V21.8906V24H2.10938H4.21875V22.9105V21.8211L5.30822 20.7308L6.39764 19.6407L5.39062 18.6328C4.19114 17.4323 4.53914 17.4209 3.25781 18.7031ZM18.6094 18.6328L17.6024 19.6407L18.6918 20.7308L19.7812 21.8211V22.9105V24H21.8906H24V21.8906V19.7812H22.9098H21.8196L20.7422 18.7031C19.4609 17.4209 19.8089 17.4323 18.6094 18.6328Z" fill="white" fill-opacity="0.48"/>
</g>
</g>
<defs>
<clipPath id="clip0_0_190">
<rect width="24" height="24" fill="white"/>
</clipPath>
<clipPath id="clip1_0_190">
<rect width="24" height="24" fill="white"/>
</clipPath>
</defs>
</svg>
