<svg width="24" height="24" viewBox="0 0 24 24" fill="none" xmlns="http://www.w3.org/2000/svg">
<g clip-path="url(#clip0_0_176)">
<path fill-rule="evenodd" clip-rule="evenodd" d="M6.94456 2.30435C4.22928 3.86059 1.92604 5.38423 1.82703 5.68955C1.66103 6.19763 11.0104 11.8772 12.0123 11.8772C12.7617 11.8772 22.3789 6.26581 22.3831 5.8265C22.3855 5.59647 20.5862 4.36571 18.3855 3.09107C11.4485 -0.924933 12.4569 -0.855569 6.94456 2.30435ZM13.7908 4.75462C13.7908 5.68718 13.4096 6.30197 12.7534 6.42884C12.0348 6.56698 11.7159 6.25098 11.7159 5.39905C11.7159 3.91691 10.7163 3.81791 9.2395 5.1548C8.64072 5.69607 7.953 5.93974 7.71053 5.69607C6.87875 4.86133 10.0683 2.91736 11.9666 3.10292C13.4666 3.24936 13.7908 3.54282 13.7908 4.75462ZM15.8658 7.0709C15.8658 7.79834 14.1958 8.3823 13.8258 7.78411C13.6616 7.51792 13.6972 7.129 13.9059 6.92032C14.4709 6.35533 15.8658 6.46263 15.8658 7.0709ZM1.17074 12.8584L1.34089 18.695L6.01437 21.4974C8.58499 23.0383 10.9197 24.1564 11.2019 23.9821C11.4846 23.8072 11.7159 21.4257 11.7159 18.6903C11.7159 13.7654 11.6969 13.702 9.78908 12.2928C8.72905 11.5102 6.3185 10.0043 4.43145 8.9461L1 7.0217L1.17074 12.8584ZM18.5337 9.5692C12.2026 13.2514 12.3087 13.0949 12.3087 18.7519C12.3087 21.4536 12.5227 23.7965 12.7842 23.9584C13.0462 24.1202 15.4473 23.0187 18.1199 21.5111L22.9801 18.7703V12.9526C22.9801 9.75239 22.9137 7.13908 22.8319 7.14501C22.7501 7.15035 20.8162 8.24179 18.5337 9.5692ZM6.70327 12.7398C7.50362 13.5401 8.15873 14.5978 8.15873 15.0899C8.15873 16.3313 6.24262 17.2763 5.16244 16.5673C4.44093 16.0936 4.4931 15.86 5.49088 15.0899C6.66236 14.1864 6.66295 14.165 5.52586 13.3226C4.89269 12.8536 4.15932 12.47 3.8955 12.47C3.63168 12.47 3.41588 12.2032 3.41588 11.8772C3.41588 10.7905 5.23002 11.2665 6.70327 12.7398ZM20.6087 12.4997C20.6087 13.4127 18.7691 16.8495 18.0232 17.3291C16.9525 18.018 16.9158 17.4162 17.9124 15.4894C18.8663 13.6445 18.4839 13.0534 17.1802 14.3571C16.7943 14.743 16.2737 14.8533 16.0241 14.6025C15.4093 13.986 18.0896 11.8772 19.4888 11.8772C20.1048 11.8772 20.6087 12.157 20.6087 12.4997ZM6.38016 18.8077C6.38016 19.975 4.95019 19.458 4.70653 18.2035C4.57314 17.5158 4.79783 17.3255 5.4476 17.5745C5.96042 17.7713 6.38016 18.3263 6.38016 18.8077ZM18.6256 19.2624C18.4323 19.7657 17.9995 20.1772 17.6628 20.1772C16.7943 20.1772 16.9027 18.5504 17.7926 18.2326C18.7999 17.8733 19.043 18.1739 18.6256 19.2624Z" fill="white" fill-opacity="0.48"/>
</g>
<defs>
<clipPath id="clip0_0_176">
<rect width="24" height="24" fill="white"/>
</clipPath>
</defs>
</svg>
