<svg width="24" height="24" viewBox="0 0 24 24" fill="none" xmlns="http://www.w3.org/2000/svg">
<g clip-path="url(#clip0_0_183)">
<path fill-rule="evenodd" clip-rule="evenodd" d="M11.7215 0.0846957C10.3561 0.572625 10.2307 2.4853 11.5224 3.12126C13.173 3.93381 14.7027 1.87398 13.4655 0.504627C13.0658 0.0620979 12.3004 -0.12217 11.7215 0.0846957ZM7.22123 3.79285C4.48561 5.38243 4.42304 5.42322 4.5267 5.54815C4.55811 5.58597 4.6482 5.73467 4.72686 5.87851L4.86992 6.14015L7.48011 4.62584C8.91576 3.79295 10.1413 3.07863 10.2037 3.03841L10.317 2.96523L10.1422 2.60049C10.0461 2.39987 9.96049 2.23108 9.95203 2.22539C9.94353 2.21966 8.71469 2.92501 7.22123 3.79285ZM14.5228 2.34489C14.5228 2.39844 14.455 2.57118 14.372 2.7288L14.2213 3.0154L14.4361 3.14022C14.5543 3.20889 15.7794 3.91188 17.1588 4.7024L19.6666 6.13969L19.813 5.87195C19.8936 5.72468 19.9814 5.58223 20.0082 5.55538C20.035 5.52858 20.057 5.47877 20.057 5.44469C20.057 5.39402 14.6369 2.24763 14.5495 2.24763C14.5348 2.24763 14.5228 2.29139 14.5228 2.34489ZM11.8582 5.93708V7.88429H12.2681H12.6781V5.93708V3.98987H12.2681H11.8582V5.93708ZM2.14245 5.39176C0.342305 5.98166 0.7958 8.62843 2.69397 8.6106C4.12947 8.59707 4.83231 6.85375 3.81315 5.8346C3.39502 5.41646 2.66087 5.22189 2.14245 5.39176ZM21.4149 5.39074C19.6358 5.98028 19.9826 8.59307 21.8423 8.6106C23.6326 8.62746 24.1896 6.25934 22.5752 5.49496C22.2327 5.33283 21.7269 5.28738 21.4149 5.39074ZM4.74981 7.97319C4.68976 8.1075 4.59952 8.27983 4.54935 8.35623C4.43698 8.52718 4.17861 8.35136 6.44168 9.64385C8.05714 10.5664 8.38361 10.7354 8.40959 10.6622C8.42676 10.614 8.50454 10.4312 8.58253 10.2561L8.72427 9.93783L6.82256 8.84698C5.77666 8.24703 4.90697 7.75008 4.88996 7.7426C4.8729 7.73512 4.80987 7.83889 4.74981 7.97319ZM17.767 8.82453C15.9087 9.91061 15.2254 10.7282 16.176 10.7282C16.2027 10.7282 19.9076 8.60076 19.9896 8.5384C20.0343 8.50437 20.0115 8.43094 19.9027 8.25959C19.8216 8.13164 19.7406 7.96028 19.7227 7.87876C19.6804 7.68639 19.8773 7.59118 17.767 8.82453ZM11.4594 8.67593C9.19857 9.22335 8.39304 11.6827 9.66785 14.146C11.134 16.9791 13.7822 16.7779 15.0873 13.7342C16.3534 10.7813 14.3427 7.97781 11.4594 8.67593ZM2.22464 12.4705V15.5963H2.6602H3.09576L3.09571 12.4705L3.09561 9.3447H2.6601H2.22459L2.22464 12.4705ZM21.4406 12.4705L21.4405 15.5963H21.8761H22.3116V12.4705L22.3117 9.3447H21.8762H21.4407L21.4406 12.4705ZM6.56697 15.2514C4.52747 16.4307 4.48017 16.4616 4.5574 16.5657C4.6009 16.6244 4.69575 16.795 4.76821 16.9448C4.84061 17.0946 4.92634 17.2069 4.95862 17.1941C5.06633 17.1516 9.01348 14.8486 9.06267 14.7995C9.12088 14.7415 8.79119 14.0308 8.70972 14.0385C8.67994 14.0414 7.71567 14.5872 6.56697 15.2514ZM15.5988 14.3923C15.3868 14.8304 15.1403 14.6222 17.5357 16.0283C19.8808 17.4049 19.5629 17.2725 19.7289 16.9414C19.803 16.7934 19.8997 16.6315 19.9437 16.5814C20.0497 16.4611 20.2047 16.5638 17.8874 15.2185C15.5093 13.838 15.8137 13.9479 15.5988 14.3923ZM2.0229 16.4485C1.20061 16.7732 0.763722 17.8545 1.13169 18.6542C1.86195 20.2415 4.27546 19.7691 4.28632 18.0367C4.29386 16.8327 3.12558 16.0131 2.0229 16.4485ZM21.4405 16.3842C19.6005 16.9892 19.9874 19.6189 21.9165 19.6187C23.6062 19.6186 24.16 17.2934 22.6537 16.523C22.3437 16.3644 21.7182 16.2928 21.4405 16.3842ZM9.52667 16.5178C7.74318 16.8498 6.27391 18.2817 5.91071 20.0417C5.76277 20.7586 5.7619 23.6966 5.90958 23.879L6.0075 24H12.2681H18.5288L18.6306 23.8741C18.7909 23.6763 18.7485 20.3478 18.5786 19.7814C18.059 18.0502 16.7079 16.8162 15.0071 16.5196C14.4099 16.4155 10.084 16.414 9.52667 16.5178ZM4.78676 18.8916C4.78676 18.9144 4.70487 19.0691 4.60474 19.2353C4.3965 19.5811 4.38517 19.5566 4.88166 19.8353L5.13039 19.9749L5.24041 19.5963C5.3824 19.1076 5.38686 19.132 5.12813 18.9804C4.90123 18.8474 4.78676 18.8177 4.78676 18.8916ZM19.4164 18.9688C19.181 19.1032 19.174 19.1546 19.3237 19.6555L19.419 19.9741L19.7369 19.7836C20.1134 19.558 20.1054 19.5955 19.8648 19.1834C19.6422 18.8021 19.6783 18.8194 19.4164 18.9688Z" fill="white" fill-opacity="0.48"/>
</g>
<defs>
<clipPath id="clip0_0_183">
<rect width="24" height="24" fill="white"/>
</clipPath>
</defs>
</svg>
