<svg width="24" height="24" viewBox="0 0 24 24" fill="none" xmlns="http://www.w3.org/2000/svg">
<g clip-path="url(#clip0_0_205)">
<g mask="url(#mask0_0_205)">
<g mask="url(#mask1_0_205)">
<path fill-rule="evenodd" clip-rule="evenodd" d="M10.7812 0.883781V1.76756L10.2441 1.86867C5.91422 2.68388 2.52291 6.14667 1.96298 10.3242L1.90172 10.7812H0.950859H0V12V13.2188H0.886406H1.77277L1.82761 13.5586C2.52736 17.8959 6.0772 21.4788 10.2305 22.0396L10.6406 22.095V23.0475V24H11.8828H13.125V23.0391C13.125 22.0951 13.1267 22.0781 13.2231 22.0781C13.2771 22.0781 13.5355 22.0346 13.7973 21.9815C18.1049 21.1069 21.3716 17.6889 21.9593 13.4414L21.9901 13.2188H22.995H24V12V10.7812H23.0491H22.0983L22.037 10.3242C21.4696 6.09056 17.9165 2.52975 13.5586 1.82756L13.2188 1.77277V0.886406V0H12H10.7812V0.883781ZM10.7812 5.17969V6H12H13.2188V5.17969C13.2188 4.64194 13.2356 4.35938 13.2676 4.35938C14.2863 4.35938 16.2717 5.34052 17.3764 6.38981C18.5246 7.4805 19.6406 9.62152 19.6406 10.7336C19.6406 10.7641 19.3453 10.7812 18.8203 10.7812H18V12V13.2188H18.8203C19.3453 13.2188 19.6406 13.2359 19.6406 13.2664C19.6406 14.3817 18.5247 16.5194 17.3698 17.6164C16.274 18.6573 14.2813 19.6406 13.2676 19.6406C13.2356 19.6406 13.2188 19.3581 13.2188 18.8203V18H12H10.7812V18.8244V19.6489L10.582 19.6172C7.51392 19.1299 4.87008 16.4861 4.38277 13.418L4.35112 13.2188H5.17556H6V12V10.7812H5.17969C4.64194 10.7812 4.35938 10.7644 4.35938 10.7324C4.35938 8.21011 7.32244 5.06405 10.2891 4.43644C10.8334 4.32127 10.7812 4.24261 10.7812 5.17969ZM11.2202 8.46061C8.43867 9.06553 7.42828 12.5359 9.4462 14.5538C11.7269 16.8345 15.6077 15.226 15.6077 12C15.6077 9.68212 13.4834 7.96842 11.2202 8.46061Z" fill="white" fill-opacity="0.48"/>
</g>
</g>
</g>
<defs>
<clipPath id="clip0_0_205">
<rect width="24" height="24" fill="white"/>
</clipPath>
</defs>
</svg>
