<svg width="24" height="24" viewBox="0 0 136 231" fill="none" xmlns="http://www.w3.org/2000/svg">
<path fill-rule="evenodd" clip-rule="evenodd" d="M64.3386 0.803332C63.0072 1.68264 1.83656 76.3672 0.795127 78.3842C-0.6859 81.2531 0.449929 85.3593 3.24208 87.2273C4.75232 88.2376 4.93481 88.2493 19.4691 88.2493H34.1692L34.4394 92.414C34.5877 94.7048 36.0597 125.45 37.7107 160.737C41.4795 241.292 36.8018 230.52 68.0126 230.52C95.076 230.52 94.5475 230.65 95.2473 223.858C95.4145 222.234 101.723 90.5369 101.723 88.6662C101.723 88.419 107.728 88.2493 116.49 88.2493C131.093 88.2493 131.273 88.2381 132.783 87.2273C135.575 85.3593 136.711 81.2531 135.23 78.3842C134.189 76.3672 73.018 1.68264 71.6866 0.803332C70.0658 -0.267777 65.9594 -0.267777 64.3386 0.803332ZM3.73021 112.487C2.78271 112.987 1.73678 114.109 1.08234 115.327L0 117.341L3.46996 171.343C6.34527 216.088 7.07027 225.615 7.69864 226.916C10.0966 231.881 17.637 231.773 20.0988 226.738C21.2841 224.315 14.6507 118.158 13.127 115.167C11.5291 112.029 7.03117 110.747 3.73021 112.487ZM125.438 112.564C122.006 114.432 122.418 110.938 118.554 170.925C115.077 224.903 115.073 224.994 115.926 226.738C118.388 231.773 125.929 231.881 128.327 226.916C129.732 224.006 136.273 118.076 135.195 115.681C133.568 112.068 129.021 110.615 125.438 112.564Z" fill="white" fill-opacity="0.48"/>
</svg>
