<svg width="24" height="24" viewBox="0 0 24 24" fill="none" xmlns="http://www.w3.org/2000/svg">
<g clip-path="url(#clip0_0_197)">
<path d="M16.2353 17.0089C16.4854 16.7588 16.4854 16.3586 16.2353 16.1084L15.3348 15.208C15.0847 14.9578 14.6844 14.9578 14.4343 15.208L12.2332 17.4091C12.0831 17.5592 11.7829 17.5592 11.6329 17.4091L9.43171 15.208C9.18158 14.9578 8.78137 14.9578 8.53124 15.208L7.63077 16.1084C7.38064 16.3586 7.38064 16.7588 7.63077 17.0089L9.83192 19.21C9.982 19.3601 9.982 19.6603 9.83192 19.8104L7.63077 22.0115C7.38064 22.2616 7.38064 22.6618 7.63077 22.912L8.53124 23.8124C8.78137 24.0626 9.18158 24.0626 9.43171 23.8124L11.6329 21.6113C11.7829 21.4612 12.0831 21.4612 12.2332 21.6113L14.4343 23.8124C14.6844 24.0626 15.0847 24.0626 15.3348 23.8124L16.2353 22.912C16.4854 22.6618 16.4854 22.2616 16.2353 22.0115L14.0341 19.8104C13.884 19.6603 13.884 19.3601 14.0341 19.21L16.2353 17.0089Z" fill="white" fill-opacity="0.48"/>
<path d="M22.7386 4.75248C19.9872 1.70089 16.0852 0 11.933 0C7.78085 0 3.87882 1.70089 1.12739 4.75248C0.927282 4.95258 0.977308 5.30276 1.17741 5.45284L2.67819 6.75352C2.8783 6.95362 3.17845 6.90359 3.37856 6.70349C5.5797 4.35227 8.68132 3.00156 11.933 3.00156C15.1847 3.00156 18.2863 4.35227 20.4875 6.70349C20.6876 6.90359 20.9877 6.9036 21.1878 6.75352L22.6886 5.45284C22.8887 5.25274 22.9387 4.95258 22.7386 4.75248Z" fill="white" fill-opacity="0.48"/>
<path d="M11.933 7.00363C9.83189 7.00363 7.83085 7.9041 6.43012 9.50493C6.23002 9.70504 6.28004 10.0552 6.48015 10.2553L8.08098 11.456C8.28108 11.606 8.58124 11.606 8.73132 11.4059C9.58176 10.5055 10.7324 10.0052 11.933 10.0052C13.1336 10.0052 14.2842 10.5055 15.0846 11.3559C15.2347 11.556 15.5349 11.556 15.735 11.4059L17.3358 10.2053C17.5859 10.0052 17.5859 9.70504 17.3858 9.45491C16.0351 7.9041 14.0341 7.00363 11.933 7.00363Z" fill="white" fill-opacity="0.48"/>
</g>
<defs>
<clipPath id="clip0_0_197">
<rect width="24" height="24" fill="white"/>
</clipPath>
</defs>
</svg>
