<svg width="24" height="24" viewBox="0 0 24 24" fill="none" xmlns="http://www.w3.org/2000/svg">
<g clip-path="url(#clip0_0_144)">
<g clip-path="url(#clip1_0_144)">
<path fill-rule="evenodd" clip-rule="evenodd" d="M10.6231 0.76569C10.0666 2.0279 9.54306 2.6641 8.6999 3.10278C7.53123 3.71081 6.64288 3.70273 5.01043 3.06919L4.24268 2.77125L3.50601 3.50244L2.76929 4.23364L2.87091 4.48921C3.59789 6.31737 3.69244 6.91953 3.41141 7.9317C3.06372 9.18412 2.3044 9.9487 0.715481 10.6465L0 10.9607V12.0005V13.0402L0.781657 13.3847C3.40162 14.5392 4.11655 16.2908 3.06919 18.9896L2.77125 19.7573L3.50244 20.494L4.23364 21.2307L4.48921 21.1291C6.60989 20.2858 7.34681 20.2382 8.61951 20.8625C9.52604 21.3071 10.0564 21.9409 10.6465 23.2845L10.9607 24H12H13.0393L13.3535 23.2845C14.5165 20.6363 16.2501 19.8926 18.9157 20.8985L19.7744 21.2226L20.5016 20.49L21.2288 19.7573L20.9308 18.9896C19.8779 16.2766 20.6078 14.529 23.2845 13.3535L24 13.0393V12V10.9607L23.2845 10.6465C21.9909 10.0784 21.337 9.54522 20.8972 8.6999C20.2892 7.53123 20.2973 6.64288 20.9308 5.01043L21.2288 4.24268L20.4976 3.50601L19.7664 2.76929L19.5108 2.87091C16.2789 4.15612 14.6075 3.57098 13.3535 0.715481L13.0393 0H12H10.9607L10.6231 0.76569ZM12.6778 3.91717C20.2962 4.65299 22.8239 14.3702 16.528 18.7182C11.8546 21.9458 5.29034 19.2879 4.0676 13.6731C2.92685 8.43484 7.36669 3.40423 12.6778 3.91717ZM11.3238 8.45965C10.5093 10.1983 10.7766 9.99324 8.95923 10.2731C8.13249 10.4004 7.44738 10.5127 7.43679 10.5226C7.42614 10.5326 7.89816 11.0329 8.48566 11.6344C9.07315 12.2359 9.58619 12.7774 9.62571 12.8377C9.68972 12.9354 9.66959 13.1187 9.44114 14.5142C9.30005 15.376 9.19115 16.1006 9.19913 16.1246C9.20711 16.1485 9.80812 15.8403 10.5347 15.4397C12.1517 14.5481 11.8512 14.5484 13.4646 15.4374C14.1893 15.8367 14.7908 16.1548 14.8014 16.1442C14.812 16.1337 14.704 15.41 14.5616 14.5361C14.3309 13.1214 14.3104 12.9352 14.3743 12.8376C14.4138 12.7773 14.9268 12.2359 15.5143 11.6344C16.1018 11.0329 16.5738 10.532 16.5632 10.5213C16.5525 10.5107 15.8727 10.3993 15.0526 10.2739C13.2256 9.99434 13.4896 10.193 12.6956 8.50042C11.899 6.80229 12.0975 6.80822 11.3238 8.45965Z" fill="#ffffff" fill-opacity="0.48"/>
</g>
</g>
<defs>
<clipPath id="clip0_0_144">
<rect width="24" height="24" fill="white"/>
</clipPath>
<clipPath id="clip1_0_144">
<rect width="24" height="24" fill="white"/>
</clipPath>
</defs>
</svg>
